M48
; DRILL file {KiCad (5.1.0)-1} date 2019/04/24 1:44:47
; FORMAT={-:-/ absolute / metric / decimal}
; #@! TF.CreationDate,2019-04-24T01:44:47+09:00
; #@! TF.GenerationSoftware,Kicad,Pcbnew,(5.1.0)-1
FMAT,2
METRIC
T1C0.400
T2C1.000
T3C1.200
T4C1.900
T5C2.200
T6C3.000
T7C4.000
%
G90
G05
T1
X76.2Y-98.52
X95.25Y-98.52
X104.115Y-111.144
X104.14Y-109.95
X107.975Y-111.753
X109.093Y-111.728
X110.114Y-111.723
X113.665Y-109.95
X114.935Y-109.95
X115.443Y-105.886
X118.745Y-43.275
X118.745Y-109.315
X120.015Y-109.315
X121.285Y-109.315
X133.35Y-97.885
T3
X149.525Y-45.375
X156.525Y-45.375
X61.48Y-45.375
X68.48Y-45.375
X61.48Y-121.575
X68.48Y-121.575
X149.525Y-121.575
X156.525Y-121.575
T5
X65.0Y-67.0
X153.0Y-105.0
X153.0Y-67.0
X65.0Y-105.0
T6
X142.275Y-61.075
X143.465Y-54.835
X147.275Y-63.275
X149.815Y-52.295
X142.275Y-80.125
X143.465Y-73.885
X147.275Y-82.325
X149.815Y-71.345
X123.225Y-61.075
X124.415Y-54.835
X128.225Y-63.275
X130.765Y-52.295
X142.275Y-99.175
X143.465Y-92.935
X147.275Y-101.375
X149.815Y-90.395
X66.075Y-99.175
X67.265Y-92.935
X71.075Y-101.375
X73.615Y-90.395
X104.175Y-61.075
X105.365Y-54.835
X109.175Y-63.275
X111.715Y-52.295
X85.125Y-61.075
X86.315Y-54.835
X90.125Y-63.275
X92.665Y-52.295
X66.075Y-61.075
X67.265Y-54.835
X71.075Y-63.275
X73.615Y-52.295
X85.125Y-80.125
X86.315Y-73.885
X90.125Y-82.325
X92.665Y-71.345
X104.175Y-99.175
X105.365Y-92.935
X109.175Y-101.375
X111.715Y-90.395
X85.125Y-99.175
X86.315Y-92.935
X90.125Y-101.375
X92.665Y-90.395
X66.075Y-80.125
X67.265Y-73.885
X71.075Y-82.325
X73.615Y-71.345
X123.225Y-80.125
X124.415Y-73.885
X128.225Y-82.325
X130.765Y-71.345
X104.175Y-80.125
X105.365Y-73.885
X109.175Y-82.325
X111.715Y-71.345
X123.225Y-99.175
X124.415Y-92.935
X128.225Y-101.375
X130.765Y-90.395
T7
X109.175Y-57.375
X90.125Y-57.375
X71.075Y-57.375
X90.125Y-76.425
X109.175Y-95.475
X90.125Y-95.475
X71.075Y-76.425
X128.225Y-76.425
X109.175Y-76.425
X128.225Y-95.475
X147.275Y-57.375
X147.275Y-76.425
X128.225Y-57.375
X147.275Y-95.475
X71.075Y-95.475
T2
G00X145.975Y-47.475
M15
G01X146.475Y-47.475
M16
G05
G00X147.475Y-43.275
M15
G01X147.975Y-43.275
M16
G05
G00X151.475Y-43.275
M15
G01X151.975Y-43.275
M16
G05
G00X154.475Y-43.275
M15
G01X154.975Y-43.275
M16
G05
G00X63.53Y-47.475
M15
G01X63.03Y-47.475
M16
G05
G00X66.53Y-47.475
M15
G01X66.03Y-47.475
M16
G05
G00X70.53Y-47.475
M15
G01X70.03Y-47.475
M16
G05
G00X72.03Y-43.275
M15
G01X71.53Y-43.275
M16
G05
G00X63.53Y-123.675
M15
G01X63.03Y-123.675
M16
G05
G00X66.53Y-123.675
M15
G01X66.03Y-123.675
M16
G05
G00X70.53Y-123.675
M15
G01X70.03Y-123.675
M16
G05
G00X72.03Y-119.475
M15
G01X71.53Y-119.475
M16
G05
G00X145.975Y-123.675
M15
G01X146.475Y-123.675
M16
G05
G00X147.475Y-119.475
M15
G01X147.975Y-119.475
M16
G05
G00X151.475Y-119.475
M15
G01X151.975Y-119.475
M16
G05
G00X154.475Y-119.475
M15
G01X154.975Y-119.475
M16
G05
T4
G00X103.68Y-57.375
M15
G01X104.0Y-57.375
M16
G05
G00X114.35Y-57.375
M15
G01X114.67Y-57.375
M16
G05
G00X84.63Y-57.375
M15
G01X84.95Y-57.375
M16
G05
G00X95.3Y-57.375
M15
G01X95.62Y-57.375
M16
G05
G00X65.58Y-57.375
M15
G01X65.9Y-57.375
M16
G05
G00X76.25Y-57.375
M15
G01X76.57Y-57.375
M16
G05
G00X84.63Y-76.425
M15
G01X84.95Y-76.425
M16
G05
G00X95.3Y-76.425
M15
G01X95.62Y-76.425
M16
G05
G00X103.68Y-95.475
M15
G01X104.0Y-95.475
M16
G05
G00X114.35Y-95.475
M15
G01X114.67Y-95.475
M16
G05
G00X84.63Y-95.475
M15
G01X84.95Y-95.475
M16
G05
G00X95.3Y-95.475
M15
G01X95.62Y-95.475
M16
G05
G00X65.58Y-76.425
M15
G01X65.9Y-76.425
M16
G05
G00X76.25Y-76.425
M15
G01X76.57Y-76.425
M16
G05
G00X122.73Y-76.425
M15
G01X123.05Y-76.425
M16
G05
G00X133.4Y-76.425
M15
G01X133.72Y-76.425
M16
G05
G00X103.68Y-76.425
M15
G01X104.0Y-76.425
M16
G05
G00X114.35Y-76.425
M15
G01X114.67Y-76.425
M16
G05
G00X122.73Y-95.475
M15
G01X123.05Y-95.475
M16
G05
G00X133.4Y-95.475
M15
G01X133.72Y-95.475
M16
G05
G00X141.78Y-57.375
M15
G01X142.1Y-57.375
M16
G05
G00X152.45Y-57.375
M15
G01X152.77Y-57.375
M16
G05
G00X141.78Y-76.425
M15
G01X142.1Y-76.425
M16
G05
G00X152.45Y-76.425
M15
G01X152.77Y-76.425
M16
G05
G00X122.73Y-57.375
M15
G01X123.05Y-57.375
M16
G05
G00X133.4Y-57.375
M15
G01X133.72Y-57.375
M16
G05
G00X141.78Y-95.475
M15
G01X142.1Y-95.475
M16
G05
G00X152.45Y-95.475
M15
G01X152.77Y-95.475
M16
G05
G00X65.58Y-95.475
M15
G01X65.9Y-95.475
M16
G05
G00X76.25Y-95.475
M15
G01X76.57Y-95.475
M16
G05
T0
M30
