G04 #@! TF.GenerationSoftware,KiCad,Pcbnew,(5.1.0)-1*
G04 #@! TF.CreationDate,2019-04-24T01:44:36+09:00*
G04 #@! TF.ProjectId,mithumboard,6d697468-756d-4626-9f61-72642e6b6963,rev?*
G04 #@! TF.SameCoordinates,Original*
G04 #@! TF.FileFunction,Soldermask,Bot*
G04 #@! TF.FilePolarity,Negative*
%FSLAX46Y46*%
G04 Gerber Fmt 4.6, Leading zero omitted, Abs format (unit mm)*
G04 Created by KiCad (PCBNEW (5.1.0)-1) date 2019-04-24 01:44:36*
%MOMM*%
%LPD*%
G04 APERTURE LIST*
%ADD10C,0.100000*%
G04 APERTURE END LIST*
D10*
G36*
X73486024Y-123130955D02*
G01*
X73518738Y-123140879D01*
X73548885Y-123156993D01*
X73575315Y-123178685D01*
X73597007Y-123205115D01*
X73613121Y-123235262D01*
X73623045Y-123267976D01*
X73627000Y-123308138D01*
X73627000Y-123995862D01*
X73623045Y-124036024D01*
X73613121Y-124068738D01*
X73597007Y-124098885D01*
X73575315Y-124125315D01*
X73548885Y-124147007D01*
X73518738Y-124163121D01*
X73486024Y-124173045D01*
X73445862Y-124177000D01*
X72858138Y-124177000D01*
X72817976Y-124173045D01*
X72785262Y-124163121D01*
X72755115Y-124147007D01*
X72728685Y-124125315D01*
X72706993Y-124098885D01*
X72690879Y-124068738D01*
X72680955Y-124036024D01*
X72677000Y-123995862D01*
X72677000Y-123308138D01*
X72680955Y-123267976D01*
X72690879Y-123235262D01*
X72706993Y-123205115D01*
X72728685Y-123178685D01*
X72755115Y-123156993D01*
X72785262Y-123140879D01*
X72817976Y-123130955D01*
X72858138Y-123127000D01*
X73445862Y-123127000D01*
X73486024Y-123130955D01*
X73486024Y-123130955D01*
G37*
G36*
X73486024Y-121380955D02*
G01*
X73518738Y-121390879D01*
X73548885Y-121406993D01*
X73575315Y-121428685D01*
X73597007Y-121455115D01*
X73613121Y-121485262D01*
X73623045Y-121517976D01*
X73627000Y-121558138D01*
X73627000Y-122245862D01*
X73623045Y-122286024D01*
X73613121Y-122318738D01*
X73597007Y-122348885D01*
X73575315Y-122375315D01*
X73548885Y-122397007D01*
X73518738Y-122413121D01*
X73486024Y-122423045D01*
X73445862Y-122427000D01*
X72858138Y-122427000D01*
X72817976Y-122423045D01*
X72785262Y-122413121D01*
X72755115Y-122397007D01*
X72728685Y-122375315D01*
X72706993Y-122348885D01*
X72690879Y-122318738D01*
X72680955Y-122286024D01*
X72677000Y-122245862D01*
X72677000Y-121558138D01*
X72680955Y-121517976D01*
X72690879Y-121485262D01*
X72706993Y-121455115D01*
X72728685Y-121428685D01*
X72755115Y-121406993D01*
X72785262Y-121390879D01*
X72817976Y-121380955D01*
X72858138Y-121377000D01*
X73445862Y-121377000D01*
X73486024Y-121380955D01*
X73486024Y-121380955D01*
G37*
G36*
X105597825Y-120583745D02*
G01*
X105628490Y-120593048D01*
X105656748Y-120608152D01*
X105681519Y-120628481D01*
X105701848Y-120653252D01*
X105716952Y-120681510D01*
X105726255Y-120712175D01*
X105730000Y-120750203D01*
X105730000Y-122009797D01*
X105726255Y-122047825D01*
X105716952Y-122078490D01*
X105701848Y-122106748D01*
X105681519Y-122131519D01*
X105656748Y-122151848D01*
X105628490Y-122166952D01*
X105597825Y-122176255D01*
X105559797Y-122180000D01*
X102400203Y-122180000D01*
X102362175Y-122176255D01*
X102331510Y-122166952D01*
X102303252Y-122151848D01*
X102278481Y-122131519D01*
X102258152Y-122106748D01*
X102243048Y-122078490D01*
X102233745Y-122047825D01*
X102230000Y-122009797D01*
X102230000Y-120750203D01*
X102233745Y-120712175D01*
X102243048Y-120681510D01*
X102258152Y-120653252D01*
X102278481Y-120628481D01*
X102303252Y-120608152D01*
X102331510Y-120593048D01*
X102362175Y-120583745D01*
X102400203Y-120580000D01*
X105559797Y-120580000D01*
X105597825Y-120583745D01*
X105597825Y-120583745D01*
G37*
G36*
X110997825Y-120583745D02*
G01*
X111028490Y-120593048D01*
X111056748Y-120608152D01*
X111081519Y-120628481D01*
X111101848Y-120653252D01*
X111116952Y-120681510D01*
X111126255Y-120712175D01*
X111130000Y-120750203D01*
X111130000Y-122009797D01*
X111126255Y-122047825D01*
X111116952Y-122078490D01*
X111101848Y-122106748D01*
X111081519Y-122131519D01*
X111056748Y-122151848D01*
X111028490Y-122166952D01*
X110997825Y-122176255D01*
X110959797Y-122180000D01*
X107800203Y-122180000D01*
X107762175Y-122176255D01*
X107731510Y-122166952D01*
X107703252Y-122151848D01*
X107678481Y-122131519D01*
X107658152Y-122106748D01*
X107643048Y-122078490D01*
X107633745Y-122047825D01*
X107630000Y-122009797D01*
X107630000Y-120750203D01*
X107633745Y-120712175D01*
X107643048Y-120681510D01*
X107658152Y-120653252D01*
X107678481Y-120628481D01*
X107703252Y-120608152D01*
X107731510Y-120593048D01*
X107762175Y-120583745D01*
X107800203Y-120580000D01*
X110959797Y-120580000D01*
X110997825Y-120583745D01*
X110997825Y-120583745D01*
G37*
G36*
X149700013Y-120998057D02*
G01*
X149809206Y-121043286D01*
X149907477Y-121108949D01*
X149991051Y-121192523D01*
X150056714Y-121290794D01*
X150101943Y-121399987D01*
X150125000Y-121515904D01*
X150125000Y-121634096D01*
X150101943Y-121750013D01*
X150056714Y-121859206D01*
X149991051Y-121957477D01*
X149907477Y-122041051D01*
X149809206Y-122106714D01*
X149700013Y-122151943D01*
X149584096Y-122175000D01*
X149465904Y-122175000D01*
X149349987Y-122151943D01*
X149240794Y-122106714D01*
X149142523Y-122041051D01*
X149058949Y-121957477D01*
X148993286Y-121859206D01*
X148948057Y-121750013D01*
X148925000Y-121634096D01*
X148925000Y-121515904D01*
X148948057Y-121399987D01*
X148993286Y-121290794D01*
X149058949Y-121192523D01*
X149142523Y-121108949D01*
X149240794Y-121043286D01*
X149349987Y-120998057D01*
X149465904Y-120975000D01*
X149584096Y-120975000D01*
X149700013Y-120998057D01*
X149700013Y-120998057D01*
G37*
G36*
X68655013Y-120998057D02*
G01*
X68764206Y-121043286D01*
X68862477Y-121108949D01*
X68946051Y-121192523D01*
X69011714Y-121290794D01*
X69056943Y-121399987D01*
X69080000Y-121515904D01*
X69080000Y-121634096D01*
X69056943Y-121750013D01*
X69011714Y-121859206D01*
X68946051Y-121957477D01*
X68862477Y-122041051D01*
X68764206Y-122106714D01*
X68655013Y-122151943D01*
X68539096Y-122175000D01*
X68420904Y-122175000D01*
X68304987Y-122151943D01*
X68195794Y-122106714D01*
X68097523Y-122041051D01*
X68013949Y-121957477D01*
X67948286Y-121859206D01*
X67903057Y-121750013D01*
X67880000Y-121634096D01*
X67880000Y-121515904D01*
X67903057Y-121399987D01*
X67948286Y-121290794D01*
X68013949Y-121192523D01*
X68097523Y-121108949D01*
X68195794Y-121043286D01*
X68304987Y-120998057D01*
X68420904Y-120975000D01*
X68539096Y-120975000D01*
X68655013Y-120998057D01*
X68655013Y-120998057D01*
G37*
G36*
X61655013Y-120998057D02*
G01*
X61764206Y-121043286D01*
X61862477Y-121108949D01*
X61946051Y-121192523D01*
X62011714Y-121290794D01*
X62056943Y-121399987D01*
X62080000Y-121515904D01*
X62080000Y-121634096D01*
X62056943Y-121750013D01*
X62011714Y-121859206D01*
X61946051Y-121957477D01*
X61862477Y-122041051D01*
X61764206Y-122106714D01*
X61655013Y-122151943D01*
X61539096Y-122175000D01*
X61420904Y-122175000D01*
X61304987Y-122151943D01*
X61195794Y-122106714D01*
X61097523Y-122041051D01*
X61013949Y-121957477D01*
X60948286Y-121859206D01*
X60903057Y-121750013D01*
X60880000Y-121634096D01*
X60880000Y-121515904D01*
X60903057Y-121399987D01*
X60948286Y-121290794D01*
X61013949Y-121192523D01*
X61097523Y-121108949D01*
X61195794Y-121043286D01*
X61304987Y-120998057D01*
X61420904Y-120975000D01*
X61539096Y-120975000D01*
X61655013Y-120998057D01*
X61655013Y-120998057D01*
G37*
G36*
X156700013Y-120998057D02*
G01*
X156809206Y-121043286D01*
X156907477Y-121108949D01*
X156991051Y-121192523D01*
X157056714Y-121290794D01*
X157101943Y-121399987D01*
X157125000Y-121515904D01*
X157125000Y-121634096D01*
X157101943Y-121750013D01*
X157056714Y-121859206D01*
X156991051Y-121957477D01*
X156907477Y-122041051D01*
X156809206Y-122106714D01*
X156700013Y-122151943D01*
X156584096Y-122175000D01*
X156465904Y-122175000D01*
X156349987Y-122151943D01*
X156240794Y-122106714D01*
X156142523Y-122041051D01*
X156058949Y-121957477D01*
X155993286Y-121859206D01*
X155948057Y-121750013D01*
X155925000Y-121634096D01*
X155925000Y-121515904D01*
X155948057Y-121399987D01*
X155993286Y-121290794D01*
X156058949Y-121192523D01*
X156142523Y-121108949D01*
X156240794Y-121043286D01*
X156349987Y-120998057D01*
X156465904Y-120975000D01*
X156584096Y-120975000D01*
X156700013Y-120998057D01*
X156700013Y-120998057D01*
G37*
G36*
X114444024Y-120908955D02*
G01*
X114476738Y-120918879D01*
X114506885Y-120934993D01*
X114533315Y-120956685D01*
X114555007Y-120983115D01*
X114571121Y-121013262D01*
X114581045Y-121045976D01*
X114585000Y-121086138D01*
X114585000Y-121673862D01*
X114581045Y-121714024D01*
X114571121Y-121746738D01*
X114555007Y-121776885D01*
X114533315Y-121803315D01*
X114506885Y-121825007D01*
X114476738Y-121841121D01*
X114444024Y-121851045D01*
X114403862Y-121855000D01*
X113716138Y-121855000D01*
X113675976Y-121851045D01*
X113643262Y-121841121D01*
X113613115Y-121825007D01*
X113586685Y-121803315D01*
X113564993Y-121776885D01*
X113548879Y-121746738D01*
X113538955Y-121714024D01*
X113535000Y-121673862D01*
X113535000Y-121086138D01*
X113538955Y-121045976D01*
X113548879Y-121013262D01*
X113564993Y-120983115D01*
X113586685Y-120956685D01*
X113613115Y-120934993D01*
X113643262Y-120918879D01*
X113675976Y-120908955D01*
X113716138Y-120905000D01*
X114403862Y-120905000D01*
X114444024Y-120908955D01*
X114444024Y-120908955D01*
G37*
G36*
X143654024Y-120908955D02*
G01*
X143686738Y-120918879D01*
X143716885Y-120934993D01*
X143743315Y-120956685D01*
X143765007Y-120983115D01*
X143781121Y-121013262D01*
X143791045Y-121045976D01*
X143795000Y-121086138D01*
X143795000Y-121673862D01*
X143791045Y-121714024D01*
X143781121Y-121746738D01*
X143765007Y-121776885D01*
X143743315Y-121803315D01*
X143716885Y-121825007D01*
X143686738Y-121841121D01*
X143654024Y-121851045D01*
X143613862Y-121855000D01*
X142926138Y-121855000D01*
X142885976Y-121851045D01*
X142853262Y-121841121D01*
X142823115Y-121825007D01*
X142796685Y-121803315D01*
X142774993Y-121776885D01*
X142758879Y-121746738D01*
X142748955Y-121714024D01*
X142745000Y-121673862D01*
X142745000Y-121086138D01*
X142748955Y-121045976D01*
X142758879Y-121013262D01*
X142774993Y-120983115D01*
X142796685Y-120956685D01*
X142823115Y-120934993D01*
X142853262Y-120918879D01*
X142885976Y-120908955D01*
X142926138Y-120905000D01*
X143613862Y-120905000D01*
X143654024Y-120908955D01*
X143654024Y-120908955D01*
G37*
G36*
X145404024Y-120908955D02*
G01*
X145436738Y-120918879D01*
X145466885Y-120934993D01*
X145493315Y-120956685D01*
X145515007Y-120983115D01*
X145531121Y-121013262D01*
X145541045Y-121045976D01*
X145545000Y-121086138D01*
X145545000Y-121673862D01*
X145541045Y-121714024D01*
X145531121Y-121746738D01*
X145515007Y-121776885D01*
X145493315Y-121803315D01*
X145466885Y-121825007D01*
X145436738Y-121841121D01*
X145404024Y-121851045D01*
X145363862Y-121855000D01*
X144676138Y-121855000D01*
X144635976Y-121851045D01*
X144603262Y-121841121D01*
X144573115Y-121825007D01*
X144546685Y-121803315D01*
X144524993Y-121776885D01*
X144508879Y-121746738D01*
X144498955Y-121714024D01*
X144495000Y-121673862D01*
X144495000Y-121086138D01*
X144498955Y-121045976D01*
X144508879Y-121013262D01*
X144524993Y-120983115D01*
X144546685Y-120956685D01*
X144573115Y-120934993D01*
X144603262Y-120918879D01*
X144635976Y-120908955D01*
X144676138Y-120905000D01*
X145363862Y-120905000D01*
X145404024Y-120908955D01*
X145404024Y-120908955D01*
G37*
G36*
X116194024Y-120908955D02*
G01*
X116226738Y-120918879D01*
X116256885Y-120934993D01*
X116283315Y-120956685D01*
X116305007Y-120983115D01*
X116321121Y-121013262D01*
X116331045Y-121045976D01*
X116335000Y-121086138D01*
X116335000Y-121673862D01*
X116331045Y-121714024D01*
X116321121Y-121746738D01*
X116305007Y-121776885D01*
X116283315Y-121803315D01*
X116256885Y-121825007D01*
X116226738Y-121841121D01*
X116194024Y-121851045D01*
X116153862Y-121855000D01*
X115466138Y-121855000D01*
X115425976Y-121851045D01*
X115393262Y-121841121D01*
X115363115Y-121825007D01*
X115336685Y-121803315D01*
X115314993Y-121776885D01*
X115298879Y-121746738D01*
X115288955Y-121714024D01*
X115285000Y-121673862D01*
X115285000Y-121086138D01*
X115288955Y-121045976D01*
X115298879Y-121013262D01*
X115314993Y-120983115D01*
X115336685Y-120956685D01*
X115363115Y-120934993D01*
X115393262Y-120918879D01*
X115425976Y-120908955D01*
X115466138Y-120905000D01*
X116153862Y-120905000D01*
X116194024Y-120908955D01*
X116194024Y-120908955D01*
G37*
G36*
X119125000Y-119005000D02*
G01*
X118365000Y-119005000D01*
X118365000Y-117405000D01*
X119125000Y-117405000D01*
X119125000Y-119005000D01*
X119125000Y-119005000D01*
G37*
G36*
X120395000Y-119005000D02*
G01*
X119635000Y-119005000D01*
X119635000Y-117405000D01*
X120395000Y-117405000D01*
X120395000Y-119005000D01*
X120395000Y-119005000D01*
G37*
G36*
X121665000Y-119005000D02*
G01*
X120905000Y-119005000D01*
X120905000Y-117405000D01*
X121665000Y-117405000D01*
X121665000Y-119005000D01*
X121665000Y-119005000D01*
G37*
G36*
X122935000Y-119005000D02*
G01*
X122175000Y-119005000D01*
X122175000Y-117405000D01*
X122935000Y-117405000D01*
X122935000Y-119005000D01*
X122935000Y-119005000D01*
G37*
G36*
X112620000Y-117170000D02*
G01*
X111520000Y-117170000D01*
X111520000Y-116770000D01*
X112620000Y-116770000D01*
X112620000Y-117170000D01*
X112620000Y-117170000D01*
G37*
G36*
X106920000Y-117170000D02*
G01*
X105820000Y-117170000D01*
X105820000Y-116770000D01*
X106920000Y-116770000D01*
X106920000Y-117170000D01*
X106920000Y-117170000D01*
G37*
G36*
X112620000Y-116520000D02*
G01*
X111520000Y-116520000D01*
X111520000Y-116120000D01*
X112620000Y-116120000D01*
X112620000Y-116520000D01*
X112620000Y-116520000D01*
G37*
G36*
X106920000Y-116520000D02*
G01*
X105820000Y-116520000D01*
X105820000Y-116120000D01*
X106920000Y-116120000D01*
X106920000Y-116520000D01*
X106920000Y-116520000D01*
G37*
G36*
X112620000Y-115870000D02*
G01*
X111520000Y-115870000D01*
X111520000Y-115470000D01*
X112620000Y-115470000D01*
X112620000Y-115870000D01*
X112620000Y-115870000D01*
G37*
G36*
X106920000Y-115870000D02*
G01*
X105820000Y-115870000D01*
X105820000Y-115470000D01*
X106920000Y-115470000D01*
X106920000Y-115870000D01*
X106920000Y-115870000D01*
G37*
G36*
X112620000Y-115220000D02*
G01*
X111520000Y-115220000D01*
X111520000Y-114820000D01*
X112620000Y-114820000D01*
X112620000Y-115220000D01*
X112620000Y-115220000D01*
G37*
G36*
X106920000Y-115220000D02*
G01*
X105820000Y-115220000D01*
X105820000Y-114820000D01*
X106920000Y-114820000D01*
X106920000Y-115220000D01*
X106920000Y-115220000D01*
G37*
G36*
X106920000Y-114570000D02*
G01*
X105820000Y-114570000D01*
X105820000Y-114170000D01*
X106920000Y-114170000D01*
X106920000Y-114570000D01*
X106920000Y-114570000D01*
G37*
G36*
X112620000Y-114570000D02*
G01*
X111520000Y-114570000D01*
X111520000Y-114170000D01*
X112620000Y-114170000D01*
X112620000Y-114570000D01*
X112620000Y-114570000D01*
G37*
G36*
X106920000Y-113920000D02*
G01*
X105820000Y-113920000D01*
X105820000Y-113520000D01*
X106920000Y-113520000D01*
X106920000Y-113920000D01*
X106920000Y-113920000D01*
G37*
G36*
X112620000Y-113920000D02*
G01*
X111520000Y-113920000D01*
X111520000Y-113520000D01*
X112620000Y-113520000D01*
X112620000Y-113920000D01*
X112620000Y-113920000D01*
G37*
G36*
X106920000Y-113270000D02*
G01*
X105820000Y-113270000D01*
X105820000Y-112870000D01*
X106920000Y-112870000D01*
X106920000Y-113270000D01*
X106920000Y-113270000D01*
G37*
G36*
X112620000Y-113270000D02*
G01*
X111520000Y-113270000D01*
X111520000Y-112870000D01*
X112620000Y-112870000D01*
X112620000Y-113270000D01*
X112620000Y-113270000D01*
G37*
G36*
X106920000Y-112620000D02*
G01*
X105820000Y-112620000D01*
X105820000Y-112220000D01*
X106920000Y-112220000D01*
X106920000Y-112620000D01*
X106920000Y-112620000D01*
G37*
G36*
X112620000Y-112620000D02*
G01*
X111520000Y-112620000D01*
X111520000Y-112220000D01*
X112620000Y-112220000D01*
X112620000Y-112620000D01*
X112620000Y-112620000D01*
G37*
G36*
X106920000Y-111970000D02*
G01*
X105820000Y-111970000D01*
X105820000Y-111570000D01*
X106920000Y-111570000D01*
X106920000Y-111970000D01*
X106920000Y-111970000D01*
G37*
G36*
X112620000Y-111970000D02*
G01*
X111520000Y-111970000D01*
X111520000Y-111570000D01*
X112620000Y-111570000D01*
X112620000Y-111970000D01*
X112620000Y-111970000D01*
G37*
G36*
X119125000Y-111385000D02*
G01*
X118365000Y-111385000D01*
X118365000Y-109785000D01*
X119125000Y-109785000D01*
X119125000Y-111385000D01*
X119125000Y-111385000D01*
G37*
G36*
X122935000Y-111385000D02*
G01*
X122175000Y-111385000D01*
X122175000Y-109785000D01*
X122935000Y-109785000D01*
X122935000Y-111385000D01*
X122935000Y-111385000D01*
G37*
G36*
X121665000Y-111385000D02*
G01*
X120905000Y-111385000D01*
X120905000Y-109785000D01*
X121665000Y-109785000D01*
X121665000Y-111385000D01*
X121665000Y-111385000D01*
G37*
G36*
X120395000Y-111385000D02*
G01*
X119635000Y-111385000D01*
X119635000Y-109785000D01*
X120395000Y-109785000D01*
X120395000Y-111385000D01*
X120395000Y-111385000D01*
G37*
G36*
X106920000Y-111320000D02*
G01*
X105820000Y-111320000D01*
X105820000Y-110920000D01*
X106920000Y-110920000D01*
X106920000Y-111320000D01*
X106920000Y-111320000D01*
G37*
G36*
X112620000Y-111320000D02*
G01*
X111520000Y-111320000D01*
X111520000Y-110920000D01*
X112620000Y-110920000D01*
X112620000Y-111320000D01*
X112620000Y-111320000D01*
G37*
G36*
X106920000Y-110670000D02*
G01*
X105820000Y-110670000D01*
X105820000Y-110270000D01*
X106920000Y-110270000D01*
X106920000Y-110670000D01*
X106920000Y-110670000D01*
G37*
G36*
X112620000Y-110670000D02*
G01*
X111520000Y-110670000D01*
X111520000Y-110270000D01*
X112620000Y-110270000D01*
X112620000Y-110670000D01*
X112620000Y-110670000D01*
G37*
G36*
X106920000Y-110020000D02*
G01*
X105820000Y-110020000D01*
X105820000Y-109620000D01*
X106920000Y-109620000D01*
X106920000Y-110020000D01*
X106920000Y-110020000D01*
G37*
G36*
X112620000Y-110020000D02*
G01*
X111520000Y-110020000D01*
X111520000Y-109620000D01*
X112620000Y-109620000D01*
X112620000Y-110020000D01*
X112620000Y-110020000D01*
G37*
G36*
X112412024Y-107065955D02*
G01*
X112444738Y-107075879D01*
X112474885Y-107091993D01*
X112501315Y-107113685D01*
X112523007Y-107140115D01*
X112539121Y-107170262D01*
X112549045Y-107202976D01*
X112553000Y-107243138D01*
X112553000Y-107830862D01*
X112549045Y-107871024D01*
X112539121Y-107903738D01*
X112523007Y-107933885D01*
X112501315Y-107960315D01*
X112474885Y-107982007D01*
X112444738Y-107998121D01*
X112412024Y-108008045D01*
X112371862Y-108012000D01*
X111684138Y-108012000D01*
X111643976Y-108008045D01*
X111611262Y-107998121D01*
X111581115Y-107982007D01*
X111554685Y-107960315D01*
X111532993Y-107933885D01*
X111516879Y-107903738D01*
X111506955Y-107871024D01*
X111503000Y-107830862D01*
X111503000Y-107243138D01*
X111506955Y-107202976D01*
X111516879Y-107170262D01*
X111532993Y-107140115D01*
X111554685Y-107113685D01*
X111581115Y-107091993D01*
X111611262Y-107075879D01*
X111643976Y-107065955D01*
X111684138Y-107062000D01*
X112371862Y-107062000D01*
X112412024Y-107065955D01*
X112412024Y-107065955D01*
G37*
G36*
X114162024Y-107065955D02*
G01*
X114194738Y-107075879D01*
X114224885Y-107091993D01*
X114251315Y-107113685D01*
X114273007Y-107140115D01*
X114289121Y-107170262D01*
X114299045Y-107202976D01*
X114303000Y-107243138D01*
X114303000Y-107830862D01*
X114299045Y-107871024D01*
X114289121Y-107903738D01*
X114273007Y-107933885D01*
X114251315Y-107960315D01*
X114224885Y-107982007D01*
X114194738Y-107998121D01*
X114162024Y-108008045D01*
X114121862Y-108012000D01*
X113434138Y-108012000D01*
X113393976Y-108008045D01*
X113361262Y-107998121D01*
X113331115Y-107982007D01*
X113304685Y-107960315D01*
X113282993Y-107933885D01*
X113266879Y-107903738D01*
X113256955Y-107871024D01*
X113253000Y-107830862D01*
X113253000Y-107243138D01*
X113256955Y-107202976D01*
X113266879Y-107170262D01*
X113282993Y-107140115D01*
X113304685Y-107113685D01*
X113331115Y-107091993D01*
X113361262Y-107075879D01*
X113393976Y-107065955D01*
X113434138Y-107062000D01*
X114121862Y-107062000D01*
X114162024Y-107065955D01*
X114162024Y-107065955D01*
G37*
G36*
X65320857Y-103942272D02*
G01*
X65521043Y-104025192D01*
X65521045Y-104025193D01*
X65611738Y-104085792D01*
X65701208Y-104145574D01*
X65854426Y-104298792D01*
X65974808Y-104478957D01*
X66057728Y-104679143D01*
X66100000Y-104891658D01*
X66100000Y-105108342D01*
X66057728Y-105320857D01*
X65974808Y-105521043D01*
X65974807Y-105521045D01*
X65854425Y-105701209D01*
X65701209Y-105854425D01*
X65521045Y-105974807D01*
X65521044Y-105974808D01*
X65521043Y-105974808D01*
X65320857Y-106057728D01*
X65108342Y-106100000D01*
X64891658Y-106100000D01*
X64679143Y-106057728D01*
X64478957Y-105974808D01*
X64478956Y-105974808D01*
X64478955Y-105974807D01*
X64298791Y-105854425D01*
X64145575Y-105701209D01*
X64025193Y-105521045D01*
X64025192Y-105521043D01*
X63942272Y-105320857D01*
X63900000Y-105108342D01*
X63900000Y-104891658D01*
X63942272Y-104679143D01*
X64025192Y-104478957D01*
X64145574Y-104298792D01*
X64298792Y-104145574D01*
X64388262Y-104085792D01*
X64478955Y-104025193D01*
X64478957Y-104025192D01*
X64679143Y-103942272D01*
X64891658Y-103900000D01*
X65108342Y-103900000D01*
X65320857Y-103942272D01*
X65320857Y-103942272D01*
G37*
G36*
X153320857Y-103942272D02*
G01*
X153521043Y-104025192D01*
X153521045Y-104025193D01*
X153611738Y-104085792D01*
X153701208Y-104145574D01*
X153854426Y-104298792D01*
X153974808Y-104478957D01*
X154057728Y-104679143D01*
X154100000Y-104891658D01*
X154100000Y-105108342D01*
X154057728Y-105320857D01*
X153974808Y-105521043D01*
X153974807Y-105521045D01*
X153854425Y-105701209D01*
X153701209Y-105854425D01*
X153521045Y-105974807D01*
X153521044Y-105974808D01*
X153521043Y-105974808D01*
X153320857Y-106057728D01*
X153108342Y-106100000D01*
X152891658Y-106100000D01*
X152679143Y-106057728D01*
X152478957Y-105974808D01*
X152478956Y-105974808D01*
X152478955Y-105974807D01*
X152298791Y-105854425D01*
X152145575Y-105701209D01*
X152025193Y-105521045D01*
X152025192Y-105521043D01*
X151942272Y-105320857D01*
X151900000Y-105108342D01*
X151900000Y-104891658D01*
X151942272Y-104679143D01*
X152025192Y-104478957D01*
X152145574Y-104298792D01*
X152298792Y-104145574D01*
X152388262Y-104085792D01*
X152478955Y-104025193D01*
X152478957Y-104025192D01*
X152679143Y-103942272D01*
X152891658Y-103900000D01*
X153108342Y-103900000D01*
X153320857Y-103942272D01*
X153320857Y-103942272D01*
G37*
G36*
X109612535Y-99932644D02*
G01*
X109885516Y-100045717D01*
X109885518Y-100045718D01*
X110131195Y-100209875D01*
X110340127Y-100418807D01*
X110472795Y-100617357D01*
X110504285Y-100664486D01*
X110617358Y-100937467D01*
X110675001Y-101227263D01*
X110675001Y-101522739D01*
X110617358Y-101812535D01*
X110504285Y-102085516D01*
X110504284Y-102085518D01*
X110340127Y-102331195D01*
X110131195Y-102540127D01*
X109885518Y-102704284D01*
X109885517Y-102704285D01*
X109885516Y-102704285D01*
X109612535Y-102817358D01*
X109322739Y-102875001D01*
X109027263Y-102875001D01*
X108737467Y-102817358D01*
X108464486Y-102704285D01*
X108464485Y-102704285D01*
X108464484Y-102704284D01*
X108218807Y-102540127D01*
X108009875Y-102331195D01*
X107845718Y-102085518D01*
X107845717Y-102085516D01*
X107732644Y-101812535D01*
X107675001Y-101522739D01*
X107675001Y-101227263D01*
X107732644Y-100937467D01*
X107845717Y-100664486D01*
X107877208Y-100617357D01*
X108009875Y-100418807D01*
X108218807Y-100209875D01*
X108464484Y-100045718D01*
X108464486Y-100045717D01*
X108737467Y-99932644D01*
X109027263Y-99875001D01*
X109322739Y-99875001D01*
X109612535Y-99932644D01*
X109612535Y-99932644D01*
G37*
G36*
X90562535Y-99932644D02*
G01*
X90835516Y-100045717D01*
X90835518Y-100045718D01*
X91081195Y-100209875D01*
X91290127Y-100418807D01*
X91422795Y-100617357D01*
X91454285Y-100664486D01*
X91567358Y-100937467D01*
X91625001Y-101227263D01*
X91625001Y-101522739D01*
X91567358Y-101812535D01*
X91454285Y-102085516D01*
X91454284Y-102085518D01*
X91290127Y-102331195D01*
X91081195Y-102540127D01*
X90835518Y-102704284D01*
X90835517Y-102704285D01*
X90835516Y-102704285D01*
X90562535Y-102817358D01*
X90272739Y-102875001D01*
X89977263Y-102875001D01*
X89687467Y-102817358D01*
X89414486Y-102704285D01*
X89414485Y-102704285D01*
X89414484Y-102704284D01*
X89168807Y-102540127D01*
X88959875Y-102331195D01*
X88795718Y-102085518D01*
X88795717Y-102085516D01*
X88682644Y-101812535D01*
X88625001Y-101522739D01*
X88625001Y-101227263D01*
X88682644Y-100937467D01*
X88795717Y-100664486D01*
X88827208Y-100617357D01*
X88959875Y-100418807D01*
X89168807Y-100209875D01*
X89414484Y-100045718D01*
X89414486Y-100045717D01*
X89687467Y-99932644D01*
X89977263Y-99875001D01*
X90272739Y-99875001D01*
X90562535Y-99932644D01*
X90562535Y-99932644D01*
G37*
G36*
X128662535Y-99932644D02*
G01*
X128935516Y-100045717D01*
X128935518Y-100045718D01*
X129181195Y-100209875D01*
X129390127Y-100418807D01*
X129522795Y-100617357D01*
X129554285Y-100664486D01*
X129667358Y-100937467D01*
X129725001Y-101227263D01*
X129725001Y-101522739D01*
X129667358Y-101812535D01*
X129554285Y-102085516D01*
X129554284Y-102085518D01*
X129390127Y-102331195D01*
X129181195Y-102540127D01*
X128935518Y-102704284D01*
X128935517Y-102704285D01*
X128935516Y-102704285D01*
X128662535Y-102817358D01*
X128372739Y-102875001D01*
X128077263Y-102875001D01*
X127787467Y-102817358D01*
X127514486Y-102704285D01*
X127514485Y-102704285D01*
X127514484Y-102704284D01*
X127268807Y-102540127D01*
X127059875Y-102331195D01*
X126895718Y-102085518D01*
X126895717Y-102085516D01*
X126782644Y-101812535D01*
X126725001Y-101522739D01*
X126725001Y-101227263D01*
X126782644Y-100937467D01*
X126895717Y-100664486D01*
X126927208Y-100617357D01*
X127059875Y-100418807D01*
X127268807Y-100209875D01*
X127514484Y-100045718D01*
X127514486Y-100045717D01*
X127787467Y-99932644D01*
X128077263Y-99875001D01*
X128372739Y-99875001D01*
X128662535Y-99932644D01*
X128662535Y-99932644D01*
G37*
G36*
X147712535Y-99932644D02*
G01*
X147985516Y-100045717D01*
X147985518Y-100045718D01*
X148231195Y-100209875D01*
X148440127Y-100418807D01*
X148572795Y-100617357D01*
X148604285Y-100664486D01*
X148717358Y-100937467D01*
X148775001Y-101227263D01*
X148775001Y-101522739D01*
X148717358Y-101812535D01*
X148604285Y-102085516D01*
X148604284Y-102085518D01*
X148440127Y-102331195D01*
X148231195Y-102540127D01*
X147985518Y-102704284D01*
X147985517Y-102704285D01*
X147985516Y-102704285D01*
X147712535Y-102817358D01*
X147422739Y-102875001D01*
X147127263Y-102875001D01*
X146837467Y-102817358D01*
X146564486Y-102704285D01*
X146564485Y-102704285D01*
X146564484Y-102704284D01*
X146318807Y-102540127D01*
X146109875Y-102331195D01*
X145945718Y-102085518D01*
X145945717Y-102085516D01*
X145832644Y-101812535D01*
X145775001Y-101522739D01*
X145775001Y-101227263D01*
X145832644Y-100937467D01*
X145945717Y-100664486D01*
X145977208Y-100617357D01*
X146109875Y-100418807D01*
X146318807Y-100209875D01*
X146564484Y-100045718D01*
X146564486Y-100045717D01*
X146837467Y-99932644D01*
X147127263Y-99875001D01*
X147422739Y-99875001D01*
X147712535Y-99932644D01*
X147712535Y-99932644D01*
G37*
G36*
X71512535Y-99932644D02*
G01*
X71785516Y-100045717D01*
X71785518Y-100045718D01*
X72031195Y-100209875D01*
X72240127Y-100418807D01*
X72372795Y-100617357D01*
X72404285Y-100664486D01*
X72517358Y-100937467D01*
X72575001Y-101227263D01*
X72575001Y-101522739D01*
X72517358Y-101812535D01*
X72404285Y-102085516D01*
X72404284Y-102085518D01*
X72240127Y-102331195D01*
X72031195Y-102540127D01*
X71785518Y-102704284D01*
X71785517Y-102704285D01*
X71785516Y-102704285D01*
X71512535Y-102817358D01*
X71222739Y-102875001D01*
X70927263Y-102875001D01*
X70637467Y-102817358D01*
X70364486Y-102704285D01*
X70364485Y-102704285D01*
X70364484Y-102704284D01*
X70118807Y-102540127D01*
X69909875Y-102331195D01*
X69745718Y-102085518D01*
X69745717Y-102085516D01*
X69632644Y-101812535D01*
X69575001Y-101522739D01*
X69575001Y-101227263D01*
X69632644Y-100937467D01*
X69745717Y-100664486D01*
X69777208Y-100617357D01*
X69909875Y-100418807D01*
X70118807Y-100209875D01*
X70364484Y-100045718D01*
X70364486Y-100045717D01*
X70637467Y-99932644D01*
X70927263Y-99875001D01*
X71222739Y-99875001D01*
X71512535Y-99932644D01*
X71512535Y-99932644D01*
G37*
G36*
X151025001Y-102375001D02*
G01*
X149125001Y-102375001D01*
X149125001Y-100375001D01*
X151025001Y-100375001D01*
X151025001Y-102375001D01*
X151025001Y-102375001D01*
G37*
G36*
X93875001Y-102375001D02*
G01*
X91975001Y-102375001D01*
X91975001Y-100375001D01*
X93875001Y-100375001D01*
X93875001Y-102375001D01*
X93875001Y-102375001D01*
G37*
G36*
X112925001Y-102375001D02*
G01*
X111025001Y-102375001D01*
X111025001Y-100375001D01*
X112925001Y-100375001D01*
X112925001Y-102375001D01*
X112925001Y-102375001D01*
G37*
G36*
X74825001Y-102375001D02*
G01*
X72925001Y-102375001D01*
X72925001Y-100375001D01*
X74825001Y-100375001D01*
X74825001Y-102375001D01*
X74825001Y-102375001D01*
G37*
G36*
X131975001Y-102375001D02*
G01*
X130075001Y-102375001D01*
X130075001Y-100375001D01*
X131975001Y-100375001D01*
X131975001Y-102375001D01*
X131975001Y-102375001D01*
G37*
G36*
X85562535Y-97732644D02*
G01*
X85835516Y-97845717D01*
X85835518Y-97845718D01*
X85959191Y-97928354D01*
X86081194Y-98009874D01*
X86290128Y-98218808D01*
X86454285Y-98464486D01*
X86567358Y-98737467D01*
X86625001Y-99027263D01*
X86625001Y-99322739D01*
X86567358Y-99612535D01*
X86458640Y-99875001D01*
X86454284Y-99885518D01*
X86290127Y-100131195D01*
X86081195Y-100340127D01*
X85835518Y-100504284D01*
X85835517Y-100504285D01*
X85835516Y-100504285D01*
X85562535Y-100617358D01*
X85272739Y-100675001D01*
X84977263Y-100675001D01*
X84687467Y-100617358D01*
X84414486Y-100504285D01*
X84414485Y-100504285D01*
X84414484Y-100504284D01*
X84168807Y-100340127D01*
X83959875Y-100131195D01*
X83795718Y-99885518D01*
X83791362Y-99875001D01*
X83682644Y-99612535D01*
X83625001Y-99322739D01*
X83625001Y-99027263D01*
X83682644Y-98737467D01*
X83795717Y-98464486D01*
X83959874Y-98218808D01*
X84168808Y-98009874D01*
X84290811Y-97928354D01*
X84414484Y-97845718D01*
X84414486Y-97845717D01*
X84687467Y-97732644D01*
X84977263Y-97675001D01*
X85272739Y-97675001D01*
X85562535Y-97732644D01*
X85562535Y-97732644D01*
G37*
G36*
X104612535Y-97732644D02*
G01*
X104885516Y-97845717D01*
X104885518Y-97845718D01*
X105009191Y-97928354D01*
X105131194Y-98009874D01*
X105340128Y-98218808D01*
X105504285Y-98464486D01*
X105617358Y-98737467D01*
X105675001Y-99027263D01*
X105675001Y-99322739D01*
X105617358Y-99612535D01*
X105508640Y-99875001D01*
X105504284Y-99885518D01*
X105340127Y-100131195D01*
X105131195Y-100340127D01*
X104885518Y-100504284D01*
X104885517Y-100504285D01*
X104885516Y-100504285D01*
X104612535Y-100617358D01*
X104322739Y-100675001D01*
X104027263Y-100675001D01*
X103737467Y-100617358D01*
X103464486Y-100504285D01*
X103464485Y-100504285D01*
X103464484Y-100504284D01*
X103218807Y-100340127D01*
X103009875Y-100131195D01*
X102845718Y-99885518D01*
X102841362Y-99875001D01*
X102732644Y-99612535D01*
X102675001Y-99322739D01*
X102675001Y-99027263D01*
X102732644Y-98737467D01*
X102845717Y-98464486D01*
X103009874Y-98218808D01*
X103218808Y-98009874D01*
X103340811Y-97928354D01*
X103464484Y-97845718D01*
X103464486Y-97845717D01*
X103737467Y-97732644D01*
X104027263Y-97675001D01*
X104322739Y-97675001D01*
X104612535Y-97732644D01*
X104612535Y-97732644D01*
G37*
G36*
X123662535Y-97732644D02*
G01*
X123935516Y-97845717D01*
X123935518Y-97845718D01*
X124059191Y-97928354D01*
X124181194Y-98009874D01*
X124390128Y-98218808D01*
X124554285Y-98464486D01*
X124667358Y-98737467D01*
X124725001Y-99027263D01*
X124725001Y-99322739D01*
X124667358Y-99612535D01*
X124558640Y-99875001D01*
X124554284Y-99885518D01*
X124390127Y-100131195D01*
X124181195Y-100340127D01*
X123935518Y-100504284D01*
X123935517Y-100504285D01*
X123935516Y-100504285D01*
X123662535Y-100617358D01*
X123372739Y-100675001D01*
X123077263Y-100675001D01*
X122787467Y-100617358D01*
X122514486Y-100504285D01*
X122514485Y-100504285D01*
X122514484Y-100504284D01*
X122268807Y-100340127D01*
X122059875Y-100131195D01*
X121895718Y-99885518D01*
X121891362Y-99875001D01*
X121782644Y-99612535D01*
X121725001Y-99322739D01*
X121725001Y-99027263D01*
X121782644Y-98737467D01*
X121895717Y-98464486D01*
X122059874Y-98218808D01*
X122268808Y-98009874D01*
X122390811Y-97928354D01*
X122514484Y-97845718D01*
X122514486Y-97845717D01*
X122787467Y-97732644D01*
X123077263Y-97675001D01*
X123372739Y-97675001D01*
X123662535Y-97732644D01*
X123662535Y-97732644D01*
G37*
G36*
X142712535Y-97732644D02*
G01*
X142985516Y-97845717D01*
X142985518Y-97845718D01*
X143109191Y-97928354D01*
X143231194Y-98009874D01*
X143440128Y-98218808D01*
X143604285Y-98464486D01*
X143717358Y-98737467D01*
X143775001Y-99027263D01*
X143775001Y-99322739D01*
X143717358Y-99612535D01*
X143608640Y-99875001D01*
X143604284Y-99885518D01*
X143440127Y-100131195D01*
X143231195Y-100340127D01*
X142985518Y-100504284D01*
X142985517Y-100504285D01*
X142985516Y-100504285D01*
X142712535Y-100617358D01*
X142422739Y-100675001D01*
X142127263Y-100675001D01*
X141837467Y-100617358D01*
X141564486Y-100504285D01*
X141564485Y-100504285D01*
X141564484Y-100504284D01*
X141318807Y-100340127D01*
X141109875Y-100131195D01*
X140945718Y-99885518D01*
X140941362Y-99875001D01*
X140832644Y-99612535D01*
X140775001Y-99322739D01*
X140775001Y-99027263D01*
X140832644Y-98737467D01*
X140945717Y-98464486D01*
X141109874Y-98218808D01*
X141318808Y-98009874D01*
X141440811Y-97928354D01*
X141564484Y-97845718D01*
X141564486Y-97845717D01*
X141837467Y-97732644D01*
X142127263Y-97675001D01*
X142422739Y-97675001D01*
X142712535Y-97732644D01*
X142712535Y-97732644D01*
G37*
G36*
X66512535Y-97732644D02*
G01*
X66785516Y-97845717D01*
X66785518Y-97845718D01*
X66909191Y-97928354D01*
X67031194Y-98009874D01*
X67240128Y-98218808D01*
X67404285Y-98464486D01*
X67517358Y-98737467D01*
X67575001Y-99027263D01*
X67575001Y-99322739D01*
X67517358Y-99612535D01*
X67408640Y-99875001D01*
X67404284Y-99885518D01*
X67240127Y-100131195D01*
X67031195Y-100340127D01*
X66785518Y-100504284D01*
X66785517Y-100504285D01*
X66785516Y-100504285D01*
X66512535Y-100617358D01*
X66222739Y-100675001D01*
X65927263Y-100675001D01*
X65637467Y-100617358D01*
X65364486Y-100504285D01*
X65364485Y-100504285D01*
X65364484Y-100504284D01*
X65118807Y-100340127D01*
X64909875Y-100131195D01*
X64745718Y-99885518D01*
X64741362Y-99875001D01*
X64632644Y-99612535D01*
X64575001Y-99322739D01*
X64575001Y-99027263D01*
X64632644Y-98737467D01*
X64745717Y-98464486D01*
X64909874Y-98218808D01*
X65118808Y-98009874D01*
X65240811Y-97928354D01*
X65364484Y-97845718D01*
X65364486Y-97845717D01*
X65637467Y-97732644D01*
X65927263Y-97675001D01*
X66222739Y-97675001D01*
X66512535Y-97732644D01*
X66512535Y-97732644D01*
G37*
G36*
X121125001Y-100175001D02*
G01*
X119125001Y-100175001D01*
X119125001Y-98175001D01*
X121125001Y-98175001D01*
X121125001Y-100175001D01*
X121125001Y-100175001D01*
G37*
G36*
X102075001Y-100175001D02*
G01*
X100075001Y-100175001D01*
X100075001Y-98175001D01*
X102075001Y-98175001D01*
X102075001Y-100175001D01*
X102075001Y-100175001D01*
G37*
G36*
X83025001Y-100175001D02*
G01*
X81025001Y-100175001D01*
X81025001Y-98175001D01*
X83025001Y-98175001D01*
X83025001Y-100175001D01*
X83025001Y-100175001D01*
G37*
G36*
X140175001Y-100175001D02*
G01*
X138175001Y-100175001D01*
X138175001Y-98175001D01*
X140175001Y-98175001D01*
X140175001Y-100175001D01*
X140175001Y-100175001D01*
G37*
G36*
X63975001Y-100175001D02*
G01*
X61975001Y-100175001D01*
X61975001Y-98175001D01*
X63975001Y-98175001D01*
X63975001Y-100175001D01*
X63975001Y-100175001D01*
G37*
G36*
X147858378Y-93551859D02*
G01*
X148222354Y-93702623D01*
X148222356Y-93702624D01*
X148387252Y-93812804D01*
X148504573Y-93891195D01*
X148549927Y-93921500D01*
X148828502Y-94200075D01*
X149045611Y-94525001D01*
X149047379Y-94527648D01*
X149198143Y-94891624D01*
X149275001Y-95278017D01*
X149275001Y-95671985D01*
X149198143Y-96058378D01*
X149074477Y-96356933D01*
X149047378Y-96422356D01*
X148828502Y-96749927D01*
X148549927Y-97028502D01*
X148222356Y-97247378D01*
X148222355Y-97247379D01*
X148222354Y-97247379D01*
X147858378Y-97398143D01*
X147471985Y-97475001D01*
X147078017Y-97475001D01*
X146691624Y-97398143D01*
X146327648Y-97247379D01*
X146327647Y-97247379D01*
X146327646Y-97247378D01*
X146000075Y-97028502D01*
X145721500Y-96749927D01*
X145502624Y-96422356D01*
X145475525Y-96356933D01*
X145351859Y-96058378D01*
X145275001Y-95671985D01*
X145275001Y-95278017D01*
X145351859Y-94891624D01*
X145502623Y-94527648D01*
X145504392Y-94525001D01*
X145721500Y-94200075D01*
X146000075Y-93921500D01*
X146045430Y-93891195D01*
X146162750Y-93812804D01*
X146327646Y-93702624D01*
X146327648Y-93702623D01*
X146691624Y-93551859D01*
X147078017Y-93475001D01*
X147471985Y-93475001D01*
X147858378Y-93551859D01*
X147858378Y-93551859D01*
G37*
G36*
X90708378Y-93551859D02*
G01*
X91072354Y-93702623D01*
X91072356Y-93702624D01*
X91237252Y-93812804D01*
X91354573Y-93891195D01*
X91399927Y-93921500D01*
X91678502Y-94200075D01*
X91895611Y-94525001D01*
X91897379Y-94527648D01*
X92048143Y-94891624D01*
X92125001Y-95278017D01*
X92125001Y-95671985D01*
X92048143Y-96058378D01*
X91924477Y-96356933D01*
X91897378Y-96422356D01*
X91678502Y-96749927D01*
X91399927Y-97028502D01*
X91072356Y-97247378D01*
X91072355Y-97247379D01*
X91072354Y-97247379D01*
X90708378Y-97398143D01*
X90321985Y-97475001D01*
X89928017Y-97475001D01*
X89541624Y-97398143D01*
X89177648Y-97247379D01*
X89177647Y-97247379D01*
X89177646Y-97247378D01*
X88850075Y-97028502D01*
X88571500Y-96749927D01*
X88352624Y-96422356D01*
X88325525Y-96356933D01*
X88201859Y-96058378D01*
X88125001Y-95671985D01*
X88125001Y-95278017D01*
X88201859Y-94891624D01*
X88352623Y-94527648D01*
X88354392Y-94525001D01*
X88571500Y-94200075D01*
X88850075Y-93921500D01*
X88895430Y-93891195D01*
X89012750Y-93812804D01*
X89177646Y-93702624D01*
X89177648Y-93702623D01*
X89541624Y-93551859D01*
X89928017Y-93475001D01*
X90321985Y-93475001D01*
X90708378Y-93551859D01*
X90708378Y-93551859D01*
G37*
G36*
X109758378Y-93551859D02*
G01*
X110122354Y-93702623D01*
X110122356Y-93702624D01*
X110287252Y-93812804D01*
X110404573Y-93891195D01*
X110449927Y-93921500D01*
X110728502Y-94200075D01*
X110945611Y-94525001D01*
X110947379Y-94527648D01*
X111098143Y-94891624D01*
X111175001Y-95278017D01*
X111175001Y-95671985D01*
X111098143Y-96058378D01*
X110974477Y-96356933D01*
X110947378Y-96422356D01*
X110728502Y-96749927D01*
X110449927Y-97028502D01*
X110122356Y-97247378D01*
X110122355Y-97247379D01*
X110122354Y-97247379D01*
X109758378Y-97398143D01*
X109371985Y-97475001D01*
X108978017Y-97475001D01*
X108591624Y-97398143D01*
X108227648Y-97247379D01*
X108227647Y-97247379D01*
X108227646Y-97247378D01*
X107900075Y-97028502D01*
X107621500Y-96749927D01*
X107402624Y-96422356D01*
X107375525Y-96356933D01*
X107251859Y-96058378D01*
X107175001Y-95671985D01*
X107175001Y-95278017D01*
X107251859Y-94891624D01*
X107402623Y-94527648D01*
X107404392Y-94525001D01*
X107621500Y-94200075D01*
X107900075Y-93921500D01*
X107945430Y-93891195D01*
X108062750Y-93812804D01*
X108227646Y-93702624D01*
X108227648Y-93702623D01*
X108591624Y-93551859D01*
X108978017Y-93475001D01*
X109371985Y-93475001D01*
X109758378Y-93551859D01*
X109758378Y-93551859D01*
G37*
G36*
X128808378Y-93551859D02*
G01*
X129172354Y-93702623D01*
X129172356Y-93702624D01*
X129337252Y-93812804D01*
X129454573Y-93891195D01*
X129499927Y-93921500D01*
X129778502Y-94200075D01*
X129995611Y-94525001D01*
X129997379Y-94527648D01*
X130148143Y-94891624D01*
X130225001Y-95278017D01*
X130225001Y-95671985D01*
X130148143Y-96058378D01*
X130024477Y-96356933D01*
X129997378Y-96422356D01*
X129778502Y-96749927D01*
X129499927Y-97028502D01*
X129172356Y-97247378D01*
X129172355Y-97247379D01*
X129172354Y-97247379D01*
X128808378Y-97398143D01*
X128421985Y-97475001D01*
X128028017Y-97475001D01*
X127641624Y-97398143D01*
X127277648Y-97247379D01*
X127277647Y-97247379D01*
X127277646Y-97247378D01*
X126950075Y-97028502D01*
X126671500Y-96749927D01*
X126452624Y-96422356D01*
X126425525Y-96356933D01*
X126301859Y-96058378D01*
X126225001Y-95671985D01*
X126225001Y-95278017D01*
X126301859Y-94891624D01*
X126452623Y-94527648D01*
X126454392Y-94525001D01*
X126671500Y-94200075D01*
X126950075Y-93921500D01*
X126995430Y-93891195D01*
X127112750Y-93812804D01*
X127277646Y-93702624D01*
X127277648Y-93702623D01*
X127641624Y-93551859D01*
X128028017Y-93475001D01*
X128421985Y-93475001D01*
X128808378Y-93551859D01*
X128808378Y-93551859D01*
G37*
G36*
X71658378Y-93551859D02*
G01*
X72022354Y-93702623D01*
X72022356Y-93702624D01*
X72187252Y-93812804D01*
X72304573Y-93891195D01*
X72349927Y-93921500D01*
X72628502Y-94200075D01*
X72845611Y-94525001D01*
X72847379Y-94527648D01*
X72998143Y-94891624D01*
X73075001Y-95278017D01*
X73075001Y-95671985D01*
X72998143Y-96058378D01*
X72874477Y-96356933D01*
X72847378Y-96422356D01*
X72628502Y-96749927D01*
X72349927Y-97028502D01*
X72022356Y-97247378D01*
X72022355Y-97247379D01*
X72022354Y-97247379D01*
X71658378Y-97398143D01*
X71271985Y-97475001D01*
X70878017Y-97475001D01*
X70491624Y-97398143D01*
X70127648Y-97247379D01*
X70127647Y-97247379D01*
X70127646Y-97247378D01*
X69800075Y-97028502D01*
X69521500Y-96749927D01*
X69302624Y-96422356D01*
X69275525Y-96356933D01*
X69151859Y-96058378D01*
X69075001Y-95671985D01*
X69075001Y-95278017D01*
X69151859Y-94891624D01*
X69302623Y-94527648D01*
X69304392Y-94525001D01*
X69521500Y-94200075D01*
X69800075Y-93921500D01*
X69845430Y-93891195D01*
X69962750Y-93812804D01*
X70127646Y-93702624D01*
X70127648Y-93702623D01*
X70491624Y-93551859D01*
X70878017Y-93475001D01*
X71271985Y-93475001D01*
X71658378Y-93551859D01*
X71658378Y-93551859D01*
G37*
G36*
X114743542Y-94527648D02*
G01*
X114856233Y-94538747D01*
X114945771Y-94565908D01*
X115035310Y-94593069D01*
X115123524Y-94640221D01*
X115200346Y-94681283D01*
X115200348Y-94681284D01*
X115200347Y-94681284D01*
X115345003Y-94799999D01*
X115463718Y-94944655D01*
X115551933Y-95109692D01*
X115551933Y-95109693D01*
X115606255Y-95288769D01*
X115624597Y-95475001D01*
X115606255Y-95661233D01*
X115602993Y-95671985D01*
X115551933Y-95840310D01*
X115463718Y-96005347D01*
X115345003Y-96150003D01*
X115213316Y-96258074D01*
X115200346Y-96268719D01*
X115123524Y-96309781D01*
X115035310Y-96356933D01*
X114945771Y-96384094D01*
X114856233Y-96411255D01*
X114786449Y-96418128D01*
X114716667Y-96425001D01*
X114303335Y-96425001D01*
X114233553Y-96418128D01*
X114163769Y-96411255D01*
X114074231Y-96384094D01*
X113984692Y-96356933D01*
X113896478Y-96309781D01*
X113819656Y-96268719D01*
X113806686Y-96258074D01*
X113674999Y-96150003D01*
X113556284Y-96005347D01*
X113468069Y-95840310D01*
X113417009Y-95671985D01*
X113413747Y-95661233D01*
X113395405Y-95475001D01*
X113413747Y-95288769D01*
X113468069Y-95109693D01*
X113468069Y-95109692D01*
X113556284Y-94944655D01*
X113674999Y-94799999D01*
X113819655Y-94681284D01*
X113819654Y-94681284D01*
X113819656Y-94681283D01*
X113896478Y-94640221D01*
X113984692Y-94593069D01*
X114074231Y-94565908D01*
X114163769Y-94538747D01*
X114276460Y-94527648D01*
X114303335Y-94525001D01*
X114716667Y-94525001D01*
X114743542Y-94527648D01*
X114743542Y-94527648D01*
G37*
G36*
X152843542Y-94527648D02*
G01*
X152956233Y-94538747D01*
X153045771Y-94565908D01*
X153135310Y-94593069D01*
X153223524Y-94640221D01*
X153300346Y-94681283D01*
X153300348Y-94681284D01*
X153300347Y-94681284D01*
X153445003Y-94799999D01*
X153563718Y-94944655D01*
X153651933Y-95109692D01*
X153651933Y-95109693D01*
X153706255Y-95288769D01*
X153724597Y-95475001D01*
X153706255Y-95661233D01*
X153702993Y-95671985D01*
X153651933Y-95840310D01*
X153563718Y-96005347D01*
X153445003Y-96150003D01*
X153313317Y-96258074D01*
X153300346Y-96268719D01*
X153223524Y-96309781D01*
X153135310Y-96356933D01*
X153045771Y-96384094D01*
X152956233Y-96411255D01*
X152886449Y-96418128D01*
X152816667Y-96425001D01*
X152403335Y-96425001D01*
X152333553Y-96418128D01*
X152263769Y-96411255D01*
X152174231Y-96384094D01*
X152084692Y-96356933D01*
X151996478Y-96309781D01*
X151919656Y-96268719D01*
X151906686Y-96258074D01*
X151774999Y-96150003D01*
X151656284Y-96005347D01*
X151568069Y-95840310D01*
X151517009Y-95671985D01*
X151513747Y-95661233D01*
X151495405Y-95475001D01*
X151513747Y-95288769D01*
X151568069Y-95109693D01*
X151568069Y-95109692D01*
X151656284Y-94944655D01*
X151774999Y-94799999D01*
X151919655Y-94681284D01*
X151919654Y-94681284D01*
X151919656Y-94681283D01*
X151996478Y-94640221D01*
X152084692Y-94593069D01*
X152174231Y-94565908D01*
X152263769Y-94538747D01*
X152376460Y-94527648D01*
X152403335Y-94525001D01*
X152816667Y-94525001D01*
X152843542Y-94527648D01*
X152843542Y-94527648D01*
G37*
G36*
X142173542Y-94527648D02*
G01*
X142286233Y-94538747D01*
X142375771Y-94565908D01*
X142465310Y-94593069D01*
X142553524Y-94640221D01*
X142630346Y-94681283D01*
X142630348Y-94681284D01*
X142630347Y-94681284D01*
X142775003Y-94799999D01*
X142893718Y-94944655D01*
X142981933Y-95109692D01*
X142981933Y-95109693D01*
X143036255Y-95288769D01*
X143054597Y-95475001D01*
X143036255Y-95661233D01*
X143032993Y-95671985D01*
X142981933Y-95840310D01*
X142893718Y-96005347D01*
X142775003Y-96150003D01*
X142643316Y-96258074D01*
X142630346Y-96268719D01*
X142553524Y-96309781D01*
X142465310Y-96356933D01*
X142375771Y-96384094D01*
X142286233Y-96411255D01*
X142216449Y-96418128D01*
X142146667Y-96425001D01*
X141733335Y-96425001D01*
X141663553Y-96418128D01*
X141593769Y-96411255D01*
X141504231Y-96384094D01*
X141414692Y-96356933D01*
X141326478Y-96309781D01*
X141249656Y-96268719D01*
X141236686Y-96258074D01*
X141104999Y-96150003D01*
X140986284Y-96005347D01*
X140898069Y-95840310D01*
X140847009Y-95671985D01*
X140843747Y-95661233D01*
X140825405Y-95475001D01*
X140843747Y-95288769D01*
X140898069Y-95109693D01*
X140898069Y-95109692D01*
X140986284Y-94944655D01*
X141104999Y-94799999D01*
X141249655Y-94681284D01*
X141249654Y-94681284D01*
X141249656Y-94681283D01*
X141326478Y-94640221D01*
X141414692Y-94593069D01*
X141504231Y-94565908D01*
X141593769Y-94538747D01*
X141706460Y-94527648D01*
X141733335Y-94525001D01*
X142146667Y-94525001D01*
X142173542Y-94527648D01*
X142173542Y-94527648D01*
G37*
G36*
X65973542Y-94527648D02*
G01*
X66086233Y-94538747D01*
X66175771Y-94565908D01*
X66265310Y-94593069D01*
X66353524Y-94640221D01*
X66430346Y-94681283D01*
X66430348Y-94681284D01*
X66430347Y-94681284D01*
X66575003Y-94799999D01*
X66693718Y-94944655D01*
X66781933Y-95109692D01*
X66781933Y-95109693D01*
X66836255Y-95288769D01*
X66854597Y-95475001D01*
X66836255Y-95661233D01*
X66832993Y-95671985D01*
X66781933Y-95840310D01*
X66693718Y-96005347D01*
X66575003Y-96150003D01*
X66443316Y-96258074D01*
X66430346Y-96268719D01*
X66353524Y-96309781D01*
X66265310Y-96356933D01*
X66175771Y-96384094D01*
X66086233Y-96411255D01*
X66016449Y-96418128D01*
X65946667Y-96425001D01*
X65533335Y-96425001D01*
X65463553Y-96418128D01*
X65393769Y-96411255D01*
X65304231Y-96384094D01*
X65214692Y-96356933D01*
X65126478Y-96309781D01*
X65049656Y-96268719D01*
X65036686Y-96258074D01*
X64904999Y-96150003D01*
X64786284Y-96005347D01*
X64698069Y-95840310D01*
X64647009Y-95671985D01*
X64643747Y-95661233D01*
X64625405Y-95475001D01*
X64643747Y-95288769D01*
X64698069Y-95109693D01*
X64698069Y-95109692D01*
X64786284Y-94944655D01*
X64904999Y-94799999D01*
X65049655Y-94681284D01*
X65049654Y-94681284D01*
X65049656Y-94681283D01*
X65126478Y-94640221D01*
X65214692Y-94593069D01*
X65304231Y-94565908D01*
X65393769Y-94538747D01*
X65506460Y-94527648D01*
X65533335Y-94525001D01*
X65946667Y-94525001D01*
X65973542Y-94527648D01*
X65973542Y-94527648D01*
G37*
G36*
X85023542Y-94527648D02*
G01*
X85136233Y-94538747D01*
X85225771Y-94565908D01*
X85315310Y-94593069D01*
X85403524Y-94640221D01*
X85480346Y-94681283D01*
X85480348Y-94681284D01*
X85480347Y-94681284D01*
X85625003Y-94799999D01*
X85743718Y-94944655D01*
X85831933Y-95109692D01*
X85831933Y-95109693D01*
X85886255Y-95288769D01*
X85904597Y-95475001D01*
X85886255Y-95661233D01*
X85882993Y-95671985D01*
X85831933Y-95840310D01*
X85743718Y-96005347D01*
X85625003Y-96150003D01*
X85493316Y-96258074D01*
X85480346Y-96268719D01*
X85403524Y-96309781D01*
X85315310Y-96356933D01*
X85225771Y-96384094D01*
X85136233Y-96411255D01*
X85066449Y-96418128D01*
X84996667Y-96425001D01*
X84583335Y-96425001D01*
X84513553Y-96418128D01*
X84443769Y-96411255D01*
X84354231Y-96384094D01*
X84264692Y-96356933D01*
X84176478Y-96309781D01*
X84099656Y-96268719D01*
X84086686Y-96258074D01*
X83954999Y-96150003D01*
X83836284Y-96005347D01*
X83748069Y-95840310D01*
X83697009Y-95671985D01*
X83693747Y-95661233D01*
X83675405Y-95475001D01*
X83693747Y-95288769D01*
X83748069Y-95109693D01*
X83748069Y-95109692D01*
X83836284Y-94944655D01*
X83954999Y-94799999D01*
X84099655Y-94681284D01*
X84099654Y-94681284D01*
X84099656Y-94681283D01*
X84176478Y-94640221D01*
X84264692Y-94593069D01*
X84354231Y-94565908D01*
X84443769Y-94538747D01*
X84556460Y-94527648D01*
X84583335Y-94525001D01*
X84996667Y-94525001D01*
X85023542Y-94527648D01*
X85023542Y-94527648D01*
G37*
G36*
X95693542Y-94527648D02*
G01*
X95806233Y-94538747D01*
X95895771Y-94565908D01*
X95985310Y-94593069D01*
X96073524Y-94640221D01*
X96150346Y-94681283D01*
X96150348Y-94681284D01*
X96150347Y-94681284D01*
X96295003Y-94799999D01*
X96413718Y-94944655D01*
X96501933Y-95109692D01*
X96501933Y-95109693D01*
X96556255Y-95288769D01*
X96574597Y-95475001D01*
X96556255Y-95661233D01*
X96552993Y-95671985D01*
X96501933Y-95840310D01*
X96413718Y-96005347D01*
X96295003Y-96150003D01*
X96163316Y-96258074D01*
X96150346Y-96268719D01*
X96073524Y-96309781D01*
X95985310Y-96356933D01*
X95895771Y-96384094D01*
X95806233Y-96411255D01*
X95736449Y-96418128D01*
X95666667Y-96425001D01*
X95253335Y-96425001D01*
X95183553Y-96418128D01*
X95113769Y-96411255D01*
X95024231Y-96384094D01*
X94934692Y-96356933D01*
X94846478Y-96309781D01*
X94769656Y-96268719D01*
X94756686Y-96258074D01*
X94624999Y-96150003D01*
X94506284Y-96005347D01*
X94418069Y-95840310D01*
X94367009Y-95671985D01*
X94363747Y-95661233D01*
X94345405Y-95475001D01*
X94363747Y-95288769D01*
X94418069Y-95109693D01*
X94418069Y-95109692D01*
X94506284Y-94944655D01*
X94624999Y-94799999D01*
X94769655Y-94681284D01*
X94769654Y-94681284D01*
X94769656Y-94681283D01*
X94846478Y-94640221D01*
X94934692Y-94593069D01*
X95024231Y-94565908D01*
X95113769Y-94538747D01*
X95226460Y-94527648D01*
X95253335Y-94525001D01*
X95666667Y-94525001D01*
X95693542Y-94527648D01*
X95693542Y-94527648D01*
G37*
G36*
X104073542Y-94527648D02*
G01*
X104186233Y-94538747D01*
X104275771Y-94565908D01*
X104365310Y-94593069D01*
X104453524Y-94640221D01*
X104530346Y-94681283D01*
X104530348Y-94681284D01*
X104530347Y-94681284D01*
X104675003Y-94799999D01*
X104793718Y-94944655D01*
X104881933Y-95109692D01*
X104881933Y-95109693D01*
X104936255Y-95288769D01*
X104954597Y-95475001D01*
X104936255Y-95661233D01*
X104932993Y-95671985D01*
X104881933Y-95840310D01*
X104793718Y-96005347D01*
X104675003Y-96150003D01*
X104543316Y-96258074D01*
X104530346Y-96268719D01*
X104453524Y-96309781D01*
X104365310Y-96356933D01*
X104275771Y-96384094D01*
X104186233Y-96411255D01*
X104116449Y-96418128D01*
X104046667Y-96425001D01*
X103633335Y-96425001D01*
X103563553Y-96418128D01*
X103493769Y-96411255D01*
X103404231Y-96384094D01*
X103314692Y-96356933D01*
X103226478Y-96309781D01*
X103149656Y-96268719D01*
X103136686Y-96258074D01*
X103004999Y-96150003D01*
X102886284Y-96005347D01*
X102798069Y-95840310D01*
X102747009Y-95671985D01*
X102743747Y-95661233D01*
X102725405Y-95475001D01*
X102743747Y-95288769D01*
X102798069Y-95109693D01*
X102798069Y-95109692D01*
X102886284Y-94944655D01*
X103004999Y-94799999D01*
X103149655Y-94681284D01*
X103149654Y-94681284D01*
X103149656Y-94681283D01*
X103226478Y-94640221D01*
X103314692Y-94593069D01*
X103404231Y-94565908D01*
X103493769Y-94538747D01*
X103606460Y-94527648D01*
X103633335Y-94525001D01*
X104046667Y-94525001D01*
X104073542Y-94527648D01*
X104073542Y-94527648D01*
G37*
G36*
X133793542Y-94527648D02*
G01*
X133906233Y-94538747D01*
X133995771Y-94565908D01*
X134085310Y-94593069D01*
X134173524Y-94640221D01*
X134250346Y-94681283D01*
X134250348Y-94681284D01*
X134250347Y-94681284D01*
X134395003Y-94799999D01*
X134513718Y-94944655D01*
X134601933Y-95109692D01*
X134601933Y-95109693D01*
X134656255Y-95288769D01*
X134674597Y-95475001D01*
X134656255Y-95661233D01*
X134652993Y-95671985D01*
X134601933Y-95840310D01*
X134513718Y-96005347D01*
X134395003Y-96150003D01*
X134263316Y-96258074D01*
X134250346Y-96268719D01*
X134173524Y-96309781D01*
X134085310Y-96356933D01*
X133995771Y-96384094D01*
X133906233Y-96411255D01*
X133836449Y-96418128D01*
X133766667Y-96425001D01*
X133353335Y-96425001D01*
X133283553Y-96418128D01*
X133213769Y-96411255D01*
X133124231Y-96384094D01*
X133034692Y-96356933D01*
X132946478Y-96309781D01*
X132869656Y-96268719D01*
X132856686Y-96258074D01*
X132724999Y-96150003D01*
X132606284Y-96005347D01*
X132518069Y-95840310D01*
X132467009Y-95671985D01*
X132463747Y-95661233D01*
X132445405Y-95475001D01*
X132463747Y-95288769D01*
X132518069Y-95109693D01*
X132518069Y-95109692D01*
X132606284Y-94944655D01*
X132724999Y-94799999D01*
X132869655Y-94681284D01*
X132869654Y-94681284D01*
X132869656Y-94681283D01*
X132946478Y-94640221D01*
X133034692Y-94593069D01*
X133124231Y-94565908D01*
X133213769Y-94538747D01*
X133326460Y-94527648D01*
X133353335Y-94525001D01*
X133766667Y-94525001D01*
X133793542Y-94527648D01*
X133793542Y-94527648D01*
G37*
G36*
X123123542Y-94527648D02*
G01*
X123236233Y-94538747D01*
X123325771Y-94565908D01*
X123415310Y-94593069D01*
X123503524Y-94640221D01*
X123580346Y-94681283D01*
X123580348Y-94681284D01*
X123580347Y-94681284D01*
X123725003Y-94799999D01*
X123843718Y-94944655D01*
X123931933Y-95109692D01*
X123931933Y-95109693D01*
X123986255Y-95288769D01*
X124004597Y-95475001D01*
X123986255Y-95661233D01*
X123982993Y-95671985D01*
X123931933Y-95840310D01*
X123843718Y-96005347D01*
X123725003Y-96150003D01*
X123593316Y-96258074D01*
X123580346Y-96268719D01*
X123503524Y-96309781D01*
X123415310Y-96356933D01*
X123325771Y-96384094D01*
X123236233Y-96411255D01*
X123166449Y-96418128D01*
X123096667Y-96425001D01*
X122683335Y-96425001D01*
X122613553Y-96418128D01*
X122543769Y-96411255D01*
X122454231Y-96384094D01*
X122364692Y-96356933D01*
X122276478Y-96309781D01*
X122199656Y-96268719D01*
X122186686Y-96258074D01*
X122054999Y-96150003D01*
X121936284Y-96005347D01*
X121848069Y-95840310D01*
X121797009Y-95671985D01*
X121793747Y-95661233D01*
X121775405Y-95475001D01*
X121793747Y-95288769D01*
X121848069Y-95109693D01*
X121848069Y-95109692D01*
X121936284Y-94944655D01*
X122054999Y-94799999D01*
X122199655Y-94681284D01*
X122199654Y-94681284D01*
X122199656Y-94681283D01*
X122276478Y-94640221D01*
X122364692Y-94593069D01*
X122454231Y-94565908D01*
X122543769Y-94538747D01*
X122656460Y-94527648D01*
X122683335Y-94525001D01*
X123096667Y-94525001D01*
X123123542Y-94527648D01*
X123123542Y-94527648D01*
G37*
G36*
X76643542Y-94527648D02*
G01*
X76756233Y-94538747D01*
X76845771Y-94565908D01*
X76935310Y-94593069D01*
X77023524Y-94640221D01*
X77100346Y-94681283D01*
X77100348Y-94681284D01*
X77100347Y-94681284D01*
X77245003Y-94799999D01*
X77363718Y-94944655D01*
X77451933Y-95109692D01*
X77451933Y-95109693D01*
X77506255Y-95288769D01*
X77524597Y-95475001D01*
X77506255Y-95661233D01*
X77502993Y-95671985D01*
X77451933Y-95840310D01*
X77363718Y-96005347D01*
X77245003Y-96150003D01*
X77113316Y-96258074D01*
X77100346Y-96268719D01*
X77023524Y-96309781D01*
X76935310Y-96356933D01*
X76845771Y-96384094D01*
X76756233Y-96411255D01*
X76686449Y-96418128D01*
X76616667Y-96425001D01*
X76203335Y-96425001D01*
X76133553Y-96418128D01*
X76063769Y-96411255D01*
X75974231Y-96384094D01*
X75884692Y-96356933D01*
X75796478Y-96309781D01*
X75719656Y-96268719D01*
X75706686Y-96258074D01*
X75574999Y-96150003D01*
X75456284Y-96005347D01*
X75368069Y-95840310D01*
X75317009Y-95671985D01*
X75313747Y-95661233D01*
X75295405Y-95475001D01*
X75313747Y-95288769D01*
X75368069Y-95109693D01*
X75368069Y-95109692D01*
X75456284Y-94944655D01*
X75574999Y-94799999D01*
X75719655Y-94681284D01*
X75719654Y-94681284D01*
X75719656Y-94681283D01*
X75796478Y-94640221D01*
X75884692Y-94593069D01*
X75974231Y-94565908D01*
X76063769Y-94538747D01*
X76176460Y-94527648D01*
X76203335Y-94525001D01*
X76616667Y-94525001D01*
X76643542Y-94527648D01*
X76643542Y-94527648D01*
G37*
G36*
X105802535Y-91492644D02*
G01*
X106075516Y-91605717D01*
X106075518Y-91605718D01*
X106199191Y-91688354D01*
X106321194Y-91769874D01*
X106530128Y-91978808D01*
X106694285Y-92224486D01*
X106807358Y-92497467D01*
X106865001Y-92787263D01*
X106865001Y-93082739D01*
X106807358Y-93372535D01*
X106694285Y-93645516D01*
X106694284Y-93645518D01*
X106530127Y-93891195D01*
X106321195Y-94100127D01*
X106075518Y-94264284D01*
X106075517Y-94264285D01*
X106075516Y-94264285D01*
X105802535Y-94377358D01*
X105512739Y-94435001D01*
X105217263Y-94435001D01*
X104927467Y-94377358D01*
X104654486Y-94264285D01*
X104654485Y-94264285D01*
X104654484Y-94264284D01*
X104408807Y-94100127D01*
X104199875Y-93891195D01*
X104035718Y-93645518D01*
X104035717Y-93645516D01*
X103922644Y-93372535D01*
X103865001Y-93082739D01*
X103865001Y-92787263D01*
X103922644Y-92497467D01*
X104035717Y-92224486D01*
X104199874Y-91978808D01*
X104408808Y-91769874D01*
X104530811Y-91688354D01*
X104654484Y-91605718D01*
X104654486Y-91605717D01*
X104927467Y-91492644D01*
X105217263Y-91435001D01*
X105512739Y-91435001D01*
X105802535Y-91492644D01*
X105802535Y-91492644D01*
G37*
G36*
X86752535Y-91492644D02*
G01*
X87025516Y-91605717D01*
X87025518Y-91605718D01*
X87149191Y-91688354D01*
X87271194Y-91769874D01*
X87480128Y-91978808D01*
X87644285Y-92224486D01*
X87757358Y-92497467D01*
X87815001Y-92787263D01*
X87815001Y-93082739D01*
X87757358Y-93372535D01*
X87644285Y-93645516D01*
X87644284Y-93645518D01*
X87480127Y-93891195D01*
X87271195Y-94100127D01*
X87025518Y-94264284D01*
X87025517Y-94264285D01*
X87025516Y-94264285D01*
X86752535Y-94377358D01*
X86462739Y-94435001D01*
X86167263Y-94435001D01*
X85877467Y-94377358D01*
X85604486Y-94264285D01*
X85604485Y-94264285D01*
X85604484Y-94264284D01*
X85358807Y-94100127D01*
X85149875Y-93891195D01*
X84985718Y-93645518D01*
X84985717Y-93645516D01*
X84872644Y-93372535D01*
X84815001Y-93082739D01*
X84815001Y-92787263D01*
X84872644Y-92497467D01*
X84985717Y-92224486D01*
X85149874Y-91978808D01*
X85358808Y-91769874D01*
X85480811Y-91688354D01*
X85604484Y-91605718D01*
X85604486Y-91605717D01*
X85877467Y-91492644D01*
X86167263Y-91435001D01*
X86462739Y-91435001D01*
X86752535Y-91492644D01*
X86752535Y-91492644D01*
G37*
G36*
X67702535Y-91492644D02*
G01*
X67975516Y-91605717D01*
X67975518Y-91605718D01*
X68099191Y-91688354D01*
X68221194Y-91769874D01*
X68430128Y-91978808D01*
X68594285Y-92224486D01*
X68707358Y-92497467D01*
X68765001Y-92787263D01*
X68765001Y-93082739D01*
X68707358Y-93372535D01*
X68594285Y-93645516D01*
X68594284Y-93645518D01*
X68430127Y-93891195D01*
X68221195Y-94100127D01*
X67975518Y-94264284D01*
X67975517Y-94264285D01*
X67975516Y-94264285D01*
X67702535Y-94377358D01*
X67412739Y-94435001D01*
X67117263Y-94435001D01*
X66827467Y-94377358D01*
X66554486Y-94264285D01*
X66554485Y-94264285D01*
X66554484Y-94264284D01*
X66308807Y-94100127D01*
X66099875Y-93891195D01*
X65935718Y-93645518D01*
X65935717Y-93645516D01*
X65822644Y-93372535D01*
X65765001Y-93082739D01*
X65765001Y-92787263D01*
X65822644Y-92497467D01*
X65935717Y-92224486D01*
X66099874Y-91978808D01*
X66308808Y-91769874D01*
X66430811Y-91688354D01*
X66554484Y-91605718D01*
X66554486Y-91605717D01*
X66827467Y-91492644D01*
X67117263Y-91435001D01*
X67412739Y-91435001D01*
X67702535Y-91492644D01*
X67702535Y-91492644D01*
G37*
G36*
X143902535Y-91492644D02*
G01*
X144175516Y-91605717D01*
X144175518Y-91605718D01*
X144299191Y-91688354D01*
X144421194Y-91769874D01*
X144630128Y-91978808D01*
X144794285Y-92224486D01*
X144907358Y-92497467D01*
X144965001Y-92787263D01*
X144965001Y-93082739D01*
X144907358Y-93372535D01*
X144794285Y-93645516D01*
X144794284Y-93645518D01*
X144630127Y-93891195D01*
X144421195Y-94100127D01*
X144175518Y-94264284D01*
X144175517Y-94264285D01*
X144175516Y-94264285D01*
X143902535Y-94377358D01*
X143612739Y-94435001D01*
X143317263Y-94435001D01*
X143027467Y-94377358D01*
X142754486Y-94264285D01*
X142754485Y-94264285D01*
X142754484Y-94264284D01*
X142508807Y-94100127D01*
X142299875Y-93891195D01*
X142135718Y-93645518D01*
X142135717Y-93645516D01*
X142022644Y-93372535D01*
X141965001Y-93082739D01*
X141965001Y-92787263D01*
X142022644Y-92497467D01*
X142135717Y-92224486D01*
X142299874Y-91978808D01*
X142508808Y-91769874D01*
X142630811Y-91688354D01*
X142754484Y-91605718D01*
X142754486Y-91605717D01*
X143027467Y-91492644D01*
X143317263Y-91435001D01*
X143612739Y-91435001D01*
X143902535Y-91492644D01*
X143902535Y-91492644D01*
G37*
G36*
X124852535Y-91492644D02*
G01*
X125125516Y-91605717D01*
X125125518Y-91605718D01*
X125249191Y-91688354D01*
X125371194Y-91769874D01*
X125580128Y-91978808D01*
X125744285Y-92224486D01*
X125857358Y-92497467D01*
X125915001Y-92787263D01*
X125915001Y-93082739D01*
X125857358Y-93372535D01*
X125744285Y-93645516D01*
X125744284Y-93645518D01*
X125580127Y-93891195D01*
X125371195Y-94100127D01*
X125125518Y-94264284D01*
X125125517Y-94264285D01*
X125125516Y-94264285D01*
X124852535Y-94377358D01*
X124562739Y-94435001D01*
X124267263Y-94435001D01*
X123977467Y-94377358D01*
X123704486Y-94264285D01*
X123704485Y-94264285D01*
X123704484Y-94264284D01*
X123458807Y-94100127D01*
X123249875Y-93891195D01*
X123085718Y-93645518D01*
X123085717Y-93645516D01*
X122972644Y-93372535D01*
X122915001Y-93082739D01*
X122915001Y-92787263D01*
X122972644Y-92497467D01*
X123085717Y-92224486D01*
X123249874Y-91978808D01*
X123458808Y-91769874D01*
X123580811Y-91688354D01*
X123704484Y-91605718D01*
X123704486Y-91605717D01*
X123977467Y-91492644D01*
X124267263Y-91435001D01*
X124562739Y-91435001D01*
X124852535Y-91492644D01*
X124852535Y-91492644D01*
G37*
G36*
X84225001Y-93935001D02*
G01*
X82225001Y-93935001D01*
X82225001Y-91935001D01*
X84225001Y-91935001D01*
X84225001Y-93935001D01*
X84225001Y-93935001D01*
G37*
G36*
X103275001Y-93935001D02*
G01*
X101275001Y-93935001D01*
X101275001Y-91935001D01*
X103275001Y-91935001D01*
X103275001Y-93935001D01*
X103275001Y-93935001D01*
G37*
G36*
X141375001Y-93935001D02*
G01*
X139375001Y-93935001D01*
X139375001Y-91935001D01*
X141375001Y-91935001D01*
X141375001Y-93935001D01*
X141375001Y-93935001D01*
G37*
G36*
X122325001Y-93935001D02*
G01*
X120325001Y-93935001D01*
X120325001Y-91935001D01*
X122325001Y-91935001D01*
X122325001Y-93935001D01*
X122325001Y-93935001D01*
G37*
G36*
X65175001Y-93935001D02*
G01*
X63175001Y-93935001D01*
X63175001Y-91935001D01*
X65175001Y-91935001D01*
X65175001Y-93935001D01*
X65175001Y-93935001D01*
G37*
G36*
X150252535Y-88952644D02*
G01*
X150525516Y-89065717D01*
X150525518Y-89065718D01*
X150649191Y-89148354D01*
X150771194Y-89229874D01*
X150980128Y-89438808D01*
X151144285Y-89684486D01*
X151257358Y-89957467D01*
X151315001Y-90247263D01*
X151315001Y-90542739D01*
X151257358Y-90832535D01*
X151144285Y-91105516D01*
X151144284Y-91105518D01*
X150980127Y-91351195D01*
X150771195Y-91560127D01*
X150525518Y-91724284D01*
X150525517Y-91724285D01*
X150525516Y-91724285D01*
X150252535Y-91837358D01*
X149962739Y-91895001D01*
X149667263Y-91895001D01*
X149377467Y-91837358D01*
X149104486Y-91724285D01*
X149104485Y-91724285D01*
X149104484Y-91724284D01*
X148858807Y-91560127D01*
X148649875Y-91351195D01*
X148485718Y-91105518D01*
X148485717Y-91105516D01*
X148372644Y-90832535D01*
X148315001Y-90542739D01*
X148315001Y-90247263D01*
X148372644Y-89957467D01*
X148485717Y-89684486D01*
X148649874Y-89438808D01*
X148858808Y-89229874D01*
X148980811Y-89148354D01*
X149104484Y-89065718D01*
X149104486Y-89065717D01*
X149377467Y-88952644D01*
X149667263Y-88895001D01*
X149962739Y-88895001D01*
X150252535Y-88952644D01*
X150252535Y-88952644D01*
G37*
G36*
X131202535Y-88952644D02*
G01*
X131475516Y-89065717D01*
X131475518Y-89065718D01*
X131599191Y-89148354D01*
X131721194Y-89229874D01*
X131930128Y-89438808D01*
X132094285Y-89684486D01*
X132207358Y-89957467D01*
X132265001Y-90247263D01*
X132265001Y-90542739D01*
X132207358Y-90832535D01*
X132094285Y-91105516D01*
X132094284Y-91105518D01*
X131930127Y-91351195D01*
X131721195Y-91560127D01*
X131475518Y-91724284D01*
X131475517Y-91724285D01*
X131475516Y-91724285D01*
X131202535Y-91837358D01*
X130912739Y-91895001D01*
X130617263Y-91895001D01*
X130327467Y-91837358D01*
X130054486Y-91724285D01*
X130054485Y-91724285D01*
X130054484Y-91724284D01*
X129808807Y-91560127D01*
X129599875Y-91351195D01*
X129435718Y-91105518D01*
X129435717Y-91105516D01*
X129322644Y-90832535D01*
X129265001Y-90542739D01*
X129265001Y-90247263D01*
X129322644Y-89957467D01*
X129435717Y-89684486D01*
X129599874Y-89438808D01*
X129808808Y-89229874D01*
X129930811Y-89148354D01*
X130054484Y-89065718D01*
X130054486Y-89065717D01*
X130327467Y-88952644D01*
X130617263Y-88895001D01*
X130912739Y-88895001D01*
X131202535Y-88952644D01*
X131202535Y-88952644D01*
G37*
G36*
X112152535Y-88952644D02*
G01*
X112425516Y-89065717D01*
X112425518Y-89065718D01*
X112549191Y-89148354D01*
X112671194Y-89229874D01*
X112880128Y-89438808D01*
X113044285Y-89684486D01*
X113157358Y-89957467D01*
X113215001Y-90247263D01*
X113215001Y-90542739D01*
X113157358Y-90832535D01*
X113044285Y-91105516D01*
X113044284Y-91105518D01*
X112880127Y-91351195D01*
X112671195Y-91560127D01*
X112425518Y-91724284D01*
X112425517Y-91724285D01*
X112425516Y-91724285D01*
X112152535Y-91837358D01*
X111862739Y-91895001D01*
X111567263Y-91895001D01*
X111277467Y-91837358D01*
X111004486Y-91724285D01*
X111004485Y-91724285D01*
X111004484Y-91724284D01*
X110758807Y-91560127D01*
X110549875Y-91351195D01*
X110385718Y-91105518D01*
X110385717Y-91105516D01*
X110272644Y-90832535D01*
X110215001Y-90542739D01*
X110215001Y-90247263D01*
X110272644Y-89957467D01*
X110385717Y-89684486D01*
X110549874Y-89438808D01*
X110758808Y-89229874D01*
X110880811Y-89148354D01*
X111004484Y-89065718D01*
X111004486Y-89065717D01*
X111277467Y-88952644D01*
X111567263Y-88895001D01*
X111862739Y-88895001D01*
X112152535Y-88952644D01*
X112152535Y-88952644D01*
G37*
G36*
X93102535Y-88952644D02*
G01*
X93375516Y-89065717D01*
X93375518Y-89065718D01*
X93499191Y-89148354D01*
X93621194Y-89229874D01*
X93830128Y-89438808D01*
X93994285Y-89684486D01*
X94107358Y-89957467D01*
X94165001Y-90247263D01*
X94165001Y-90542739D01*
X94107358Y-90832535D01*
X93994285Y-91105516D01*
X93994284Y-91105518D01*
X93830127Y-91351195D01*
X93621195Y-91560127D01*
X93375518Y-91724284D01*
X93375517Y-91724285D01*
X93375516Y-91724285D01*
X93102535Y-91837358D01*
X92812739Y-91895001D01*
X92517263Y-91895001D01*
X92227467Y-91837358D01*
X91954486Y-91724285D01*
X91954485Y-91724285D01*
X91954484Y-91724284D01*
X91708807Y-91560127D01*
X91499875Y-91351195D01*
X91335718Y-91105518D01*
X91335717Y-91105516D01*
X91222644Y-90832535D01*
X91165001Y-90542739D01*
X91165001Y-90247263D01*
X91222644Y-89957467D01*
X91335717Y-89684486D01*
X91499874Y-89438808D01*
X91708808Y-89229874D01*
X91830811Y-89148354D01*
X91954484Y-89065718D01*
X91954486Y-89065717D01*
X92227467Y-88952644D01*
X92517263Y-88895001D01*
X92812739Y-88895001D01*
X93102535Y-88952644D01*
X93102535Y-88952644D01*
G37*
G36*
X74052535Y-88952644D02*
G01*
X74325516Y-89065717D01*
X74325518Y-89065718D01*
X74449191Y-89148354D01*
X74571194Y-89229874D01*
X74780128Y-89438808D01*
X74944285Y-89684486D01*
X75057358Y-89957467D01*
X75115001Y-90247263D01*
X75115001Y-90542739D01*
X75057358Y-90832535D01*
X74944285Y-91105516D01*
X74944284Y-91105518D01*
X74780127Y-91351195D01*
X74571195Y-91560127D01*
X74325518Y-91724284D01*
X74325517Y-91724285D01*
X74325516Y-91724285D01*
X74052535Y-91837358D01*
X73762739Y-91895001D01*
X73467263Y-91895001D01*
X73177467Y-91837358D01*
X72904486Y-91724285D01*
X72904485Y-91724285D01*
X72904484Y-91724284D01*
X72658807Y-91560127D01*
X72449875Y-91351195D01*
X72285718Y-91105518D01*
X72285717Y-91105516D01*
X72172644Y-90832535D01*
X72115001Y-90542739D01*
X72115001Y-90247263D01*
X72172644Y-89957467D01*
X72285717Y-89684486D01*
X72449874Y-89438808D01*
X72658808Y-89229874D01*
X72780811Y-89148354D01*
X72904484Y-89065718D01*
X72904486Y-89065717D01*
X73177467Y-88952644D01*
X73467263Y-88895001D01*
X73762739Y-88895001D01*
X74052535Y-88952644D01*
X74052535Y-88952644D01*
G37*
G36*
X134825001Y-91395001D02*
G01*
X132825001Y-91395001D01*
X132825001Y-89395001D01*
X134825001Y-89395001D01*
X134825001Y-91395001D01*
X134825001Y-91395001D01*
G37*
G36*
X115775001Y-91395001D02*
G01*
X113775001Y-91395001D01*
X113775001Y-89395001D01*
X115775001Y-89395001D01*
X115775001Y-91395001D01*
X115775001Y-91395001D01*
G37*
G36*
X153875001Y-91395001D02*
G01*
X151875001Y-91395001D01*
X151875001Y-89395001D01*
X153875001Y-89395001D01*
X153875001Y-91395001D01*
X153875001Y-91395001D01*
G37*
G36*
X77675001Y-91395001D02*
G01*
X75675001Y-91395001D01*
X75675001Y-89395001D01*
X77675001Y-89395001D01*
X77675001Y-91395001D01*
X77675001Y-91395001D01*
G37*
G36*
X96725001Y-91395001D02*
G01*
X94725001Y-91395001D01*
X94725001Y-89395001D01*
X96725001Y-89395001D01*
X96725001Y-91395001D01*
X96725001Y-91395001D01*
G37*
G36*
X71512535Y-80882644D02*
G01*
X71785516Y-80995717D01*
X71785518Y-80995718D01*
X72031195Y-81159875D01*
X72240127Y-81368807D01*
X72372795Y-81567357D01*
X72404285Y-81614486D01*
X72517358Y-81887467D01*
X72575001Y-82177263D01*
X72575001Y-82472739D01*
X72517358Y-82762535D01*
X72404285Y-83035516D01*
X72404284Y-83035518D01*
X72240127Y-83281195D01*
X72031195Y-83490127D01*
X71785518Y-83654284D01*
X71785517Y-83654285D01*
X71785516Y-83654285D01*
X71512535Y-83767358D01*
X71222739Y-83825001D01*
X70927263Y-83825001D01*
X70637467Y-83767358D01*
X70364486Y-83654285D01*
X70364485Y-83654285D01*
X70364484Y-83654284D01*
X70118807Y-83490127D01*
X69909875Y-83281195D01*
X69745718Y-83035518D01*
X69745717Y-83035516D01*
X69632644Y-82762535D01*
X69575001Y-82472739D01*
X69575001Y-82177263D01*
X69632644Y-81887467D01*
X69745717Y-81614486D01*
X69777208Y-81567357D01*
X69909875Y-81368807D01*
X70118807Y-81159875D01*
X70364484Y-80995718D01*
X70364486Y-80995717D01*
X70637467Y-80882644D01*
X70927263Y-80825001D01*
X71222739Y-80825001D01*
X71512535Y-80882644D01*
X71512535Y-80882644D01*
G37*
G36*
X147712535Y-80882644D02*
G01*
X147985516Y-80995717D01*
X147985518Y-80995718D01*
X148231195Y-81159875D01*
X148440127Y-81368807D01*
X148572795Y-81567357D01*
X148604285Y-81614486D01*
X148717358Y-81887467D01*
X148775001Y-82177263D01*
X148775001Y-82472739D01*
X148717358Y-82762535D01*
X148604285Y-83035516D01*
X148604284Y-83035518D01*
X148440127Y-83281195D01*
X148231195Y-83490127D01*
X147985518Y-83654284D01*
X147985517Y-83654285D01*
X147985516Y-83654285D01*
X147712535Y-83767358D01*
X147422739Y-83825001D01*
X147127263Y-83825001D01*
X146837467Y-83767358D01*
X146564486Y-83654285D01*
X146564485Y-83654285D01*
X146564484Y-83654284D01*
X146318807Y-83490127D01*
X146109875Y-83281195D01*
X145945718Y-83035518D01*
X145945717Y-83035516D01*
X145832644Y-82762535D01*
X145775001Y-82472739D01*
X145775001Y-82177263D01*
X145832644Y-81887467D01*
X145945717Y-81614486D01*
X145977208Y-81567357D01*
X146109875Y-81368807D01*
X146318807Y-81159875D01*
X146564484Y-80995718D01*
X146564486Y-80995717D01*
X146837467Y-80882644D01*
X147127263Y-80825001D01*
X147422739Y-80825001D01*
X147712535Y-80882644D01*
X147712535Y-80882644D01*
G37*
G36*
X90562535Y-80882644D02*
G01*
X90835516Y-80995717D01*
X90835518Y-80995718D01*
X91081195Y-81159875D01*
X91290127Y-81368807D01*
X91422795Y-81567357D01*
X91454285Y-81614486D01*
X91567358Y-81887467D01*
X91625001Y-82177263D01*
X91625001Y-82472739D01*
X91567358Y-82762535D01*
X91454285Y-83035516D01*
X91454284Y-83035518D01*
X91290127Y-83281195D01*
X91081195Y-83490127D01*
X90835518Y-83654284D01*
X90835517Y-83654285D01*
X90835516Y-83654285D01*
X90562535Y-83767358D01*
X90272739Y-83825001D01*
X89977263Y-83825001D01*
X89687467Y-83767358D01*
X89414486Y-83654285D01*
X89414485Y-83654285D01*
X89414484Y-83654284D01*
X89168807Y-83490127D01*
X88959875Y-83281195D01*
X88795718Y-83035518D01*
X88795717Y-83035516D01*
X88682644Y-82762535D01*
X88625001Y-82472739D01*
X88625001Y-82177263D01*
X88682644Y-81887467D01*
X88795717Y-81614486D01*
X88827208Y-81567357D01*
X88959875Y-81368807D01*
X89168807Y-81159875D01*
X89414484Y-80995718D01*
X89414486Y-80995717D01*
X89687467Y-80882644D01*
X89977263Y-80825001D01*
X90272739Y-80825001D01*
X90562535Y-80882644D01*
X90562535Y-80882644D01*
G37*
G36*
X109612535Y-80882644D02*
G01*
X109885516Y-80995717D01*
X109885518Y-80995718D01*
X110131195Y-81159875D01*
X110340127Y-81368807D01*
X110472795Y-81567357D01*
X110504285Y-81614486D01*
X110617358Y-81887467D01*
X110675001Y-82177263D01*
X110675001Y-82472739D01*
X110617358Y-82762535D01*
X110504285Y-83035516D01*
X110504284Y-83035518D01*
X110340127Y-83281195D01*
X110131195Y-83490127D01*
X109885518Y-83654284D01*
X109885517Y-83654285D01*
X109885516Y-83654285D01*
X109612535Y-83767358D01*
X109322739Y-83825001D01*
X109027263Y-83825001D01*
X108737467Y-83767358D01*
X108464486Y-83654285D01*
X108464485Y-83654285D01*
X108464484Y-83654284D01*
X108218807Y-83490127D01*
X108009875Y-83281195D01*
X107845718Y-83035518D01*
X107845717Y-83035516D01*
X107732644Y-82762535D01*
X107675001Y-82472739D01*
X107675001Y-82177263D01*
X107732644Y-81887467D01*
X107845717Y-81614486D01*
X107877208Y-81567357D01*
X108009875Y-81368807D01*
X108218807Y-81159875D01*
X108464484Y-80995718D01*
X108464486Y-80995717D01*
X108737467Y-80882644D01*
X109027263Y-80825001D01*
X109322739Y-80825001D01*
X109612535Y-80882644D01*
X109612535Y-80882644D01*
G37*
G36*
X128662535Y-80882644D02*
G01*
X128935516Y-80995717D01*
X128935518Y-80995718D01*
X129181195Y-81159875D01*
X129390127Y-81368807D01*
X129522795Y-81567357D01*
X129554285Y-81614486D01*
X129667358Y-81887467D01*
X129725001Y-82177263D01*
X129725001Y-82472739D01*
X129667358Y-82762535D01*
X129554285Y-83035516D01*
X129554284Y-83035518D01*
X129390127Y-83281195D01*
X129181195Y-83490127D01*
X128935518Y-83654284D01*
X128935517Y-83654285D01*
X128935516Y-83654285D01*
X128662535Y-83767358D01*
X128372739Y-83825001D01*
X128077263Y-83825001D01*
X127787467Y-83767358D01*
X127514486Y-83654285D01*
X127514485Y-83654285D01*
X127514484Y-83654284D01*
X127268807Y-83490127D01*
X127059875Y-83281195D01*
X126895718Y-83035518D01*
X126895717Y-83035516D01*
X126782644Y-82762535D01*
X126725001Y-82472739D01*
X126725001Y-82177263D01*
X126782644Y-81887467D01*
X126895717Y-81614486D01*
X126927208Y-81567357D01*
X127059875Y-81368807D01*
X127268807Y-81159875D01*
X127514484Y-80995718D01*
X127514486Y-80995717D01*
X127787467Y-80882644D01*
X128077263Y-80825001D01*
X128372739Y-80825001D01*
X128662535Y-80882644D01*
X128662535Y-80882644D01*
G37*
G36*
X93875001Y-83325001D02*
G01*
X91975001Y-83325001D01*
X91975001Y-81325001D01*
X93875001Y-81325001D01*
X93875001Y-83325001D01*
X93875001Y-83325001D01*
G37*
G36*
X74825001Y-83325001D02*
G01*
X72925001Y-83325001D01*
X72925001Y-81325001D01*
X74825001Y-81325001D01*
X74825001Y-83325001D01*
X74825001Y-83325001D01*
G37*
G36*
X151025001Y-83325001D02*
G01*
X149125001Y-83325001D01*
X149125001Y-81325001D01*
X151025001Y-81325001D01*
X151025001Y-83325001D01*
X151025001Y-83325001D01*
G37*
G36*
X131975001Y-83325001D02*
G01*
X130075001Y-83325001D01*
X130075001Y-81325001D01*
X131975001Y-81325001D01*
X131975001Y-83325001D01*
X131975001Y-83325001D01*
G37*
G36*
X112925001Y-83325001D02*
G01*
X111025001Y-83325001D01*
X111025001Y-81325001D01*
X112925001Y-81325001D01*
X112925001Y-83325001D01*
X112925001Y-83325001D01*
G37*
G36*
X142712535Y-78682644D02*
G01*
X142985516Y-78795717D01*
X142985518Y-78795718D01*
X143109191Y-78878354D01*
X143231194Y-78959874D01*
X143440128Y-79168808D01*
X143604285Y-79414486D01*
X143717358Y-79687467D01*
X143775001Y-79977263D01*
X143775001Y-80272739D01*
X143717358Y-80562535D01*
X143608640Y-80825001D01*
X143604284Y-80835518D01*
X143440127Y-81081195D01*
X143231195Y-81290127D01*
X142985518Y-81454284D01*
X142985517Y-81454285D01*
X142985516Y-81454285D01*
X142712535Y-81567358D01*
X142422739Y-81625001D01*
X142127263Y-81625001D01*
X141837467Y-81567358D01*
X141564486Y-81454285D01*
X141564485Y-81454285D01*
X141564484Y-81454284D01*
X141318807Y-81290127D01*
X141109875Y-81081195D01*
X140945718Y-80835518D01*
X140941362Y-80825001D01*
X140832644Y-80562535D01*
X140775001Y-80272739D01*
X140775001Y-79977263D01*
X140832644Y-79687467D01*
X140945717Y-79414486D01*
X141109874Y-79168808D01*
X141318808Y-78959874D01*
X141440811Y-78878354D01*
X141564484Y-78795718D01*
X141564486Y-78795717D01*
X141837467Y-78682644D01*
X142127263Y-78625001D01*
X142422739Y-78625001D01*
X142712535Y-78682644D01*
X142712535Y-78682644D01*
G37*
G36*
X66512535Y-78682644D02*
G01*
X66785516Y-78795717D01*
X66785518Y-78795718D01*
X66909191Y-78878354D01*
X67031194Y-78959874D01*
X67240128Y-79168808D01*
X67404285Y-79414486D01*
X67517358Y-79687467D01*
X67575001Y-79977263D01*
X67575001Y-80272739D01*
X67517358Y-80562535D01*
X67408640Y-80825001D01*
X67404284Y-80835518D01*
X67240127Y-81081195D01*
X67031195Y-81290127D01*
X66785518Y-81454284D01*
X66785517Y-81454285D01*
X66785516Y-81454285D01*
X66512535Y-81567358D01*
X66222739Y-81625001D01*
X65927263Y-81625001D01*
X65637467Y-81567358D01*
X65364486Y-81454285D01*
X65364485Y-81454285D01*
X65364484Y-81454284D01*
X65118807Y-81290127D01*
X64909875Y-81081195D01*
X64745718Y-80835518D01*
X64741362Y-80825001D01*
X64632644Y-80562535D01*
X64575001Y-80272739D01*
X64575001Y-79977263D01*
X64632644Y-79687467D01*
X64745717Y-79414486D01*
X64909874Y-79168808D01*
X65118808Y-78959874D01*
X65240811Y-78878354D01*
X65364484Y-78795718D01*
X65364486Y-78795717D01*
X65637467Y-78682644D01*
X65927263Y-78625001D01*
X66222739Y-78625001D01*
X66512535Y-78682644D01*
X66512535Y-78682644D01*
G37*
G36*
X85562535Y-78682644D02*
G01*
X85835516Y-78795717D01*
X85835518Y-78795718D01*
X85959191Y-78878354D01*
X86081194Y-78959874D01*
X86290128Y-79168808D01*
X86454285Y-79414486D01*
X86567358Y-79687467D01*
X86625001Y-79977263D01*
X86625001Y-80272739D01*
X86567358Y-80562535D01*
X86458640Y-80825001D01*
X86454284Y-80835518D01*
X86290127Y-81081195D01*
X86081195Y-81290127D01*
X85835518Y-81454284D01*
X85835517Y-81454285D01*
X85835516Y-81454285D01*
X85562535Y-81567358D01*
X85272739Y-81625001D01*
X84977263Y-81625001D01*
X84687467Y-81567358D01*
X84414486Y-81454285D01*
X84414485Y-81454285D01*
X84414484Y-81454284D01*
X84168807Y-81290127D01*
X83959875Y-81081195D01*
X83795718Y-80835518D01*
X83791362Y-80825001D01*
X83682644Y-80562535D01*
X83625001Y-80272739D01*
X83625001Y-79977263D01*
X83682644Y-79687467D01*
X83795717Y-79414486D01*
X83959874Y-79168808D01*
X84168808Y-78959874D01*
X84290811Y-78878354D01*
X84414484Y-78795718D01*
X84414486Y-78795717D01*
X84687467Y-78682644D01*
X84977263Y-78625001D01*
X85272739Y-78625001D01*
X85562535Y-78682644D01*
X85562535Y-78682644D01*
G37*
G36*
X123662535Y-78682644D02*
G01*
X123935516Y-78795717D01*
X123935518Y-78795718D01*
X124059191Y-78878354D01*
X124181194Y-78959874D01*
X124390128Y-79168808D01*
X124554285Y-79414486D01*
X124667358Y-79687467D01*
X124725001Y-79977263D01*
X124725001Y-80272739D01*
X124667358Y-80562535D01*
X124558640Y-80825001D01*
X124554284Y-80835518D01*
X124390127Y-81081195D01*
X124181195Y-81290127D01*
X123935518Y-81454284D01*
X123935517Y-81454285D01*
X123935516Y-81454285D01*
X123662535Y-81567358D01*
X123372739Y-81625001D01*
X123077263Y-81625001D01*
X122787467Y-81567358D01*
X122514486Y-81454285D01*
X122514485Y-81454285D01*
X122514484Y-81454284D01*
X122268807Y-81290127D01*
X122059875Y-81081195D01*
X121895718Y-80835518D01*
X121891362Y-80825001D01*
X121782644Y-80562535D01*
X121725001Y-80272739D01*
X121725001Y-79977263D01*
X121782644Y-79687467D01*
X121895717Y-79414486D01*
X122059874Y-79168808D01*
X122268808Y-78959874D01*
X122390811Y-78878354D01*
X122514484Y-78795718D01*
X122514486Y-78795717D01*
X122787467Y-78682644D01*
X123077263Y-78625001D01*
X123372739Y-78625001D01*
X123662535Y-78682644D01*
X123662535Y-78682644D01*
G37*
G36*
X104612535Y-78682644D02*
G01*
X104885516Y-78795717D01*
X104885518Y-78795718D01*
X105009191Y-78878354D01*
X105131194Y-78959874D01*
X105340128Y-79168808D01*
X105504285Y-79414486D01*
X105617358Y-79687467D01*
X105675001Y-79977263D01*
X105675001Y-80272739D01*
X105617358Y-80562535D01*
X105508640Y-80825001D01*
X105504284Y-80835518D01*
X105340127Y-81081195D01*
X105131195Y-81290127D01*
X104885518Y-81454284D01*
X104885517Y-81454285D01*
X104885516Y-81454285D01*
X104612535Y-81567358D01*
X104322739Y-81625001D01*
X104027263Y-81625001D01*
X103737467Y-81567358D01*
X103464486Y-81454285D01*
X103464485Y-81454285D01*
X103464484Y-81454284D01*
X103218807Y-81290127D01*
X103009875Y-81081195D01*
X102845718Y-80835518D01*
X102841362Y-80825001D01*
X102732644Y-80562535D01*
X102675001Y-80272739D01*
X102675001Y-79977263D01*
X102732644Y-79687467D01*
X102845717Y-79414486D01*
X103009874Y-79168808D01*
X103218808Y-78959874D01*
X103340811Y-78878354D01*
X103464484Y-78795718D01*
X103464486Y-78795717D01*
X103737467Y-78682644D01*
X104027263Y-78625001D01*
X104322739Y-78625001D01*
X104612535Y-78682644D01*
X104612535Y-78682644D01*
G37*
G36*
X102075001Y-81125001D02*
G01*
X100075001Y-81125001D01*
X100075001Y-79125001D01*
X102075001Y-79125001D01*
X102075001Y-81125001D01*
X102075001Y-81125001D01*
G37*
G36*
X83025001Y-81125001D02*
G01*
X81025001Y-81125001D01*
X81025001Y-79125001D01*
X83025001Y-79125001D01*
X83025001Y-81125001D01*
X83025001Y-81125001D01*
G37*
G36*
X63975001Y-81125001D02*
G01*
X61975001Y-81125001D01*
X61975001Y-79125001D01*
X63975001Y-79125001D01*
X63975001Y-81125001D01*
X63975001Y-81125001D01*
G37*
G36*
X121125001Y-81125001D02*
G01*
X119125001Y-81125001D01*
X119125001Y-79125001D01*
X121125001Y-79125001D01*
X121125001Y-81125001D01*
X121125001Y-81125001D01*
G37*
G36*
X140175001Y-81125001D02*
G01*
X138175001Y-81125001D01*
X138175001Y-79125001D01*
X140175001Y-79125001D01*
X140175001Y-81125001D01*
X140175001Y-81125001D01*
G37*
G36*
X90708378Y-74501859D02*
G01*
X91072354Y-74652623D01*
X91072356Y-74652624D01*
X91237252Y-74762804D01*
X91354573Y-74841195D01*
X91399927Y-74871500D01*
X91678502Y-75150075D01*
X91895611Y-75475001D01*
X91897379Y-75477648D01*
X92048143Y-75841624D01*
X92125001Y-76228017D01*
X92125001Y-76621985D01*
X92048143Y-77008378D01*
X91924477Y-77306933D01*
X91897378Y-77372356D01*
X91678502Y-77699927D01*
X91399927Y-77978502D01*
X91072356Y-78197378D01*
X91072355Y-78197379D01*
X91072354Y-78197379D01*
X90708378Y-78348143D01*
X90321985Y-78425001D01*
X89928017Y-78425001D01*
X89541624Y-78348143D01*
X89177648Y-78197379D01*
X89177647Y-78197379D01*
X89177646Y-78197378D01*
X88850075Y-77978502D01*
X88571500Y-77699927D01*
X88352624Y-77372356D01*
X88325525Y-77306933D01*
X88201859Y-77008378D01*
X88125001Y-76621985D01*
X88125001Y-76228017D01*
X88201859Y-75841624D01*
X88352623Y-75477648D01*
X88354392Y-75475001D01*
X88571500Y-75150075D01*
X88850075Y-74871500D01*
X88895430Y-74841195D01*
X89012750Y-74762804D01*
X89177646Y-74652624D01*
X89177648Y-74652623D01*
X89541624Y-74501859D01*
X89928017Y-74425001D01*
X90321985Y-74425001D01*
X90708378Y-74501859D01*
X90708378Y-74501859D01*
G37*
G36*
X128808378Y-74501859D02*
G01*
X129172354Y-74652623D01*
X129172356Y-74652624D01*
X129337252Y-74762804D01*
X129454573Y-74841195D01*
X129499927Y-74871500D01*
X129778502Y-75150075D01*
X129995611Y-75475001D01*
X129997379Y-75477648D01*
X130148143Y-75841624D01*
X130225001Y-76228017D01*
X130225001Y-76621985D01*
X130148143Y-77008378D01*
X130024477Y-77306933D01*
X129997378Y-77372356D01*
X129778502Y-77699927D01*
X129499927Y-77978502D01*
X129172356Y-78197378D01*
X129172355Y-78197379D01*
X129172354Y-78197379D01*
X128808378Y-78348143D01*
X128421985Y-78425001D01*
X128028017Y-78425001D01*
X127641624Y-78348143D01*
X127277648Y-78197379D01*
X127277647Y-78197379D01*
X127277646Y-78197378D01*
X126950075Y-77978502D01*
X126671500Y-77699927D01*
X126452624Y-77372356D01*
X126425525Y-77306933D01*
X126301859Y-77008378D01*
X126225001Y-76621985D01*
X126225001Y-76228017D01*
X126301859Y-75841624D01*
X126452623Y-75477648D01*
X126454392Y-75475001D01*
X126671500Y-75150075D01*
X126950075Y-74871500D01*
X126995430Y-74841195D01*
X127112750Y-74762804D01*
X127277646Y-74652624D01*
X127277648Y-74652623D01*
X127641624Y-74501859D01*
X128028017Y-74425001D01*
X128421985Y-74425001D01*
X128808378Y-74501859D01*
X128808378Y-74501859D01*
G37*
G36*
X71658378Y-74501859D02*
G01*
X72022354Y-74652623D01*
X72022356Y-74652624D01*
X72187252Y-74762804D01*
X72304573Y-74841195D01*
X72349927Y-74871500D01*
X72628502Y-75150075D01*
X72845611Y-75475001D01*
X72847379Y-75477648D01*
X72998143Y-75841624D01*
X73075001Y-76228017D01*
X73075001Y-76621985D01*
X72998143Y-77008378D01*
X72874477Y-77306933D01*
X72847378Y-77372356D01*
X72628502Y-77699927D01*
X72349927Y-77978502D01*
X72022356Y-78197378D01*
X72022355Y-78197379D01*
X72022354Y-78197379D01*
X71658378Y-78348143D01*
X71271985Y-78425001D01*
X70878017Y-78425001D01*
X70491624Y-78348143D01*
X70127648Y-78197379D01*
X70127647Y-78197379D01*
X70127646Y-78197378D01*
X69800075Y-77978502D01*
X69521500Y-77699927D01*
X69302624Y-77372356D01*
X69275525Y-77306933D01*
X69151859Y-77008378D01*
X69075001Y-76621985D01*
X69075001Y-76228017D01*
X69151859Y-75841624D01*
X69302623Y-75477648D01*
X69304392Y-75475001D01*
X69521500Y-75150075D01*
X69800075Y-74871500D01*
X69845430Y-74841195D01*
X69962750Y-74762804D01*
X70127646Y-74652624D01*
X70127648Y-74652623D01*
X70491624Y-74501859D01*
X70878017Y-74425001D01*
X71271985Y-74425001D01*
X71658378Y-74501859D01*
X71658378Y-74501859D01*
G37*
G36*
X147858378Y-74501859D02*
G01*
X148222354Y-74652623D01*
X148222356Y-74652624D01*
X148387252Y-74762804D01*
X148504573Y-74841195D01*
X148549927Y-74871500D01*
X148828502Y-75150075D01*
X149045611Y-75475001D01*
X149047379Y-75477648D01*
X149198143Y-75841624D01*
X149275001Y-76228017D01*
X149275001Y-76621985D01*
X149198143Y-77008378D01*
X149074477Y-77306933D01*
X149047378Y-77372356D01*
X148828502Y-77699927D01*
X148549927Y-77978502D01*
X148222356Y-78197378D01*
X148222355Y-78197379D01*
X148222354Y-78197379D01*
X147858378Y-78348143D01*
X147471985Y-78425001D01*
X147078017Y-78425001D01*
X146691624Y-78348143D01*
X146327648Y-78197379D01*
X146327647Y-78197379D01*
X146327646Y-78197378D01*
X146000075Y-77978502D01*
X145721500Y-77699927D01*
X145502624Y-77372356D01*
X145475525Y-77306933D01*
X145351859Y-77008378D01*
X145275001Y-76621985D01*
X145275001Y-76228017D01*
X145351859Y-75841624D01*
X145502623Y-75477648D01*
X145504392Y-75475001D01*
X145721500Y-75150075D01*
X146000075Y-74871500D01*
X146045430Y-74841195D01*
X146162750Y-74762804D01*
X146327646Y-74652624D01*
X146327648Y-74652623D01*
X146691624Y-74501859D01*
X147078017Y-74425001D01*
X147471985Y-74425001D01*
X147858378Y-74501859D01*
X147858378Y-74501859D01*
G37*
G36*
X109758378Y-74501859D02*
G01*
X110122354Y-74652623D01*
X110122356Y-74652624D01*
X110287252Y-74762804D01*
X110404573Y-74841195D01*
X110449927Y-74871500D01*
X110728502Y-75150075D01*
X110945611Y-75475001D01*
X110947379Y-75477648D01*
X111098143Y-75841624D01*
X111175001Y-76228017D01*
X111175001Y-76621985D01*
X111098143Y-77008378D01*
X110974477Y-77306933D01*
X110947378Y-77372356D01*
X110728502Y-77699927D01*
X110449927Y-77978502D01*
X110122356Y-78197378D01*
X110122355Y-78197379D01*
X110122354Y-78197379D01*
X109758378Y-78348143D01*
X109371985Y-78425001D01*
X108978017Y-78425001D01*
X108591624Y-78348143D01*
X108227648Y-78197379D01*
X108227647Y-78197379D01*
X108227646Y-78197378D01*
X107900075Y-77978502D01*
X107621500Y-77699927D01*
X107402624Y-77372356D01*
X107375525Y-77306933D01*
X107251859Y-77008378D01*
X107175001Y-76621985D01*
X107175001Y-76228017D01*
X107251859Y-75841624D01*
X107402623Y-75477648D01*
X107404392Y-75475001D01*
X107621500Y-75150075D01*
X107900075Y-74871500D01*
X107945430Y-74841195D01*
X108062750Y-74762804D01*
X108227646Y-74652624D01*
X108227648Y-74652623D01*
X108591624Y-74501859D01*
X108978017Y-74425001D01*
X109371985Y-74425001D01*
X109758378Y-74501859D01*
X109758378Y-74501859D01*
G37*
G36*
X133793542Y-75477648D02*
G01*
X133906233Y-75488747D01*
X133995771Y-75515908D01*
X134085310Y-75543069D01*
X134173524Y-75590221D01*
X134250346Y-75631283D01*
X134250348Y-75631284D01*
X134250347Y-75631284D01*
X134395003Y-75749999D01*
X134513718Y-75894655D01*
X134601933Y-76059692D01*
X134601933Y-76059693D01*
X134656255Y-76238769D01*
X134674597Y-76425001D01*
X134656255Y-76611233D01*
X134652993Y-76621985D01*
X134601933Y-76790310D01*
X134513718Y-76955347D01*
X134395003Y-77100003D01*
X134263316Y-77208074D01*
X134250346Y-77218719D01*
X134173524Y-77259781D01*
X134085310Y-77306933D01*
X133995771Y-77334094D01*
X133906233Y-77361255D01*
X133836449Y-77368128D01*
X133766667Y-77375001D01*
X133353335Y-77375001D01*
X133283553Y-77368128D01*
X133213769Y-77361255D01*
X133124231Y-77334094D01*
X133034692Y-77306933D01*
X132946478Y-77259781D01*
X132869656Y-77218719D01*
X132856685Y-77208074D01*
X132724999Y-77100003D01*
X132606284Y-76955347D01*
X132518069Y-76790310D01*
X132467009Y-76621985D01*
X132463747Y-76611233D01*
X132445405Y-76425001D01*
X132463747Y-76238769D01*
X132518069Y-76059693D01*
X132518069Y-76059692D01*
X132606284Y-75894655D01*
X132724999Y-75749999D01*
X132869655Y-75631284D01*
X132869654Y-75631284D01*
X132869656Y-75631283D01*
X132946478Y-75590221D01*
X133034692Y-75543069D01*
X133124231Y-75515908D01*
X133213769Y-75488747D01*
X133326460Y-75477648D01*
X133353335Y-75475001D01*
X133766667Y-75475001D01*
X133793542Y-75477648D01*
X133793542Y-75477648D01*
G37*
G36*
X152843542Y-75477648D02*
G01*
X152956233Y-75488747D01*
X153045771Y-75515908D01*
X153135310Y-75543069D01*
X153223524Y-75590221D01*
X153300346Y-75631283D01*
X153300348Y-75631284D01*
X153300347Y-75631284D01*
X153445003Y-75749999D01*
X153563718Y-75894655D01*
X153651933Y-76059692D01*
X153651933Y-76059693D01*
X153706255Y-76238769D01*
X153724597Y-76425001D01*
X153706255Y-76611233D01*
X153702993Y-76621985D01*
X153651933Y-76790310D01*
X153563718Y-76955347D01*
X153445003Y-77100003D01*
X153313316Y-77208074D01*
X153300346Y-77218719D01*
X153223524Y-77259781D01*
X153135310Y-77306933D01*
X153045771Y-77334094D01*
X152956233Y-77361255D01*
X152886449Y-77368128D01*
X152816667Y-77375001D01*
X152403335Y-77375001D01*
X152333553Y-77368128D01*
X152263769Y-77361255D01*
X152174231Y-77334094D01*
X152084692Y-77306933D01*
X151996478Y-77259781D01*
X151919656Y-77218719D01*
X151906685Y-77208074D01*
X151774999Y-77100003D01*
X151656284Y-76955347D01*
X151568069Y-76790310D01*
X151517009Y-76621985D01*
X151513747Y-76611233D01*
X151495405Y-76425001D01*
X151513747Y-76238769D01*
X151568069Y-76059693D01*
X151568069Y-76059692D01*
X151656284Y-75894655D01*
X151774999Y-75749999D01*
X151919655Y-75631284D01*
X151919654Y-75631284D01*
X151919656Y-75631283D01*
X151996478Y-75590221D01*
X152084692Y-75543069D01*
X152174231Y-75515908D01*
X152263769Y-75488747D01*
X152376460Y-75477648D01*
X152403335Y-75475001D01*
X152816667Y-75475001D01*
X152843542Y-75477648D01*
X152843542Y-75477648D01*
G37*
G36*
X142173542Y-75477648D02*
G01*
X142286233Y-75488747D01*
X142375771Y-75515908D01*
X142465310Y-75543069D01*
X142553524Y-75590221D01*
X142630346Y-75631283D01*
X142630348Y-75631284D01*
X142630347Y-75631284D01*
X142775003Y-75749999D01*
X142893718Y-75894655D01*
X142981933Y-76059692D01*
X142981933Y-76059693D01*
X143036255Y-76238769D01*
X143054597Y-76425001D01*
X143036255Y-76611233D01*
X143032993Y-76621985D01*
X142981933Y-76790310D01*
X142893718Y-76955347D01*
X142775003Y-77100003D01*
X142643316Y-77208074D01*
X142630346Y-77218719D01*
X142553524Y-77259781D01*
X142465310Y-77306933D01*
X142375771Y-77334094D01*
X142286233Y-77361255D01*
X142216449Y-77368128D01*
X142146667Y-77375001D01*
X141733335Y-77375001D01*
X141663553Y-77368128D01*
X141593769Y-77361255D01*
X141504231Y-77334094D01*
X141414692Y-77306933D01*
X141326478Y-77259781D01*
X141249656Y-77218719D01*
X141236685Y-77208074D01*
X141104999Y-77100003D01*
X140986284Y-76955347D01*
X140898069Y-76790310D01*
X140847009Y-76621985D01*
X140843747Y-76611233D01*
X140825405Y-76425001D01*
X140843747Y-76238769D01*
X140898069Y-76059693D01*
X140898069Y-76059692D01*
X140986284Y-75894655D01*
X141104999Y-75749999D01*
X141249655Y-75631284D01*
X141249654Y-75631284D01*
X141249656Y-75631283D01*
X141326478Y-75590221D01*
X141414692Y-75543069D01*
X141504231Y-75515908D01*
X141593769Y-75488747D01*
X141706460Y-75477648D01*
X141733335Y-75475001D01*
X142146667Y-75475001D01*
X142173542Y-75477648D01*
X142173542Y-75477648D01*
G37*
G36*
X65973542Y-75477648D02*
G01*
X66086233Y-75488747D01*
X66175771Y-75515908D01*
X66265310Y-75543069D01*
X66353524Y-75590221D01*
X66430346Y-75631283D01*
X66430348Y-75631284D01*
X66430347Y-75631284D01*
X66575003Y-75749999D01*
X66693718Y-75894655D01*
X66781933Y-76059692D01*
X66781933Y-76059693D01*
X66836255Y-76238769D01*
X66854597Y-76425001D01*
X66836255Y-76611233D01*
X66832993Y-76621985D01*
X66781933Y-76790310D01*
X66693718Y-76955347D01*
X66575003Y-77100003D01*
X66443316Y-77208074D01*
X66430346Y-77218719D01*
X66353524Y-77259781D01*
X66265310Y-77306933D01*
X66175771Y-77334094D01*
X66086233Y-77361255D01*
X66016449Y-77368128D01*
X65946667Y-77375001D01*
X65533335Y-77375001D01*
X65463553Y-77368128D01*
X65393769Y-77361255D01*
X65304231Y-77334094D01*
X65214692Y-77306933D01*
X65126478Y-77259781D01*
X65049656Y-77218719D01*
X65036685Y-77208074D01*
X64904999Y-77100003D01*
X64786284Y-76955347D01*
X64698069Y-76790310D01*
X64647009Y-76621985D01*
X64643747Y-76611233D01*
X64625405Y-76425001D01*
X64643747Y-76238769D01*
X64698069Y-76059693D01*
X64698069Y-76059692D01*
X64786284Y-75894655D01*
X64904999Y-75749999D01*
X65049655Y-75631284D01*
X65049654Y-75631284D01*
X65049656Y-75631283D01*
X65126478Y-75590221D01*
X65214692Y-75543069D01*
X65304231Y-75515908D01*
X65393769Y-75488747D01*
X65506460Y-75477648D01*
X65533335Y-75475001D01*
X65946667Y-75475001D01*
X65973542Y-75477648D01*
X65973542Y-75477648D01*
G37*
G36*
X76643542Y-75477648D02*
G01*
X76756233Y-75488747D01*
X76845771Y-75515908D01*
X76935310Y-75543069D01*
X77023524Y-75590221D01*
X77100346Y-75631283D01*
X77100348Y-75631284D01*
X77100347Y-75631284D01*
X77245003Y-75749999D01*
X77363718Y-75894655D01*
X77451933Y-76059692D01*
X77451933Y-76059693D01*
X77506255Y-76238769D01*
X77524597Y-76425001D01*
X77506255Y-76611233D01*
X77502993Y-76621985D01*
X77451933Y-76790310D01*
X77363718Y-76955347D01*
X77245003Y-77100003D01*
X77113316Y-77208074D01*
X77100346Y-77218719D01*
X77023524Y-77259781D01*
X76935310Y-77306933D01*
X76845771Y-77334094D01*
X76756233Y-77361255D01*
X76686449Y-77368128D01*
X76616667Y-77375001D01*
X76203335Y-77375001D01*
X76133553Y-77368128D01*
X76063769Y-77361255D01*
X75974231Y-77334094D01*
X75884692Y-77306933D01*
X75796478Y-77259781D01*
X75719656Y-77218719D01*
X75706685Y-77208074D01*
X75574999Y-77100003D01*
X75456284Y-76955347D01*
X75368069Y-76790310D01*
X75317009Y-76621985D01*
X75313747Y-76611233D01*
X75295405Y-76425001D01*
X75313747Y-76238769D01*
X75368069Y-76059693D01*
X75368069Y-76059692D01*
X75456284Y-75894655D01*
X75574999Y-75749999D01*
X75719655Y-75631284D01*
X75719654Y-75631284D01*
X75719656Y-75631283D01*
X75796478Y-75590221D01*
X75884692Y-75543069D01*
X75974231Y-75515908D01*
X76063769Y-75488747D01*
X76176460Y-75477648D01*
X76203335Y-75475001D01*
X76616667Y-75475001D01*
X76643542Y-75477648D01*
X76643542Y-75477648D01*
G37*
G36*
X85023542Y-75477648D02*
G01*
X85136233Y-75488747D01*
X85225771Y-75515908D01*
X85315310Y-75543069D01*
X85403524Y-75590221D01*
X85480346Y-75631283D01*
X85480348Y-75631284D01*
X85480347Y-75631284D01*
X85625003Y-75749999D01*
X85743718Y-75894655D01*
X85831933Y-76059692D01*
X85831933Y-76059693D01*
X85886255Y-76238769D01*
X85904597Y-76425001D01*
X85886255Y-76611233D01*
X85882993Y-76621985D01*
X85831933Y-76790310D01*
X85743718Y-76955347D01*
X85625003Y-77100003D01*
X85493316Y-77208074D01*
X85480346Y-77218719D01*
X85403524Y-77259781D01*
X85315310Y-77306933D01*
X85225771Y-77334094D01*
X85136233Y-77361255D01*
X85066449Y-77368128D01*
X84996667Y-77375001D01*
X84583335Y-77375001D01*
X84513553Y-77368128D01*
X84443769Y-77361255D01*
X84354231Y-77334094D01*
X84264692Y-77306933D01*
X84176478Y-77259781D01*
X84099656Y-77218719D01*
X84086685Y-77208074D01*
X83954999Y-77100003D01*
X83836284Y-76955347D01*
X83748069Y-76790310D01*
X83697009Y-76621985D01*
X83693747Y-76611233D01*
X83675405Y-76425001D01*
X83693747Y-76238769D01*
X83748069Y-76059693D01*
X83748069Y-76059692D01*
X83836284Y-75894655D01*
X83954999Y-75749999D01*
X84099655Y-75631284D01*
X84099654Y-75631284D01*
X84099656Y-75631283D01*
X84176478Y-75590221D01*
X84264692Y-75543069D01*
X84354231Y-75515908D01*
X84443769Y-75488747D01*
X84556460Y-75477648D01*
X84583335Y-75475001D01*
X84996667Y-75475001D01*
X85023542Y-75477648D01*
X85023542Y-75477648D01*
G37*
G36*
X95693542Y-75477648D02*
G01*
X95806233Y-75488747D01*
X95895771Y-75515908D01*
X95985310Y-75543069D01*
X96073524Y-75590221D01*
X96150346Y-75631283D01*
X96150348Y-75631284D01*
X96150347Y-75631284D01*
X96295003Y-75749999D01*
X96413718Y-75894655D01*
X96501933Y-76059692D01*
X96501933Y-76059693D01*
X96556255Y-76238769D01*
X96574597Y-76425001D01*
X96556255Y-76611233D01*
X96552993Y-76621985D01*
X96501933Y-76790310D01*
X96413718Y-76955347D01*
X96295003Y-77100003D01*
X96163316Y-77208074D01*
X96150346Y-77218719D01*
X96073524Y-77259781D01*
X95985310Y-77306933D01*
X95895771Y-77334094D01*
X95806233Y-77361255D01*
X95736449Y-77368128D01*
X95666667Y-77375001D01*
X95253335Y-77375001D01*
X95183553Y-77368128D01*
X95113769Y-77361255D01*
X95024231Y-77334094D01*
X94934692Y-77306933D01*
X94846478Y-77259781D01*
X94769656Y-77218719D01*
X94756685Y-77208074D01*
X94624999Y-77100003D01*
X94506284Y-76955347D01*
X94418069Y-76790310D01*
X94367009Y-76621985D01*
X94363747Y-76611233D01*
X94345405Y-76425001D01*
X94363747Y-76238769D01*
X94418069Y-76059693D01*
X94418069Y-76059692D01*
X94506284Y-75894655D01*
X94624999Y-75749999D01*
X94769655Y-75631284D01*
X94769654Y-75631284D01*
X94769656Y-75631283D01*
X94846478Y-75590221D01*
X94934692Y-75543069D01*
X95024231Y-75515908D01*
X95113769Y-75488747D01*
X95226460Y-75477648D01*
X95253335Y-75475001D01*
X95666667Y-75475001D01*
X95693542Y-75477648D01*
X95693542Y-75477648D01*
G37*
G36*
X104073542Y-75477648D02*
G01*
X104186233Y-75488747D01*
X104275771Y-75515908D01*
X104365310Y-75543069D01*
X104453524Y-75590221D01*
X104530346Y-75631283D01*
X104530348Y-75631284D01*
X104530347Y-75631284D01*
X104675003Y-75749999D01*
X104793718Y-75894655D01*
X104881933Y-76059692D01*
X104881933Y-76059693D01*
X104936255Y-76238769D01*
X104954597Y-76425001D01*
X104936255Y-76611233D01*
X104932993Y-76621985D01*
X104881933Y-76790310D01*
X104793718Y-76955347D01*
X104675003Y-77100003D01*
X104543316Y-77208074D01*
X104530346Y-77218719D01*
X104453524Y-77259781D01*
X104365310Y-77306933D01*
X104275771Y-77334094D01*
X104186233Y-77361255D01*
X104116449Y-77368128D01*
X104046667Y-77375001D01*
X103633335Y-77375001D01*
X103563553Y-77368128D01*
X103493769Y-77361255D01*
X103404231Y-77334094D01*
X103314692Y-77306933D01*
X103226478Y-77259781D01*
X103149656Y-77218719D01*
X103136685Y-77208074D01*
X103004999Y-77100003D01*
X102886284Y-76955347D01*
X102798069Y-76790310D01*
X102747009Y-76621985D01*
X102743747Y-76611233D01*
X102725405Y-76425001D01*
X102743747Y-76238769D01*
X102798069Y-76059693D01*
X102798069Y-76059692D01*
X102886284Y-75894655D01*
X103004999Y-75749999D01*
X103149655Y-75631284D01*
X103149654Y-75631284D01*
X103149656Y-75631283D01*
X103226478Y-75590221D01*
X103314692Y-75543069D01*
X103404231Y-75515908D01*
X103493769Y-75488747D01*
X103606460Y-75477648D01*
X103633335Y-75475001D01*
X104046667Y-75475001D01*
X104073542Y-75477648D01*
X104073542Y-75477648D01*
G37*
G36*
X114743542Y-75477648D02*
G01*
X114856233Y-75488747D01*
X114945771Y-75515908D01*
X115035310Y-75543069D01*
X115123524Y-75590221D01*
X115200346Y-75631283D01*
X115200348Y-75631284D01*
X115200347Y-75631284D01*
X115345003Y-75749999D01*
X115463718Y-75894655D01*
X115551933Y-76059692D01*
X115551933Y-76059693D01*
X115606255Y-76238769D01*
X115624597Y-76425001D01*
X115606255Y-76611233D01*
X115602993Y-76621985D01*
X115551933Y-76790310D01*
X115463718Y-76955347D01*
X115345003Y-77100003D01*
X115213316Y-77208074D01*
X115200346Y-77218719D01*
X115123524Y-77259781D01*
X115035310Y-77306933D01*
X114945771Y-77334094D01*
X114856233Y-77361255D01*
X114786449Y-77368128D01*
X114716667Y-77375001D01*
X114303335Y-77375001D01*
X114233553Y-77368128D01*
X114163769Y-77361255D01*
X114074231Y-77334094D01*
X113984692Y-77306933D01*
X113896478Y-77259781D01*
X113819656Y-77218719D01*
X113806685Y-77208074D01*
X113674999Y-77100003D01*
X113556284Y-76955347D01*
X113468069Y-76790310D01*
X113417009Y-76621985D01*
X113413747Y-76611233D01*
X113395405Y-76425001D01*
X113413747Y-76238769D01*
X113468069Y-76059693D01*
X113468069Y-76059692D01*
X113556284Y-75894655D01*
X113674999Y-75749999D01*
X113819655Y-75631284D01*
X113819654Y-75631284D01*
X113819656Y-75631283D01*
X113896478Y-75590221D01*
X113984692Y-75543069D01*
X114074231Y-75515908D01*
X114163769Y-75488747D01*
X114276460Y-75477648D01*
X114303335Y-75475001D01*
X114716667Y-75475001D01*
X114743542Y-75477648D01*
X114743542Y-75477648D01*
G37*
G36*
X123123542Y-75477648D02*
G01*
X123236233Y-75488747D01*
X123325771Y-75515908D01*
X123415310Y-75543069D01*
X123503524Y-75590221D01*
X123580346Y-75631283D01*
X123580348Y-75631284D01*
X123580347Y-75631284D01*
X123725003Y-75749999D01*
X123843718Y-75894655D01*
X123931933Y-76059692D01*
X123931933Y-76059693D01*
X123986255Y-76238769D01*
X124004597Y-76425001D01*
X123986255Y-76611233D01*
X123982993Y-76621985D01*
X123931933Y-76790310D01*
X123843718Y-76955347D01*
X123725003Y-77100003D01*
X123593316Y-77208074D01*
X123580346Y-77218719D01*
X123503524Y-77259781D01*
X123415310Y-77306933D01*
X123325771Y-77334094D01*
X123236233Y-77361255D01*
X123166449Y-77368128D01*
X123096667Y-77375001D01*
X122683335Y-77375001D01*
X122613553Y-77368128D01*
X122543769Y-77361255D01*
X122454231Y-77334094D01*
X122364692Y-77306933D01*
X122276478Y-77259781D01*
X122199656Y-77218719D01*
X122186685Y-77208074D01*
X122054999Y-77100003D01*
X121936284Y-76955347D01*
X121848069Y-76790310D01*
X121797009Y-76621985D01*
X121793747Y-76611233D01*
X121775405Y-76425001D01*
X121793747Y-76238769D01*
X121848069Y-76059693D01*
X121848069Y-76059692D01*
X121936284Y-75894655D01*
X122054999Y-75749999D01*
X122199655Y-75631284D01*
X122199654Y-75631284D01*
X122199656Y-75631283D01*
X122276478Y-75590221D01*
X122364692Y-75543069D01*
X122454231Y-75515908D01*
X122543769Y-75488747D01*
X122656460Y-75477648D01*
X122683335Y-75475001D01*
X123096667Y-75475001D01*
X123123542Y-75477648D01*
X123123542Y-75477648D01*
G37*
G36*
X86752535Y-72442644D02*
G01*
X87025516Y-72555717D01*
X87025518Y-72555718D01*
X87149191Y-72638354D01*
X87271194Y-72719874D01*
X87480128Y-72928808D01*
X87644285Y-73174486D01*
X87757358Y-73447467D01*
X87815001Y-73737263D01*
X87815001Y-74032739D01*
X87757358Y-74322535D01*
X87644285Y-74595516D01*
X87644284Y-74595518D01*
X87480127Y-74841195D01*
X87271195Y-75050127D01*
X87025518Y-75214284D01*
X87025517Y-75214285D01*
X87025516Y-75214285D01*
X86752535Y-75327358D01*
X86462739Y-75385001D01*
X86167263Y-75385001D01*
X85877467Y-75327358D01*
X85604486Y-75214285D01*
X85604485Y-75214285D01*
X85604484Y-75214284D01*
X85358807Y-75050127D01*
X85149875Y-74841195D01*
X84985718Y-74595518D01*
X84985717Y-74595516D01*
X84872644Y-74322535D01*
X84815001Y-74032739D01*
X84815001Y-73737263D01*
X84872644Y-73447467D01*
X84985717Y-73174486D01*
X85149874Y-72928808D01*
X85358808Y-72719874D01*
X85480811Y-72638354D01*
X85604484Y-72555718D01*
X85604486Y-72555717D01*
X85877467Y-72442644D01*
X86167263Y-72385001D01*
X86462739Y-72385001D01*
X86752535Y-72442644D01*
X86752535Y-72442644D01*
G37*
G36*
X67702535Y-72442644D02*
G01*
X67975516Y-72555717D01*
X67975518Y-72555718D01*
X68099191Y-72638354D01*
X68221194Y-72719874D01*
X68430128Y-72928808D01*
X68594285Y-73174486D01*
X68707358Y-73447467D01*
X68765001Y-73737263D01*
X68765001Y-74032739D01*
X68707358Y-74322535D01*
X68594285Y-74595516D01*
X68594284Y-74595518D01*
X68430127Y-74841195D01*
X68221195Y-75050127D01*
X67975518Y-75214284D01*
X67975517Y-75214285D01*
X67975516Y-75214285D01*
X67702535Y-75327358D01*
X67412739Y-75385001D01*
X67117263Y-75385001D01*
X66827467Y-75327358D01*
X66554486Y-75214285D01*
X66554485Y-75214285D01*
X66554484Y-75214284D01*
X66308807Y-75050127D01*
X66099875Y-74841195D01*
X65935718Y-74595518D01*
X65935717Y-74595516D01*
X65822644Y-74322535D01*
X65765001Y-74032739D01*
X65765001Y-73737263D01*
X65822644Y-73447467D01*
X65935717Y-73174486D01*
X66099874Y-72928808D01*
X66308808Y-72719874D01*
X66430811Y-72638354D01*
X66554484Y-72555718D01*
X66554486Y-72555717D01*
X66827467Y-72442644D01*
X67117263Y-72385001D01*
X67412739Y-72385001D01*
X67702535Y-72442644D01*
X67702535Y-72442644D01*
G37*
G36*
X124852535Y-72442644D02*
G01*
X125125516Y-72555717D01*
X125125518Y-72555718D01*
X125249191Y-72638354D01*
X125371194Y-72719874D01*
X125580128Y-72928808D01*
X125744285Y-73174486D01*
X125857358Y-73447467D01*
X125915001Y-73737263D01*
X125915001Y-74032739D01*
X125857358Y-74322535D01*
X125744285Y-74595516D01*
X125744284Y-74595518D01*
X125580127Y-74841195D01*
X125371195Y-75050127D01*
X125125518Y-75214284D01*
X125125517Y-75214285D01*
X125125516Y-75214285D01*
X124852535Y-75327358D01*
X124562739Y-75385001D01*
X124267263Y-75385001D01*
X123977467Y-75327358D01*
X123704486Y-75214285D01*
X123704485Y-75214285D01*
X123704484Y-75214284D01*
X123458807Y-75050127D01*
X123249875Y-74841195D01*
X123085718Y-74595518D01*
X123085717Y-74595516D01*
X122972644Y-74322535D01*
X122915001Y-74032739D01*
X122915001Y-73737263D01*
X122972644Y-73447467D01*
X123085717Y-73174486D01*
X123249874Y-72928808D01*
X123458808Y-72719874D01*
X123580811Y-72638354D01*
X123704484Y-72555718D01*
X123704486Y-72555717D01*
X123977467Y-72442644D01*
X124267263Y-72385001D01*
X124562739Y-72385001D01*
X124852535Y-72442644D01*
X124852535Y-72442644D01*
G37*
G36*
X143902535Y-72442644D02*
G01*
X144175516Y-72555717D01*
X144175518Y-72555718D01*
X144299191Y-72638354D01*
X144421194Y-72719874D01*
X144630128Y-72928808D01*
X144794285Y-73174486D01*
X144907358Y-73447467D01*
X144965001Y-73737263D01*
X144965001Y-74032739D01*
X144907358Y-74322535D01*
X144794285Y-74595516D01*
X144794284Y-74595518D01*
X144630127Y-74841195D01*
X144421195Y-75050127D01*
X144175518Y-75214284D01*
X144175517Y-75214285D01*
X144175516Y-75214285D01*
X143902535Y-75327358D01*
X143612739Y-75385001D01*
X143317263Y-75385001D01*
X143027467Y-75327358D01*
X142754486Y-75214285D01*
X142754485Y-75214285D01*
X142754484Y-75214284D01*
X142508807Y-75050127D01*
X142299875Y-74841195D01*
X142135718Y-74595518D01*
X142135717Y-74595516D01*
X142022644Y-74322535D01*
X141965001Y-74032739D01*
X141965001Y-73737263D01*
X142022644Y-73447467D01*
X142135717Y-73174486D01*
X142299874Y-72928808D01*
X142508808Y-72719874D01*
X142630811Y-72638354D01*
X142754484Y-72555718D01*
X142754486Y-72555717D01*
X143027467Y-72442644D01*
X143317263Y-72385001D01*
X143612739Y-72385001D01*
X143902535Y-72442644D01*
X143902535Y-72442644D01*
G37*
G36*
X105802535Y-72442644D02*
G01*
X106075516Y-72555717D01*
X106075518Y-72555718D01*
X106199191Y-72638354D01*
X106321194Y-72719874D01*
X106530128Y-72928808D01*
X106694285Y-73174486D01*
X106807358Y-73447467D01*
X106865001Y-73737263D01*
X106865001Y-74032739D01*
X106807358Y-74322535D01*
X106694285Y-74595516D01*
X106694284Y-74595518D01*
X106530127Y-74841195D01*
X106321195Y-75050127D01*
X106075518Y-75214284D01*
X106075517Y-75214285D01*
X106075516Y-75214285D01*
X105802535Y-75327358D01*
X105512739Y-75385001D01*
X105217263Y-75385001D01*
X104927467Y-75327358D01*
X104654486Y-75214285D01*
X104654485Y-75214285D01*
X104654484Y-75214284D01*
X104408807Y-75050127D01*
X104199875Y-74841195D01*
X104035718Y-74595518D01*
X104035717Y-74595516D01*
X103922644Y-74322535D01*
X103865001Y-74032739D01*
X103865001Y-73737263D01*
X103922644Y-73447467D01*
X104035717Y-73174486D01*
X104199874Y-72928808D01*
X104408808Y-72719874D01*
X104530811Y-72638354D01*
X104654484Y-72555718D01*
X104654486Y-72555717D01*
X104927467Y-72442644D01*
X105217263Y-72385001D01*
X105512739Y-72385001D01*
X105802535Y-72442644D01*
X105802535Y-72442644D01*
G37*
G36*
X141375001Y-74885001D02*
G01*
X139375001Y-74885001D01*
X139375001Y-72885001D01*
X141375001Y-72885001D01*
X141375001Y-74885001D01*
X141375001Y-74885001D01*
G37*
G36*
X122325001Y-74885001D02*
G01*
X120325001Y-74885001D01*
X120325001Y-72885001D01*
X122325001Y-72885001D01*
X122325001Y-74885001D01*
X122325001Y-74885001D01*
G37*
G36*
X103275001Y-74885001D02*
G01*
X101275001Y-74885001D01*
X101275001Y-72885001D01*
X103275001Y-72885001D01*
X103275001Y-74885001D01*
X103275001Y-74885001D01*
G37*
G36*
X84225001Y-74885001D02*
G01*
X82225001Y-74885001D01*
X82225001Y-72885001D01*
X84225001Y-72885001D01*
X84225001Y-74885001D01*
X84225001Y-74885001D01*
G37*
G36*
X65175001Y-74885001D02*
G01*
X63175001Y-74885001D01*
X63175001Y-72885001D01*
X65175001Y-72885001D01*
X65175001Y-74885001D01*
X65175001Y-74885001D01*
G37*
G36*
X112152535Y-69902644D02*
G01*
X112425516Y-70015717D01*
X112425518Y-70015718D01*
X112549191Y-70098354D01*
X112671194Y-70179874D01*
X112880128Y-70388808D01*
X113044285Y-70634486D01*
X113157358Y-70907467D01*
X113215001Y-71197263D01*
X113215001Y-71492739D01*
X113157358Y-71782535D01*
X113044285Y-72055516D01*
X113044284Y-72055518D01*
X112880127Y-72301195D01*
X112671195Y-72510127D01*
X112425518Y-72674284D01*
X112425517Y-72674285D01*
X112425516Y-72674285D01*
X112152535Y-72787358D01*
X111862739Y-72845001D01*
X111567263Y-72845001D01*
X111277467Y-72787358D01*
X111004486Y-72674285D01*
X111004485Y-72674285D01*
X111004484Y-72674284D01*
X110758807Y-72510127D01*
X110549875Y-72301195D01*
X110385718Y-72055518D01*
X110385717Y-72055516D01*
X110272644Y-71782535D01*
X110215001Y-71492739D01*
X110215001Y-71197263D01*
X110272644Y-70907467D01*
X110385717Y-70634486D01*
X110549874Y-70388808D01*
X110758808Y-70179874D01*
X110880811Y-70098354D01*
X111004484Y-70015718D01*
X111004486Y-70015717D01*
X111277467Y-69902644D01*
X111567263Y-69845001D01*
X111862739Y-69845001D01*
X112152535Y-69902644D01*
X112152535Y-69902644D01*
G37*
G36*
X74052535Y-69902644D02*
G01*
X74325516Y-70015717D01*
X74325518Y-70015718D01*
X74449191Y-70098354D01*
X74571194Y-70179874D01*
X74780128Y-70388808D01*
X74944285Y-70634486D01*
X75057358Y-70907467D01*
X75115001Y-71197263D01*
X75115001Y-71492739D01*
X75057358Y-71782535D01*
X74944285Y-72055516D01*
X74944284Y-72055518D01*
X74780127Y-72301195D01*
X74571195Y-72510127D01*
X74325518Y-72674284D01*
X74325517Y-72674285D01*
X74325516Y-72674285D01*
X74052535Y-72787358D01*
X73762739Y-72845001D01*
X73467263Y-72845001D01*
X73177467Y-72787358D01*
X72904486Y-72674285D01*
X72904485Y-72674285D01*
X72904484Y-72674284D01*
X72658807Y-72510127D01*
X72449875Y-72301195D01*
X72285718Y-72055518D01*
X72285717Y-72055516D01*
X72172644Y-71782535D01*
X72115001Y-71492739D01*
X72115001Y-71197263D01*
X72172644Y-70907467D01*
X72285717Y-70634486D01*
X72449874Y-70388808D01*
X72658808Y-70179874D01*
X72780811Y-70098354D01*
X72904484Y-70015718D01*
X72904486Y-70015717D01*
X73177467Y-69902644D01*
X73467263Y-69845001D01*
X73762739Y-69845001D01*
X74052535Y-69902644D01*
X74052535Y-69902644D01*
G37*
G36*
X150252535Y-69902644D02*
G01*
X150525516Y-70015717D01*
X150525518Y-70015718D01*
X150649191Y-70098354D01*
X150771194Y-70179874D01*
X150980128Y-70388808D01*
X151144285Y-70634486D01*
X151257358Y-70907467D01*
X151315001Y-71197263D01*
X151315001Y-71492739D01*
X151257358Y-71782535D01*
X151144285Y-72055516D01*
X151144284Y-72055518D01*
X150980127Y-72301195D01*
X150771195Y-72510127D01*
X150525518Y-72674284D01*
X150525517Y-72674285D01*
X150525516Y-72674285D01*
X150252535Y-72787358D01*
X149962739Y-72845001D01*
X149667263Y-72845001D01*
X149377467Y-72787358D01*
X149104486Y-72674285D01*
X149104485Y-72674285D01*
X149104484Y-72674284D01*
X148858807Y-72510127D01*
X148649875Y-72301195D01*
X148485718Y-72055518D01*
X148485717Y-72055516D01*
X148372644Y-71782535D01*
X148315001Y-71492739D01*
X148315001Y-71197263D01*
X148372644Y-70907467D01*
X148485717Y-70634486D01*
X148649874Y-70388808D01*
X148858808Y-70179874D01*
X148980811Y-70098354D01*
X149104484Y-70015718D01*
X149104486Y-70015717D01*
X149377467Y-69902644D01*
X149667263Y-69845001D01*
X149962739Y-69845001D01*
X150252535Y-69902644D01*
X150252535Y-69902644D01*
G37*
G36*
X131202535Y-69902644D02*
G01*
X131475516Y-70015717D01*
X131475518Y-70015718D01*
X131599191Y-70098354D01*
X131721194Y-70179874D01*
X131930128Y-70388808D01*
X132094285Y-70634486D01*
X132207358Y-70907467D01*
X132265001Y-71197263D01*
X132265001Y-71492739D01*
X132207358Y-71782535D01*
X132094285Y-72055516D01*
X132094284Y-72055518D01*
X131930127Y-72301195D01*
X131721195Y-72510127D01*
X131475518Y-72674284D01*
X131475517Y-72674285D01*
X131475516Y-72674285D01*
X131202535Y-72787358D01*
X130912739Y-72845001D01*
X130617263Y-72845001D01*
X130327467Y-72787358D01*
X130054486Y-72674285D01*
X130054485Y-72674285D01*
X130054484Y-72674284D01*
X129808807Y-72510127D01*
X129599875Y-72301195D01*
X129435718Y-72055518D01*
X129435717Y-72055516D01*
X129322644Y-71782535D01*
X129265001Y-71492739D01*
X129265001Y-71197263D01*
X129322644Y-70907467D01*
X129435717Y-70634486D01*
X129599874Y-70388808D01*
X129808808Y-70179874D01*
X129930811Y-70098354D01*
X130054484Y-70015718D01*
X130054486Y-70015717D01*
X130327467Y-69902644D01*
X130617263Y-69845001D01*
X130912739Y-69845001D01*
X131202535Y-69902644D01*
X131202535Y-69902644D01*
G37*
G36*
X93102535Y-69902644D02*
G01*
X93375516Y-70015717D01*
X93375518Y-70015718D01*
X93499191Y-70098354D01*
X93621194Y-70179874D01*
X93830128Y-70388808D01*
X93994285Y-70634486D01*
X94107358Y-70907467D01*
X94165001Y-71197263D01*
X94165001Y-71492739D01*
X94107358Y-71782535D01*
X93994285Y-72055516D01*
X93994284Y-72055518D01*
X93830127Y-72301195D01*
X93621195Y-72510127D01*
X93375518Y-72674284D01*
X93375517Y-72674285D01*
X93375516Y-72674285D01*
X93102535Y-72787358D01*
X92812739Y-72845001D01*
X92517263Y-72845001D01*
X92227467Y-72787358D01*
X91954486Y-72674285D01*
X91954485Y-72674285D01*
X91954484Y-72674284D01*
X91708807Y-72510127D01*
X91499875Y-72301195D01*
X91335718Y-72055518D01*
X91335717Y-72055516D01*
X91222644Y-71782535D01*
X91165001Y-71492739D01*
X91165001Y-71197263D01*
X91222644Y-70907467D01*
X91335717Y-70634486D01*
X91499874Y-70388808D01*
X91708808Y-70179874D01*
X91830811Y-70098354D01*
X91954484Y-70015718D01*
X91954486Y-70015717D01*
X92227467Y-69902644D01*
X92517263Y-69845001D01*
X92812739Y-69845001D01*
X93102535Y-69902644D01*
X93102535Y-69902644D01*
G37*
G36*
X115775001Y-72345001D02*
G01*
X113775001Y-72345001D01*
X113775001Y-70345001D01*
X115775001Y-70345001D01*
X115775001Y-72345001D01*
X115775001Y-72345001D01*
G37*
G36*
X77675001Y-72345001D02*
G01*
X75675001Y-72345001D01*
X75675001Y-70345001D01*
X77675001Y-70345001D01*
X77675001Y-72345001D01*
X77675001Y-72345001D01*
G37*
G36*
X96725001Y-72345001D02*
G01*
X94725001Y-72345001D01*
X94725001Y-70345001D01*
X96725001Y-70345001D01*
X96725001Y-72345001D01*
X96725001Y-72345001D01*
G37*
G36*
X134825001Y-72345001D02*
G01*
X132825001Y-72345001D01*
X132825001Y-70345001D01*
X134825001Y-70345001D01*
X134825001Y-72345001D01*
X134825001Y-72345001D01*
G37*
G36*
X153875001Y-72345001D02*
G01*
X151875001Y-72345001D01*
X151875001Y-70345001D01*
X153875001Y-70345001D01*
X153875001Y-72345001D01*
X153875001Y-72345001D01*
G37*
G36*
X153320857Y-65942272D02*
G01*
X153521043Y-66025192D01*
X153521045Y-66025193D01*
X153611738Y-66085792D01*
X153701208Y-66145574D01*
X153854426Y-66298792D01*
X153974808Y-66478957D01*
X154057728Y-66679143D01*
X154100000Y-66891658D01*
X154100000Y-67108342D01*
X154057728Y-67320857D01*
X153974808Y-67521043D01*
X153974807Y-67521045D01*
X153854425Y-67701209D01*
X153701209Y-67854425D01*
X153521045Y-67974807D01*
X153521044Y-67974808D01*
X153521043Y-67974808D01*
X153320857Y-68057728D01*
X153108342Y-68100000D01*
X152891658Y-68100000D01*
X152679143Y-68057728D01*
X152478957Y-67974808D01*
X152478956Y-67974808D01*
X152478955Y-67974807D01*
X152298791Y-67854425D01*
X152145575Y-67701209D01*
X152025193Y-67521045D01*
X152025192Y-67521043D01*
X151942272Y-67320857D01*
X151900000Y-67108342D01*
X151900000Y-66891658D01*
X151942272Y-66679143D01*
X152025192Y-66478957D01*
X152145574Y-66298792D01*
X152298792Y-66145574D01*
X152388262Y-66085792D01*
X152478955Y-66025193D01*
X152478957Y-66025192D01*
X152679143Y-65942272D01*
X152891658Y-65900000D01*
X153108342Y-65900000D01*
X153320857Y-65942272D01*
X153320857Y-65942272D01*
G37*
G36*
X65320857Y-65942272D02*
G01*
X65521043Y-66025192D01*
X65521045Y-66025193D01*
X65611738Y-66085792D01*
X65701208Y-66145574D01*
X65854426Y-66298792D01*
X65974808Y-66478957D01*
X66057728Y-66679143D01*
X66100000Y-66891658D01*
X66100000Y-67108342D01*
X66057728Y-67320857D01*
X65974808Y-67521043D01*
X65974807Y-67521045D01*
X65854425Y-67701209D01*
X65701209Y-67854425D01*
X65521045Y-67974807D01*
X65521044Y-67974808D01*
X65521043Y-67974808D01*
X65320857Y-68057728D01*
X65108342Y-68100000D01*
X64891658Y-68100000D01*
X64679143Y-68057728D01*
X64478957Y-67974808D01*
X64478956Y-67974808D01*
X64478955Y-67974807D01*
X64298791Y-67854425D01*
X64145575Y-67701209D01*
X64025193Y-67521045D01*
X64025192Y-67521043D01*
X63942272Y-67320857D01*
X63900000Y-67108342D01*
X63900000Y-66891658D01*
X63942272Y-66679143D01*
X64025192Y-66478957D01*
X64145574Y-66298792D01*
X64298792Y-66145574D01*
X64388262Y-66085792D01*
X64478955Y-66025193D01*
X64478957Y-66025192D01*
X64679143Y-65942272D01*
X64891658Y-65900000D01*
X65108342Y-65900000D01*
X65320857Y-65942272D01*
X65320857Y-65942272D01*
G37*
G36*
X71512535Y-61832644D02*
G01*
X71785516Y-61945717D01*
X71785518Y-61945718D01*
X72031195Y-62109875D01*
X72240127Y-62318807D01*
X72372795Y-62517357D01*
X72404285Y-62564486D01*
X72517358Y-62837467D01*
X72575001Y-63127263D01*
X72575001Y-63422739D01*
X72517358Y-63712535D01*
X72404285Y-63985516D01*
X72404284Y-63985518D01*
X72240127Y-64231195D01*
X72031195Y-64440127D01*
X71785518Y-64604284D01*
X71785517Y-64604285D01*
X71785516Y-64604285D01*
X71512535Y-64717358D01*
X71222739Y-64775001D01*
X70927263Y-64775001D01*
X70637467Y-64717358D01*
X70364486Y-64604285D01*
X70364485Y-64604285D01*
X70364484Y-64604284D01*
X70118807Y-64440127D01*
X69909875Y-64231195D01*
X69745718Y-63985518D01*
X69745717Y-63985516D01*
X69632644Y-63712535D01*
X69575001Y-63422739D01*
X69575001Y-63127263D01*
X69632644Y-62837467D01*
X69745717Y-62564486D01*
X69777208Y-62517357D01*
X69909875Y-62318807D01*
X70118807Y-62109875D01*
X70364484Y-61945718D01*
X70364486Y-61945717D01*
X70637467Y-61832644D01*
X70927263Y-61775001D01*
X71222739Y-61775001D01*
X71512535Y-61832644D01*
X71512535Y-61832644D01*
G37*
G36*
X90562535Y-61832644D02*
G01*
X90835516Y-61945717D01*
X90835518Y-61945718D01*
X91081195Y-62109875D01*
X91290127Y-62318807D01*
X91422795Y-62517357D01*
X91454285Y-62564486D01*
X91567358Y-62837467D01*
X91625001Y-63127263D01*
X91625001Y-63422739D01*
X91567358Y-63712535D01*
X91454285Y-63985516D01*
X91454284Y-63985518D01*
X91290127Y-64231195D01*
X91081195Y-64440127D01*
X90835518Y-64604284D01*
X90835517Y-64604285D01*
X90835516Y-64604285D01*
X90562535Y-64717358D01*
X90272739Y-64775001D01*
X89977263Y-64775001D01*
X89687467Y-64717358D01*
X89414486Y-64604285D01*
X89414485Y-64604285D01*
X89414484Y-64604284D01*
X89168807Y-64440127D01*
X88959875Y-64231195D01*
X88795718Y-63985518D01*
X88795717Y-63985516D01*
X88682644Y-63712535D01*
X88625001Y-63422739D01*
X88625001Y-63127263D01*
X88682644Y-62837467D01*
X88795717Y-62564486D01*
X88827208Y-62517357D01*
X88959875Y-62318807D01*
X89168807Y-62109875D01*
X89414484Y-61945718D01*
X89414486Y-61945717D01*
X89687467Y-61832644D01*
X89977263Y-61775001D01*
X90272739Y-61775001D01*
X90562535Y-61832644D01*
X90562535Y-61832644D01*
G37*
G36*
X109612535Y-61832644D02*
G01*
X109885516Y-61945717D01*
X109885518Y-61945718D01*
X110131195Y-62109875D01*
X110340127Y-62318807D01*
X110472795Y-62517357D01*
X110504285Y-62564486D01*
X110617358Y-62837467D01*
X110675001Y-63127263D01*
X110675001Y-63422739D01*
X110617358Y-63712535D01*
X110504285Y-63985516D01*
X110504284Y-63985518D01*
X110340127Y-64231195D01*
X110131195Y-64440127D01*
X109885518Y-64604284D01*
X109885517Y-64604285D01*
X109885516Y-64604285D01*
X109612535Y-64717358D01*
X109322739Y-64775001D01*
X109027263Y-64775001D01*
X108737467Y-64717358D01*
X108464486Y-64604285D01*
X108464485Y-64604285D01*
X108464484Y-64604284D01*
X108218807Y-64440127D01*
X108009875Y-64231195D01*
X107845718Y-63985518D01*
X107845717Y-63985516D01*
X107732644Y-63712535D01*
X107675001Y-63422739D01*
X107675001Y-63127263D01*
X107732644Y-62837467D01*
X107845717Y-62564486D01*
X107877208Y-62517357D01*
X108009875Y-62318807D01*
X108218807Y-62109875D01*
X108464484Y-61945718D01*
X108464486Y-61945717D01*
X108737467Y-61832644D01*
X109027263Y-61775001D01*
X109322739Y-61775001D01*
X109612535Y-61832644D01*
X109612535Y-61832644D01*
G37*
G36*
X128662535Y-61832644D02*
G01*
X128935516Y-61945717D01*
X128935518Y-61945718D01*
X129181195Y-62109875D01*
X129390127Y-62318807D01*
X129522795Y-62517357D01*
X129554285Y-62564486D01*
X129667358Y-62837467D01*
X129725001Y-63127263D01*
X129725001Y-63422739D01*
X129667358Y-63712535D01*
X129554285Y-63985516D01*
X129554284Y-63985518D01*
X129390127Y-64231195D01*
X129181195Y-64440127D01*
X128935518Y-64604284D01*
X128935517Y-64604285D01*
X128935516Y-64604285D01*
X128662535Y-64717358D01*
X128372739Y-64775001D01*
X128077263Y-64775001D01*
X127787467Y-64717358D01*
X127514486Y-64604285D01*
X127514485Y-64604285D01*
X127514484Y-64604284D01*
X127268807Y-64440127D01*
X127059875Y-64231195D01*
X126895718Y-63985518D01*
X126895717Y-63985516D01*
X126782644Y-63712535D01*
X126725001Y-63422739D01*
X126725001Y-63127263D01*
X126782644Y-62837467D01*
X126895717Y-62564486D01*
X126927208Y-62517357D01*
X127059875Y-62318807D01*
X127268807Y-62109875D01*
X127514484Y-61945718D01*
X127514486Y-61945717D01*
X127787467Y-61832644D01*
X128077263Y-61775001D01*
X128372739Y-61775001D01*
X128662535Y-61832644D01*
X128662535Y-61832644D01*
G37*
G36*
X147712535Y-61832644D02*
G01*
X147985516Y-61945717D01*
X147985518Y-61945718D01*
X148231195Y-62109875D01*
X148440127Y-62318807D01*
X148572795Y-62517357D01*
X148604285Y-62564486D01*
X148717358Y-62837467D01*
X148775001Y-63127263D01*
X148775001Y-63422739D01*
X148717358Y-63712535D01*
X148604285Y-63985516D01*
X148604284Y-63985518D01*
X148440127Y-64231195D01*
X148231195Y-64440127D01*
X147985518Y-64604284D01*
X147985517Y-64604285D01*
X147985516Y-64604285D01*
X147712535Y-64717358D01*
X147422739Y-64775001D01*
X147127263Y-64775001D01*
X146837467Y-64717358D01*
X146564486Y-64604285D01*
X146564485Y-64604285D01*
X146564484Y-64604284D01*
X146318807Y-64440127D01*
X146109875Y-64231195D01*
X145945718Y-63985518D01*
X145945717Y-63985516D01*
X145832644Y-63712535D01*
X145775001Y-63422739D01*
X145775001Y-63127263D01*
X145832644Y-62837467D01*
X145945717Y-62564486D01*
X145977208Y-62517357D01*
X146109875Y-62318807D01*
X146318807Y-62109875D01*
X146564484Y-61945718D01*
X146564486Y-61945717D01*
X146837467Y-61832644D01*
X147127263Y-61775001D01*
X147422739Y-61775001D01*
X147712535Y-61832644D01*
X147712535Y-61832644D01*
G37*
G36*
X74825001Y-64275001D02*
G01*
X72925001Y-64275001D01*
X72925001Y-62275001D01*
X74825001Y-62275001D01*
X74825001Y-64275001D01*
X74825001Y-64275001D01*
G37*
G36*
X93875001Y-64275001D02*
G01*
X91975001Y-64275001D01*
X91975001Y-62275001D01*
X93875001Y-62275001D01*
X93875001Y-64275001D01*
X93875001Y-64275001D01*
G37*
G36*
X151025001Y-64275001D02*
G01*
X149125001Y-64275001D01*
X149125001Y-62275001D01*
X151025001Y-62275001D01*
X151025001Y-64275001D01*
X151025001Y-64275001D01*
G37*
G36*
X131975001Y-64275001D02*
G01*
X130075001Y-64275001D01*
X130075001Y-62275001D01*
X131975001Y-62275001D01*
X131975001Y-64275001D01*
X131975001Y-64275001D01*
G37*
G36*
X112925001Y-64275001D02*
G01*
X111025001Y-64275001D01*
X111025001Y-62275001D01*
X112925001Y-62275001D01*
X112925001Y-64275001D01*
X112925001Y-64275001D01*
G37*
G36*
X104612535Y-59632644D02*
G01*
X104885516Y-59745717D01*
X104885518Y-59745718D01*
X105009191Y-59828354D01*
X105131194Y-59909874D01*
X105340128Y-60118808D01*
X105504285Y-60364486D01*
X105617358Y-60637467D01*
X105675001Y-60927263D01*
X105675001Y-61222739D01*
X105617358Y-61512535D01*
X105508640Y-61775001D01*
X105504284Y-61785518D01*
X105340127Y-62031195D01*
X105131195Y-62240127D01*
X104885518Y-62404284D01*
X104885517Y-62404285D01*
X104885516Y-62404285D01*
X104612535Y-62517358D01*
X104322739Y-62575001D01*
X104027263Y-62575001D01*
X103737467Y-62517358D01*
X103464486Y-62404285D01*
X103464485Y-62404285D01*
X103464484Y-62404284D01*
X103218807Y-62240127D01*
X103009875Y-62031195D01*
X102845718Y-61785518D01*
X102841362Y-61775001D01*
X102732644Y-61512535D01*
X102675001Y-61222739D01*
X102675001Y-60927263D01*
X102732644Y-60637467D01*
X102845717Y-60364486D01*
X103009874Y-60118808D01*
X103218808Y-59909874D01*
X103340811Y-59828354D01*
X103464484Y-59745718D01*
X103464486Y-59745717D01*
X103737467Y-59632644D01*
X104027263Y-59575001D01*
X104322739Y-59575001D01*
X104612535Y-59632644D01*
X104612535Y-59632644D01*
G37*
G36*
X85562535Y-59632644D02*
G01*
X85835516Y-59745717D01*
X85835518Y-59745718D01*
X85959191Y-59828354D01*
X86081194Y-59909874D01*
X86290128Y-60118808D01*
X86454285Y-60364486D01*
X86567358Y-60637467D01*
X86625001Y-60927263D01*
X86625001Y-61222739D01*
X86567358Y-61512535D01*
X86458640Y-61775001D01*
X86454284Y-61785518D01*
X86290127Y-62031195D01*
X86081195Y-62240127D01*
X85835518Y-62404284D01*
X85835517Y-62404285D01*
X85835516Y-62404285D01*
X85562535Y-62517358D01*
X85272739Y-62575001D01*
X84977263Y-62575001D01*
X84687467Y-62517358D01*
X84414486Y-62404285D01*
X84414485Y-62404285D01*
X84414484Y-62404284D01*
X84168807Y-62240127D01*
X83959875Y-62031195D01*
X83795718Y-61785518D01*
X83791362Y-61775001D01*
X83682644Y-61512535D01*
X83625001Y-61222739D01*
X83625001Y-60927263D01*
X83682644Y-60637467D01*
X83795717Y-60364486D01*
X83959874Y-60118808D01*
X84168808Y-59909874D01*
X84290811Y-59828354D01*
X84414484Y-59745718D01*
X84414486Y-59745717D01*
X84687467Y-59632644D01*
X84977263Y-59575001D01*
X85272739Y-59575001D01*
X85562535Y-59632644D01*
X85562535Y-59632644D01*
G37*
G36*
X66512535Y-59632644D02*
G01*
X66785516Y-59745717D01*
X66785518Y-59745718D01*
X66909191Y-59828354D01*
X67031194Y-59909874D01*
X67240128Y-60118808D01*
X67404285Y-60364486D01*
X67517358Y-60637467D01*
X67575001Y-60927263D01*
X67575001Y-61222739D01*
X67517358Y-61512535D01*
X67408640Y-61775001D01*
X67404284Y-61785518D01*
X67240127Y-62031195D01*
X67031195Y-62240127D01*
X66785518Y-62404284D01*
X66785517Y-62404285D01*
X66785516Y-62404285D01*
X66512535Y-62517358D01*
X66222739Y-62575001D01*
X65927263Y-62575001D01*
X65637467Y-62517358D01*
X65364486Y-62404285D01*
X65364485Y-62404285D01*
X65364484Y-62404284D01*
X65118807Y-62240127D01*
X64909875Y-62031195D01*
X64745718Y-61785518D01*
X64741362Y-61775001D01*
X64632644Y-61512535D01*
X64575001Y-61222739D01*
X64575001Y-60927263D01*
X64632644Y-60637467D01*
X64745717Y-60364486D01*
X64909874Y-60118808D01*
X65118808Y-59909874D01*
X65240811Y-59828354D01*
X65364484Y-59745718D01*
X65364486Y-59745717D01*
X65637467Y-59632644D01*
X65927263Y-59575001D01*
X66222739Y-59575001D01*
X66512535Y-59632644D01*
X66512535Y-59632644D01*
G37*
G36*
X123662535Y-59632644D02*
G01*
X123935516Y-59745717D01*
X123935518Y-59745718D01*
X124059191Y-59828354D01*
X124181194Y-59909874D01*
X124390128Y-60118808D01*
X124554285Y-60364486D01*
X124667358Y-60637467D01*
X124725001Y-60927263D01*
X124725001Y-61222739D01*
X124667358Y-61512535D01*
X124558640Y-61775001D01*
X124554284Y-61785518D01*
X124390127Y-62031195D01*
X124181195Y-62240127D01*
X123935518Y-62404284D01*
X123935517Y-62404285D01*
X123935516Y-62404285D01*
X123662535Y-62517358D01*
X123372739Y-62575001D01*
X123077263Y-62575001D01*
X122787467Y-62517358D01*
X122514486Y-62404285D01*
X122514485Y-62404285D01*
X122514484Y-62404284D01*
X122268807Y-62240127D01*
X122059875Y-62031195D01*
X121895718Y-61785518D01*
X121891362Y-61775001D01*
X121782644Y-61512535D01*
X121725001Y-61222739D01*
X121725001Y-60927263D01*
X121782644Y-60637467D01*
X121895717Y-60364486D01*
X122059874Y-60118808D01*
X122268808Y-59909874D01*
X122390811Y-59828354D01*
X122514484Y-59745718D01*
X122514486Y-59745717D01*
X122787467Y-59632644D01*
X123077263Y-59575001D01*
X123372739Y-59575001D01*
X123662535Y-59632644D01*
X123662535Y-59632644D01*
G37*
G36*
X142712535Y-59632644D02*
G01*
X142985516Y-59745717D01*
X142985518Y-59745718D01*
X143109191Y-59828354D01*
X143231194Y-59909874D01*
X143440128Y-60118808D01*
X143604285Y-60364486D01*
X143717358Y-60637467D01*
X143775001Y-60927263D01*
X143775001Y-61222739D01*
X143717358Y-61512535D01*
X143608640Y-61775001D01*
X143604284Y-61785518D01*
X143440127Y-62031195D01*
X143231195Y-62240127D01*
X142985518Y-62404284D01*
X142985517Y-62404285D01*
X142985516Y-62404285D01*
X142712535Y-62517358D01*
X142422739Y-62575001D01*
X142127263Y-62575001D01*
X141837467Y-62517358D01*
X141564486Y-62404285D01*
X141564485Y-62404285D01*
X141564484Y-62404284D01*
X141318807Y-62240127D01*
X141109875Y-62031195D01*
X140945718Y-61785518D01*
X140941362Y-61775001D01*
X140832644Y-61512535D01*
X140775001Y-61222739D01*
X140775001Y-60927263D01*
X140832644Y-60637467D01*
X140945717Y-60364486D01*
X141109874Y-60118808D01*
X141318808Y-59909874D01*
X141440811Y-59828354D01*
X141564484Y-59745718D01*
X141564486Y-59745717D01*
X141837467Y-59632644D01*
X142127263Y-59575001D01*
X142422739Y-59575001D01*
X142712535Y-59632644D01*
X142712535Y-59632644D01*
G37*
G36*
X102075001Y-62075001D02*
G01*
X100075001Y-62075001D01*
X100075001Y-60075001D01*
X102075001Y-60075001D01*
X102075001Y-62075001D01*
X102075001Y-62075001D01*
G37*
G36*
X121125001Y-62075001D02*
G01*
X119125001Y-62075001D01*
X119125001Y-60075001D01*
X121125001Y-60075001D01*
X121125001Y-62075001D01*
X121125001Y-62075001D01*
G37*
G36*
X83025001Y-62075001D02*
G01*
X81025001Y-62075001D01*
X81025001Y-60075001D01*
X83025001Y-60075001D01*
X83025001Y-62075001D01*
X83025001Y-62075001D01*
G37*
G36*
X63975001Y-62075001D02*
G01*
X61975001Y-62075001D01*
X61975001Y-60075001D01*
X63975001Y-60075001D01*
X63975001Y-62075001D01*
X63975001Y-62075001D01*
G37*
G36*
X140175001Y-62075001D02*
G01*
X138175001Y-62075001D01*
X138175001Y-60075001D01*
X140175001Y-60075001D01*
X140175001Y-62075001D01*
X140175001Y-62075001D01*
G37*
G36*
X90708378Y-55451859D02*
G01*
X91072354Y-55602623D01*
X91072356Y-55602624D01*
X91237252Y-55712804D01*
X91354573Y-55791195D01*
X91399927Y-55821500D01*
X91678502Y-56100075D01*
X91895611Y-56425001D01*
X91897379Y-56427648D01*
X92048143Y-56791624D01*
X92125001Y-57178017D01*
X92125001Y-57571985D01*
X92048143Y-57958378D01*
X91924477Y-58256933D01*
X91897378Y-58322356D01*
X91678502Y-58649927D01*
X91399927Y-58928502D01*
X91072356Y-59147378D01*
X91072355Y-59147379D01*
X91072354Y-59147379D01*
X90708378Y-59298143D01*
X90321985Y-59375001D01*
X89928017Y-59375001D01*
X89541624Y-59298143D01*
X89177648Y-59147379D01*
X89177647Y-59147379D01*
X89177646Y-59147378D01*
X88850075Y-58928502D01*
X88571500Y-58649927D01*
X88352624Y-58322356D01*
X88325525Y-58256933D01*
X88201859Y-57958378D01*
X88125001Y-57571985D01*
X88125001Y-57178017D01*
X88201859Y-56791624D01*
X88352623Y-56427648D01*
X88354392Y-56425001D01*
X88571500Y-56100075D01*
X88850075Y-55821500D01*
X88895430Y-55791195D01*
X89012750Y-55712804D01*
X89177646Y-55602624D01*
X89177648Y-55602623D01*
X89541624Y-55451859D01*
X89928017Y-55375001D01*
X90321985Y-55375001D01*
X90708378Y-55451859D01*
X90708378Y-55451859D01*
G37*
G36*
X71658378Y-55451859D02*
G01*
X72022354Y-55602623D01*
X72022356Y-55602624D01*
X72187252Y-55712804D01*
X72304573Y-55791195D01*
X72349927Y-55821500D01*
X72628502Y-56100075D01*
X72845611Y-56425001D01*
X72847379Y-56427648D01*
X72998143Y-56791624D01*
X73075001Y-57178017D01*
X73075001Y-57571985D01*
X72998143Y-57958378D01*
X72874477Y-58256933D01*
X72847378Y-58322356D01*
X72628502Y-58649927D01*
X72349927Y-58928502D01*
X72022356Y-59147378D01*
X72022355Y-59147379D01*
X72022354Y-59147379D01*
X71658378Y-59298143D01*
X71271985Y-59375001D01*
X70878017Y-59375001D01*
X70491624Y-59298143D01*
X70127648Y-59147379D01*
X70127647Y-59147379D01*
X70127646Y-59147378D01*
X69800075Y-58928502D01*
X69521500Y-58649927D01*
X69302624Y-58322356D01*
X69275525Y-58256933D01*
X69151859Y-57958378D01*
X69075001Y-57571985D01*
X69075001Y-57178017D01*
X69151859Y-56791624D01*
X69302623Y-56427648D01*
X69304392Y-56425001D01*
X69521500Y-56100075D01*
X69800075Y-55821500D01*
X69845430Y-55791195D01*
X69962750Y-55712804D01*
X70127646Y-55602624D01*
X70127648Y-55602623D01*
X70491624Y-55451859D01*
X70878017Y-55375001D01*
X71271985Y-55375001D01*
X71658378Y-55451859D01*
X71658378Y-55451859D01*
G37*
G36*
X109758378Y-55451859D02*
G01*
X110122354Y-55602623D01*
X110122356Y-55602624D01*
X110287252Y-55712804D01*
X110404573Y-55791195D01*
X110449927Y-55821500D01*
X110728502Y-56100075D01*
X110945611Y-56425001D01*
X110947379Y-56427648D01*
X111098143Y-56791624D01*
X111175001Y-57178017D01*
X111175001Y-57571985D01*
X111098143Y-57958378D01*
X110974477Y-58256933D01*
X110947378Y-58322356D01*
X110728502Y-58649927D01*
X110449927Y-58928502D01*
X110122356Y-59147378D01*
X110122355Y-59147379D01*
X110122354Y-59147379D01*
X109758378Y-59298143D01*
X109371985Y-59375001D01*
X108978017Y-59375001D01*
X108591624Y-59298143D01*
X108227648Y-59147379D01*
X108227647Y-59147379D01*
X108227646Y-59147378D01*
X107900075Y-58928502D01*
X107621500Y-58649927D01*
X107402624Y-58322356D01*
X107375525Y-58256933D01*
X107251859Y-57958378D01*
X107175001Y-57571985D01*
X107175001Y-57178017D01*
X107251859Y-56791624D01*
X107402623Y-56427648D01*
X107404392Y-56425001D01*
X107621500Y-56100075D01*
X107900075Y-55821500D01*
X107945430Y-55791195D01*
X108062750Y-55712804D01*
X108227646Y-55602624D01*
X108227648Y-55602623D01*
X108591624Y-55451859D01*
X108978017Y-55375001D01*
X109371985Y-55375001D01*
X109758378Y-55451859D01*
X109758378Y-55451859D01*
G37*
G36*
X128808378Y-55451859D02*
G01*
X129172354Y-55602623D01*
X129172356Y-55602624D01*
X129337252Y-55712804D01*
X129454573Y-55791195D01*
X129499927Y-55821500D01*
X129778502Y-56100075D01*
X129995611Y-56425001D01*
X129997379Y-56427648D01*
X130148143Y-56791624D01*
X130225001Y-57178017D01*
X130225001Y-57571985D01*
X130148143Y-57958378D01*
X130024477Y-58256933D01*
X129997378Y-58322356D01*
X129778502Y-58649927D01*
X129499927Y-58928502D01*
X129172356Y-59147378D01*
X129172355Y-59147379D01*
X129172354Y-59147379D01*
X128808378Y-59298143D01*
X128421985Y-59375001D01*
X128028017Y-59375001D01*
X127641624Y-59298143D01*
X127277648Y-59147379D01*
X127277647Y-59147379D01*
X127277646Y-59147378D01*
X126950075Y-58928502D01*
X126671500Y-58649927D01*
X126452624Y-58322356D01*
X126425525Y-58256933D01*
X126301859Y-57958378D01*
X126225001Y-57571985D01*
X126225001Y-57178017D01*
X126301859Y-56791624D01*
X126452623Y-56427648D01*
X126454392Y-56425001D01*
X126671500Y-56100075D01*
X126950075Y-55821500D01*
X126995430Y-55791195D01*
X127112750Y-55712804D01*
X127277646Y-55602624D01*
X127277648Y-55602623D01*
X127641624Y-55451859D01*
X128028017Y-55375001D01*
X128421985Y-55375001D01*
X128808378Y-55451859D01*
X128808378Y-55451859D01*
G37*
G36*
X147858378Y-55451859D02*
G01*
X148222354Y-55602623D01*
X148222356Y-55602624D01*
X148387252Y-55712804D01*
X148504573Y-55791195D01*
X148549927Y-55821500D01*
X148828502Y-56100075D01*
X149045611Y-56425001D01*
X149047379Y-56427648D01*
X149198143Y-56791624D01*
X149275001Y-57178017D01*
X149275001Y-57571985D01*
X149198143Y-57958378D01*
X149074477Y-58256933D01*
X149047378Y-58322356D01*
X148828502Y-58649927D01*
X148549927Y-58928502D01*
X148222356Y-59147378D01*
X148222355Y-59147379D01*
X148222354Y-59147379D01*
X147858378Y-59298143D01*
X147471985Y-59375001D01*
X147078017Y-59375001D01*
X146691624Y-59298143D01*
X146327648Y-59147379D01*
X146327647Y-59147379D01*
X146327646Y-59147378D01*
X146000075Y-58928502D01*
X145721500Y-58649927D01*
X145502624Y-58322356D01*
X145475525Y-58256933D01*
X145351859Y-57958378D01*
X145275001Y-57571985D01*
X145275001Y-57178017D01*
X145351859Y-56791624D01*
X145502623Y-56427648D01*
X145504392Y-56425001D01*
X145721500Y-56100075D01*
X146000075Y-55821500D01*
X146045430Y-55791195D01*
X146162750Y-55712804D01*
X146327646Y-55602624D01*
X146327648Y-55602623D01*
X146691624Y-55451859D01*
X147078017Y-55375001D01*
X147471985Y-55375001D01*
X147858378Y-55451859D01*
X147858378Y-55451859D01*
G37*
G36*
X85023542Y-56427648D02*
G01*
X85136233Y-56438747D01*
X85225771Y-56465908D01*
X85315310Y-56493069D01*
X85403524Y-56540221D01*
X85480346Y-56581283D01*
X85480348Y-56581284D01*
X85480347Y-56581284D01*
X85625003Y-56699999D01*
X85743718Y-56844655D01*
X85831933Y-57009692D01*
X85831933Y-57009693D01*
X85886255Y-57188769D01*
X85904597Y-57375001D01*
X85886255Y-57561233D01*
X85882993Y-57571985D01*
X85831933Y-57740310D01*
X85743718Y-57905347D01*
X85625003Y-58050003D01*
X85493316Y-58158074D01*
X85480346Y-58168719D01*
X85403524Y-58209781D01*
X85315310Y-58256933D01*
X85225771Y-58284094D01*
X85136233Y-58311255D01*
X85066449Y-58318128D01*
X84996667Y-58325001D01*
X84583335Y-58325001D01*
X84513553Y-58318128D01*
X84443769Y-58311255D01*
X84354231Y-58284094D01*
X84264692Y-58256933D01*
X84176478Y-58209781D01*
X84099656Y-58168719D01*
X84086685Y-58158074D01*
X83954999Y-58050003D01*
X83836284Y-57905347D01*
X83748069Y-57740310D01*
X83697009Y-57571985D01*
X83693747Y-57561233D01*
X83675405Y-57375001D01*
X83693747Y-57188769D01*
X83748069Y-57009693D01*
X83748069Y-57009692D01*
X83836284Y-56844655D01*
X83954999Y-56699999D01*
X84099655Y-56581284D01*
X84099654Y-56581284D01*
X84099656Y-56581283D01*
X84176478Y-56540221D01*
X84264692Y-56493069D01*
X84354231Y-56465908D01*
X84443769Y-56438747D01*
X84556460Y-56427648D01*
X84583335Y-56425001D01*
X84996667Y-56425001D01*
X85023542Y-56427648D01*
X85023542Y-56427648D01*
G37*
G36*
X76643542Y-56427648D02*
G01*
X76756233Y-56438747D01*
X76845771Y-56465908D01*
X76935310Y-56493069D01*
X77023524Y-56540221D01*
X77100346Y-56581283D01*
X77100348Y-56581284D01*
X77100347Y-56581284D01*
X77245003Y-56699999D01*
X77363718Y-56844655D01*
X77451933Y-57009692D01*
X77451933Y-57009693D01*
X77506255Y-57188769D01*
X77524597Y-57375001D01*
X77506255Y-57561233D01*
X77502993Y-57571985D01*
X77451933Y-57740310D01*
X77363718Y-57905347D01*
X77245003Y-58050003D01*
X77113316Y-58158074D01*
X77100346Y-58168719D01*
X77023524Y-58209781D01*
X76935310Y-58256933D01*
X76845771Y-58284094D01*
X76756233Y-58311255D01*
X76686449Y-58318128D01*
X76616667Y-58325001D01*
X76203335Y-58325001D01*
X76133553Y-58318128D01*
X76063769Y-58311255D01*
X75974231Y-58284094D01*
X75884692Y-58256933D01*
X75796478Y-58209781D01*
X75719656Y-58168719D01*
X75706685Y-58158074D01*
X75574999Y-58050003D01*
X75456284Y-57905347D01*
X75368069Y-57740310D01*
X75317009Y-57571985D01*
X75313747Y-57561233D01*
X75295405Y-57375001D01*
X75313747Y-57188769D01*
X75368069Y-57009693D01*
X75368069Y-57009692D01*
X75456284Y-56844655D01*
X75574999Y-56699999D01*
X75719655Y-56581284D01*
X75719654Y-56581284D01*
X75719656Y-56581283D01*
X75796478Y-56540221D01*
X75884692Y-56493069D01*
X75974231Y-56465908D01*
X76063769Y-56438747D01*
X76176460Y-56427648D01*
X76203335Y-56425001D01*
X76616667Y-56425001D01*
X76643542Y-56427648D01*
X76643542Y-56427648D01*
G37*
G36*
X95693542Y-56427648D02*
G01*
X95806233Y-56438747D01*
X95895771Y-56465908D01*
X95985310Y-56493069D01*
X96073524Y-56540221D01*
X96150346Y-56581283D01*
X96150348Y-56581284D01*
X96150347Y-56581284D01*
X96295003Y-56699999D01*
X96413718Y-56844655D01*
X96501933Y-57009692D01*
X96501933Y-57009693D01*
X96556255Y-57188769D01*
X96574597Y-57375001D01*
X96556255Y-57561233D01*
X96552993Y-57571985D01*
X96501933Y-57740310D01*
X96413718Y-57905347D01*
X96295003Y-58050003D01*
X96163316Y-58158074D01*
X96150346Y-58168719D01*
X96073524Y-58209781D01*
X95985310Y-58256933D01*
X95895771Y-58284094D01*
X95806233Y-58311255D01*
X95736449Y-58318128D01*
X95666667Y-58325001D01*
X95253335Y-58325001D01*
X95183553Y-58318128D01*
X95113769Y-58311255D01*
X95024231Y-58284094D01*
X94934692Y-58256933D01*
X94846478Y-58209781D01*
X94769656Y-58168719D01*
X94756685Y-58158074D01*
X94624999Y-58050003D01*
X94506284Y-57905347D01*
X94418069Y-57740310D01*
X94367009Y-57571985D01*
X94363747Y-57561233D01*
X94345405Y-57375001D01*
X94363747Y-57188769D01*
X94418069Y-57009693D01*
X94418069Y-57009692D01*
X94506284Y-56844655D01*
X94624999Y-56699999D01*
X94769655Y-56581284D01*
X94769654Y-56581284D01*
X94769656Y-56581283D01*
X94846478Y-56540221D01*
X94934692Y-56493069D01*
X95024231Y-56465908D01*
X95113769Y-56438747D01*
X95226460Y-56427648D01*
X95253335Y-56425001D01*
X95666667Y-56425001D01*
X95693542Y-56427648D01*
X95693542Y-56427648D01*
G37*
G36*
X104073542Y-56427648D02*
G01*
X104186233Y-56438747D01*
X104275771Y-56465908D01*
X104365310Y-56493069D01*
X104453524Y-56540221D01*
X104530346Y-56581283D01*
X104530348Y-56581284D01*
X104530347Y-56581284D01*
X104675003Y-56699999D01*
X104793718Y-56844655D01*
X104881933Y-57009692D01*
X104881933Y-57009693D01*
X104936255Y-57188769D01*
X104954597Y-57375001D01*
X104936255Y-57561233D01*
X104932993Y-57571985D01*
X104881933Y-57740310D01*
X104793718Y-57905347D01*
X104675003Y-58050003D01*
X104543316Y-58158074D01*
X104530346Y-58168719D01*
X104453524Y-58209781D01*
X104365310Y-58256933D01*
X104275771Y-58284094D01*
X104186233Y-58311255D01*
X104116449Y-58318128D01*
X104046667Y-58325001D01*
X103633335Y-58325001D01*
X103563553Y-58318128D01*
X103493769Y-58311255D01*
X103404231Y-58284094D01*
X103314692Y-58256933D01*
X103226478Y-58209781D01*
X103149656Y-58168719D01*
X103136685Y-58158074D01*
X103004999Y-58050003D01*
X102886284Y-57905347D01*
X102798069Y-57740310D01*
X102747009Y-57571985D01*
X102743747Y-57561233D01*
X102725405Y-57375001D01*
X102743747Y-57188769D01*
X102798069Y-57009693D01*
X102798069Y-57009692D01*
X102886284Y-56844655D01*
X103004999Y-56699999D01*
X103149655Y-56581284D01*
X103149654Y-56581284D01*
X103149656Y-56581283D01*
X103226478Y-56540221D01*
X103314692Y-56493069D01*
X103404231Y-56465908D01*
X103493769Y-56438747D01*
X103606460Y-56427648D01*
X103633335Y-56425001D01*
X104046667Y-56425001D01*
X104073542Y-56427648D01*
X104073542Y-56427648D01*
G37*
G36*
X114743542Y-56427648D02*
G01*
X114856233Y-56438747D01*
X114945771Y-56465908D01*
X115035310Y-56493069D01*
X115123524Y-56540221D01*
X115200346Y-56581283D01*
X115200348Y-56581284D01*
X115200347Y-56581284D01*
X115345003Y-56699999D01*
X115463718Y-56844655D01*
X115551933Y-57009692D01*
X115551933Y-57009693D01*
X115606255Y-57188769D01*
X115624597Y-57375001D01*
X115606255Y-57561233D01*
X115602993Y-57571985D01*
X115551933Y-57740310D01*
X115463718Y-57905347D01*
X115345003Y-58050003D01*
X115213316Y-58158074D01*
X115200346Y-58168719D01*
X115123524Y-58209781D01*
X115035310Y-58256933D01*
X114945771Y-58284094D01*
X114856233Y-58311255D01*
X114786449Y-58318128D01*
X114716667Y-58325001D01*
X114303335Y-58325001D01*
X114233553Y-58318128D01*
X114163769Y-58311255D01*
X114074231Y-58284094D01*
X113984692Y-58256933D01*
X113896478Y-58209781D01*
X113819656Y-58168719D01*
X113806685Y-58158074D01*
X113674999Y-58050003D01*
X113556284Y-57905347D01*
X113468069Y-57740310D01*
X113417009Y-57571985D01*
X113413747Y-57561233D01*
X113395405Y-57375001D01*
X113413747Y-57188769D01*
X113468069Y-57009693D01*
X113468069Y-57009692D01*
X113556284Y-56844655D01*
X113674999Y-56699999D01*
X113819655Y-56581284D01*
X113819654Y-56581284D01*
X113819656Y-56581283D01*
X113896478Y-56540221D01*
X113984692Y-56493069D01*
X114074231Y-56465908D01*
X114163769Y-56438747D01*
X114276460Y-56427648D01*
X114303335Y-56425001D01*
X114716667Y-56425001D01*
X114743542Y-56427648D01*
X114743542Y-56427648D01*
G37*
G36*
X65973542Y-56427648D02*
G01*
X66086233Y-56438747D01*
X66175771Y-56465908D01*
X66265310Y-56493069D01*
X66353524Y-56540221D01*
X66430346Y-56581283D01*
X66430348Y-56581284D01*
X66430347Y-56581284D01*
X66575003Y-56699999D01*
X66693718Y-56844655D01*
X66781933Y-57009692D01*
X66781933Y-57009693D01*
X66836255Y-57188769D01*
X66854597Y-57375001D01*
X66836255Y-57561233D01*
X66832993Y-57571985D01*
X66781933Y-57740310D01*
X66693718Y-57905347D01*
X66575003Y-58050003D01*
X66443316Y-58158074D01*
X66430346Y-58168719D01*
X66353524Y-58209781D01*
X66265310Y-58256933D01*
X66175771Y-58284094D01*
X66086233Y-58311255D01*
X66016449Y-58318128D01*
X65946667Y-58325001D01*
X65533335Y-58325001D01*
X65463553Y-58318128D01*
X65393769Y-58311255D01*
X65304231Y-58284094D01*
X65214692Y-58256933D01*
X65126478Y-58209781D01*
X65049656Y-58168719D01*
X65036685Y-58158074D01*
X64904999Y-58050003D01*
X64786284Y-57905347D01*
X64698069Y-57740310D01*
X64647009Y-57571985D01*
X64643747Y-57561233D01*
X64625405Y-57375001D01*
X64643747Y-57188769D01*
X64698069Y-57009693D01*
X64698069Y-57009692D01*
X64786284Y-56844655D01*
X64904999Y-56699999D01*
X65049655Y-56581284D01*
X65049654Y-56581284D01*
X65049656Y-56581283D01*
X65126478Y-56540221D01*
X65214692Y-56493069D01*
X65304231Y-56465908D01*
X65393769Y-56438747D01*
X65506460Y-56427648D01*
X65533335Y-56425001D01*
X65946667Y-56425001D01*
X65973542Y-56427648D01*
X65973542Y-56427648D01*
G37*
G36*
X123123542Y-56427648D02*
G01*
X123236233Y-56438747D01*
X123325771Y-56465908D01*
X123415310Y-56493069D01*
X123503524Y-56540221D01*
X123580346Y-56581283D01*
X123580348Y-56581284D01*
X123580347Y-56581284D01*
X123725003Y-56699999D01*
X123843718Y-56844655D01*
X123931933Y-57009692D01*
X123931933Y-57009693D01*
X123986255Y-57188769D01*
X124004597Y-57375001D01*
X123986255Y-57561233D01*
X123982993Y-57571985D01*
X123931933Y-57740310D01*
X123843718Y-57905347D01*
X123725003Y-58050003D01*
X123593316Y-58158074D01*
X123580346Y-58168719D01*
X123503524Y-58209781D01*
X123415310Y-58256933D01*
X123325771Y-58284094D01*
X123236233Y-58311255D01*
X123166449Y-58318128D01*
X123096667Y-58325001D01*
X122683335Y-58325001D01*
X122613553Y-58318128D01*
X122543769Y-58311255D01*
X122454231Y-58284094D01*
X122364692Y-58256933D01*
X122276478Y-58209781D01*
X122199656Y-58168719D01*
X122186685Y-58158074D01*
X122054999Y-58050003D01*
X121936284Y-57905347D01*
X121848069Y-57740310D01*
X121797009Y-57571985D01*
X121793747Y-57561233D01*
X121775405Y-57375001D01*
X121793747Y-57188769D01*
X121848069Y-57009693D01*
X121848069Y-57009692D01*
X121936284Y-56844655D01*
X122054999Y-56699999D01*
X122199655Y-56581284D01*
X122199654Y-56581284D01*
X122199656Y-56581283D01*
X122276478Y-56540221D01*
X122364692Y-56493069D01*
X122454231Y-56465908D01*
X122543769Y-56438747D01*
X122656460Y-56427648D01*
X122683335Y-56425001D01*
X123096667Y-56425001D01*
X123123542Y-56427648D01*
X123123542Y-56427648D01*
G37*
G36*
X152843542Y-56427648D02*
G01*
X152956233Y-56438747D01*
X153045771Y-56465908D01*
X153135310Y-56493069D01*
X153223524Y-56540221D01*
X153300346Y-56581283D01*
X153300348Y-56581284D01*
X153300347Y-56581284D01*
X153445003Y-56699999D01*
X153563718Y-56844655D01*
X153651933Y-57009692D01*
X153651933Y-57009693D01*
X153706255Y-57188769D01*
X153724597Y-57375001D01*
X153706255Y-57561233D01*
X153702993Y-57571985D01*
X153651933Y-57740310D01*
X153563718Y-57905347D01*
X153445003Y-58050003D01*
X153313316Y-58158074D01*
X153300346Y-58168719D01*
X153223524Y-58209781D01*
X153135310Y-58256933D01*
X153045771Y-58284094D01*
X152956233Y-58311255D01*
X152886449Y-58318128D01*
X152816667Y-58325001D01*
X152403335Y-58325001D01*
X152333553Y-58318128D01*
X152263769Y-58311255D01*
X152174231Y-58284094D01*
X152084692Y-58256933D01*
X151996478Y-58209781D01*
X151919656Y-58168719D01*
X151906685Y-58158074D01*
X151774999Y-58050003D01*
X151656284Y-57905347D01*
X151568069Y-57740310D01*
X151517009Y-57571985D01*
X151513747Y-57561233D01*
X151495405Y-57375001D01*
X151513747Y-57188769D01*
X151568069Y-57009693D01*
X151568069Y-57009692D01*
X151656284Y-56844655D01*
X151774999Y-56699999D01*
X151919655Y-56581284D01*
X151919654Y-56581284D01*
X151919656Y-56581283D01*
X151996478Y-56540221D01*
X152084692Y-56493069D01*
X152174231Y-56465908D01*
X152263769Y-56438747D01*
X152376460Y-56427648D01*
X152403335Y-56425001D01*
X152816667Y-56425001D01*
X152843542Y-56427648D01*
X152843542Y-56427648D01*
G37*
G36*
X133793542Y-56427648D02*
G01*
X133906233Y-56438747D01*
X133995771Y-56465908D01*
X134085310Y-56493069D01*
X134173524Y-56540221D01*
X134250346Y-56581283D01*
X134250348Y-56581284D01*
X134250347Y-56581284D01*
X134395003Y-56699999D01*
X134513718Y-56844655D01*
X134601933Y-57009692D01*
X134601933Y-57009693D01*
X134656255Y-57188769D01*
X134674597Y-57375001D01*
X134656255Y-57561233D01*
X134652993Y-57571985D01*
X134601933Y-57740310D01*
X134513718Y-57905347D01*
X134395003Y-58050003D01*
X134263316Y-58158074D01*
X134250346Y-58168719D01*
X134173524Y-58209781D01*
X134085310Y-58256933D01*
X133995771Y-58284094D01*
X133906233Y-58311255D01*
X133836449Y-58318128D01*
X133766667Y-58325001D01*
X133353335Y-58325001D01*
X133283553Y-58318128D01*
X133213769Y-58311255D01*
X133124231Y-58284094D01*
X133034692Y-58256933D01*
X132946478Y-58209781D01*
X132869656Y-58168719D01*
X132856685Y-58158074D01*
X132724999Y-58050003D01*
X132606284Y-57905347D01*
X132518069Y-57740310D01*
X132467009Y-57571985D01*
X132463747Y-57561233D01*
X132445405Y-57375001D01*
X132463747Y-57188769D01*
X132518069Y-57009693D01*
X132518069Y-57009692D01*
X132606284Y-56844655D01*
X132724999Y-56699999D01*
X132869655Y-56581284D01*
X132869654Y-56581284D01*
X132869656Y-56581283D01*
X132946478Y-56540221D01*
X133034692Y-56493069D01*
X133124231Y-56465908D01*
X133213769Y-56438747D01*
X133326460Y-56427648D01*
X133353335Y-56425001D01*
X133766667Y-56425001D01*
X133793542Y-56427648D01*
X133793542Y-56427648D01*
G37*
G36*
X142173542Y-56427648D02*
G01*
X142286233Y-56438747D01*
X142375771Y-56465908D01*
X142465310Y-56493069D01*
X142553524Y-56540221D01*
X142630346Y-56581283D01*
X142630348Y-56581284D01*
X142630347Y-56581284D01*
X142775003Y-56699999D01*
X142893718Y-56844655D01*
X142981933Y-57009692D01*
X142981933Y-57009693D01*
X143036255Y-57188769D01*
X143054597Y-57375001D01*
X143036255Y-57561233D01*
X143032993Y-57571985D01*
X142981933Y-57740310D01*
X142893718Y-57905347D01*
X142775003Y-58050003D01*
X142643316Y-58158074D01*
X142630346Y-58168719D01*
X142553524Y-58209781D01*
X142465310Y-58256933D01*
X142375771Y-58284094D01*
X142286233Y-58311255D01*
X142216449Y-58318128D01*
X142146667Y-58325001D01*
X141733335Y-58325001D01*
X141663553Y-58318128D01*
X141593769Y-58311255D01*
X141504231Y-58284094D01*
X141414692Y-58256933D01*
X141326478Y-58209781D01*
X141249656Y-58168719D01*
X141236685Y-58158074D01*
X141104999Y-58050003D01*
X140986284Y-57905347D01*
X140898069Y-57740310D01*
X140847009Y-57571985D01*
X140843747Y-57561233D01*
X140825405Y-57375001D01*
X140843747Y-57188769D01*
X140898069Y-57009693D01*
X140898069Y-57009692D01*
X140986284Y-56844655D01*
X141104999Y-56699999D01*
X141249655Y-56581284D01*
X141249654Y-56581284D01*
X141249656Y-56581283D01*
X141326478Y-56540221D01*
X141414692Y-56493069D01*
X141504231Y-56465908D01*
X141593769Y-56438747D01*
X141706460Y-56427648D01*
X141733335Y-56425001D01*
X142146667Y-56425001D01*
X142173542Y-56427648D01*
X142173542Y-56427648D01*
G37*
G36*
X67702535Y-53392644D02*
G01*
X67975516Y-53505717D01*
X67975518Y-53505718D01*
X68099191Y-53588354D01*
X68221194Y-53669874D01*
X68430128Y-53878808D01*
X68594285Y-54124486D01*
X68707358Y-54397467D01*
X68765001Y-54687263D01*
X68765001Y-54982739D01*
X68707358Y-55272535D01*
X68594285Y-55545516D01*
X68594284Y-55545518D01*
X68430127Y-55791195D01*
X68221195Y-56000127D01*
X67975518Y-56164284D01*
X67975517Y-56164285D01*
X67975516Y-56164285D01*
X67702535Y-56277358D01*
X67412739Y-56335001D01*
X67117263Y-56335001D01*
X66827467Y-56277358D01*
X66554486Y-56164285D01*
X66554485Y-56164285D01*
X66554484Y-56164284D01*
X66308807Y-56000127D01*
X66099875Y-55791195D01*
X65935718Y-55545518D01*
X65935717Y-55545516D01*
X65822644Y-55272535D01*
X65765001Y-54982739D01*
X65765001Y-54687263D01*
X65822644Y-54397467D01*
X65935717Y-54124486D01*
X66099874Y-53878808D01*
X66308808Y-53669874D01*
X66430811Y-53588354D01*
X66554484Y-53505718D01*
X66554486Y-53505717D01*
X66827467Y-53392644D01*
X67117263Y-53335001D01*
X67412739Y-53335001D01*
X67702535Y-53392644D01*
X67702535Y-53392644D01*
G37*
G36*
X143902535Y-53392644D02*
G01*
X144175516Y-53505717D01*
X144175518Y-53505718D01*
X144299191Y-53588354D01*
X144421194Y-53669874D01*
X144630128Y-53878808D01*
X144794285Y-54124486D01*
X144907358Y-54397467D01*
X144965001Y-54687263D01*
X144965001Y-54982739D01*
X144907358Y-55272535D01*
X144794285Y-55545516D01*
X144794284Y-55545518D01*
X144630127Y-55791195D01*
X144421195Y-56000127D01*
X144175518Y-56164284D01*
X144175517Y-56164285D01*
X144175516Y-56164285D01*
X143902535Y-56277358D01*
X143612739Y-56335001D01*
X143317263Y-56335001D01*
X143027467Y-56277358D01*
X142754486Y-56164285D01*
X142754485Y-56164285D01*
X142754484Y-56164284D01*
X142508807Y-56000127D01*
X142299875Y-55791195D01*
X142135718Y-55545518D01*
X142135717Y-55545516D01*
X142022644Y-55272535D01*
X141965001Y-54982739D01*
X141965001Y-54687263D01*
X142022644Y-54397467D01*
X142135717Y-54124486D01*
X142299874Y-53878808D01*
X142508808Y-53669874D01*
X142630811Y-53588354D01*
X142754484Y-53505718D01*
X142754486Y-53505717D01*
X143027467Y-53392644D01*
X143317263Y-53335001D01*
X143612739Y-53335001D01*
X143902535Y-53392644D01*
X143902535Y-53392644D01*
G37*
G36*
X124852535Y-53392644D02*
G01*
X125125516Y-53505717D01*
X125125518Y-53505718D01*
X125249191Y-53588354D01*
X125371194Y-53669874D01*
X125580128Y-53878808D01*
X125744285Y-54124486D01*
X125857358Y-54397467D01*
X125915001Y-54687263D01*
X125915001Y-54982739D01*
X125857358Y-55272535D01*
X125744285Y-55545516D01*
X125744284Y-55545518D01*
X125580127Y-55791195D01*
X125371195Y-56000127D01*
X125125518Y-56164284D01*
X125125517Y-56164285D01*
X125125516Y-56164285D01*
X124852535Y-56277358D01*
X124562739Y-56335001D01*
X124267263Y-56335001D01*
X123977467Y-56277358D01*
X123704486Y-56164285D01*
X123704485Y-56164285D01*
X123704484Y-56164284D01*
X123458807Y-56000127D01*
X123249875Y-55791195D01*
X123085718Y-55545518D01*
X123085717Y-55545516D01*
X122972644Y-55272535D01*
X122915001Y-54982739D01*
X122915001Y-54687263D01*
X122972644Y-54397467D01*
X123085717Y-54124486D01*
X123249874Y-53878808D01*
X123458808Y-53669874D01*
X123580811Y-53588354D01*
X123704484Y-53505718D01*
X123704486Y-53505717D01*
X123977467Y-53392644D01*
X124267263Y-53335001D01*
X124562739Y-53335001D01*
X124852535Y-53392644D01*
X124852535Y-53392644D01*
G37*
G36*
X86752535Y-53392644D02*
G01*
X87025516Y-53505717D01*
X87025518Y-53505718D01*
X87149191Y-53588354D01*
X87271194Y-53669874D01*
X87480128Y-53878808D01*
X87644285Y-54124486D01*
X87757358Y-54397467D01*
X87815001Y-54687263D01*
X87815001Y-54982739D01*
X87757358Y-55272535D01*
X87644285Y-55545516D01*
X87644284Y-55545518D01*
X87480127Y-55791195D01*
X87271195Y-56000127D01*
X87025518Y-56164284D01*
X87025517Y-56164285D01*
X87025516Y-56164285D01*
X86752535Y-56277358D01*
X86462739Y-56335001D01*
X86167263Y-56335001D01*
X85877467Y-56277358D01*
X85604486Y-56164285D01*
X85604485Y-56164285D01*
X85604484Y-56164284D01*
X85358807Y-56000127D01*
X85149875Y-55791195D01*
X84985718Y-55545518D01*
X84985717Y-55545516D01*
X84872644Y-55272535D01*
X84815001Y-54982739D01*
X84815001Y-54687263D01*
X84872644Y-54397467D01*
X84985717Y-54124486D01*
X85149874Y-53878808D01*
X85358808Y-53669874D01*
X85480811Y-53588354D01*
X85604484Y-53505718D01*
X85604486Y-53505717D01*
X85877467Y-53392644D01*
X86167263Y-53335001D01*
X86462739Y-53335001D01*
X86752535Y-53392644D01*
X86752535Y-53392644D01*
G37*
G36*
X105802535Y-53392644D02*
G01*
X106075516Y-53505717D01*
X106075518Y-53505718D01*
X106199191Y-53588354D01*
X106321194Y-53669874D01*
X106530128Y-53878808D01*
X106694285Y-54124486D01*
X106807358Y-54397467D01*
X106865001Y-54687263D01*
X106865001Y-54982739D01*
X106807358Y-55272535D01*
X106694285Y-55545516D01*
X106694284Y-55545518D01*
X106530127Y-55791195D01*
X106321195Y-56000127D01*
X106075518Y-56164284D01*
X106075517Y-56164285D01*
X106075516Y-56164285D01*
X105802535Y-56277358D01*
X105512739Y-56335001D01*
X105217263Y-56335001D01*
X104927467Y-56277358D01*
X104654486Y-56164285D01*
X104654485Y-56164285D01*
X104654484Y-56164284D01*
X104408807Y-56000127D01*
X104199875Y-55791195D01*
X104035718Y-55545518D01*
X104035717Y-55545516D01*
X103922644Y-55272535D01*
X103865001Y-54982739D01*
X103865001Y-54687263D01*
X103922644Y-54397467D01*
X104035717Y-54124486D01*
X104199874Y-53878808D01*
X104408808Y-53669874D01*
X104530811Y-53588354D01*
X104654484Y-53505718D01*
X104654486Y-53505717D01*
X104927467Y-53392644D01*
X105217263Y-53335001D01*
X105512739Y-53335001D01*
X105802535Y-53392644D01*
X105802535Y-53392644D01*
G37*
G36*
X141375001Y-55835001D02*
G01*
X139375001Y-55835001D01*
X139375001Y-53835001D01*
X141375001Y-53835001D01*
X141375001Y-55835001D01*
X141375001Y-55835001D01*
G37*
G36*
X65175001Y-55835001D02*
G01*
X63175001Y-55835001D01*
X63175001Y-53835001D01*
X65175001Y-53835001D01*
X65175001Y-55835001D01*
X65175001Y-55835001D01*
G37*
G36*
X103275001Y-55835001D02*
G01*
X101275001Y-55835001D01*
X101275001Y-53835001D01*
X103275001Y-53835001D01*
X103275001Y-55835001D01*
X103275001Y-55835001D01*
G37*
G36*
X122325001Y-55835001D02*
G01*
X120325001Y-55835001D01*
X120325001Y-53835001D01*
X122325001Y-53835001D01*
X122325001Y-55835001D01*
X122325001Y-55835001D01*
G37*
G36*
X84225001Y-55835001D02*
G01*
X82225001Y-55835001D01*
X82225001Y-53835001D01*
X84225001Y-53835001D01*
X84225001Y-55835001D01*
X84225001Y-55835001D01*
G37*
G36*
X131202535Y-50852644D02*
G01*
X131475516Y-50965717D01*
X131475518Y-50965718D01*
X131599191Y-51048354D01*
X131721194Y-51129874D01*
X131930128Y-51338808D01*
X132094285Y-51584486D01*
X132207358Y-51857467D01*
X132265001Y-52147263D01*
X132265001Y-52442739D01*
X132207358Y-52732535D01*
X132094285Y-53005516D01*
X132094284Y-53005518D01*
X131930127Y-53251195D01*
X131721195Y-53460127D01*
X131475518Y-53624284D01*
X131475517Y-53624285D01*
X131475516Y-53624285D01*
X131202535Y-53737358D01*
X130912739Y-53795001D01*
X130617263Y-53795001D01*
X130327467Y-53737358D01*
X130054486Y-53624285D01*
X130054485Y-53624285D01*
X130054484Y-53624284D01*
X129808807Y-53460127D01*
X129599875Y-53251195D01*
X129435718Y-53005518D01*
X129435717Y-53005516D01*
X129322644Y-52732535D01*
X129265001Y-52442739D01*
X129265001Y-52147263D01*
X129322644Y-51857467D01*
X129435717Y-51584486D01*
X129599874Y-51338808D01*
X129808808Y-51129874D01*
X129930811Y-51048354D01*
X130054484Y-50965718D01*
X130054486Y-50965717D01*
X130327467Y-50852644D01*
X130617263Y-50795001D01*
X130912739Y-50795001D01*
X131202535Y-50852644D01*
X131202535Y-50852644D01*
G37*
G36*
X93102535Y-50852644D02*
G01*
X93375516Y-50965717D01*
X93375518Y-50965718D01*
X93499191Y-51048354D01*
X93621194Y-51129874D01*
X93830128Y-51338808D01*
X93994285Y-51584486D01*
X94107358Y-51857467D01*
X94165001Y-52147263D01*
X94165001Y-52442739D01*
X94107358Y-52732535D01*
X93994285Y-53005516D01*
X93994284Y-53005518D01*
X93830127Y-53251195D01*
X93621195Y-53460127D01*
X93375518Y-53624284D01*
X93375517Y-53624285D01*
X93375516Y-53624285D01*
X93102535Y-53737358D01*
X92812739Y-53795001D01*
X92517263Y-53795001D01*
X92227467Y-53737358D01*
X91954486Y-53624285D01*
X91954485Y-53624285D01*
X91954484Y-53624284D01*
X91708807Y-53460127D01*
X91499875Y-53251195D01*
X91335718Y-53005518D01*
X91335717Y-53005516D01*
X91222644Y-52732535D01*
X91165001Y-52442739D01*
X91165001Y-52147263D01*
X91222644Y-51857467D01*
X91335717Y-51584486D01*
X91499874Y-51338808D01*
X91708808Y-51129874D01*
X91830811Y-51048354D01*
X91954484Y-50965718D01*
X91954486Y-50965717D01*
X92227467Y-50852644D01*
X92517263Y-50795001D01*
X92812739Y-50795001D01*
X93102535Y-50852644D01*
X93102535Y-50852644D01*
G37*
G36*
X74052535Y-50852644D02*
G01*
X74325516Y-50965717D01*
X74325518Y-50965718D01*
X74449191Y-51048354D01*
X74571194Y-51129874D01*
X74780128Y-51338808D01*
X74944285Y-51584486D01*
X75057358Y-51857467D01*
X75115001Y-52147263D01*
X75115001Y-52442739D01*
X75057358Y-52732535D01*
X74944285Y-53005516D01*
X74944284Y-53005518D01*
X74780127Y-53251195D01*
X74571195Y-53460127D01*
X74325518Y-53624284D01*
X74325517Y-53624285D01*
X74325516Y-53624285D01*
X74052535Y-53737358D01*
X73762739Y-53795001D01*
X73467263Y-53795001D01*
X73177467Y-53737358D01*
X72904486Y-53624285D01*
X72904485Y-53624285D01*
X72904484Y-53624284D01*
X72658807Y-53460127D01*
X72449875Y-53251195D01*
X72285718Y-53005518D01*
X72285717Y-53005516D01*
X72172644Y-52732535D01*
X72115001Y-52442739D01*
X72115001Y-52147263D01*
X72172644Y-51857467D01*
X72285717Y-51584486D01*
X72449874Y-51338808D01*
X72658808Y-51129874D01*
X72780811Y-51048354D01*
X72904484Y-50965718D01*
X72904486Y-50965717D01*
X73177467Y-50852644D01*
X73467263Y-50795001D01*
X73762739Y-50795001D01*
X74052535Y-50852644D01*
X74052535Y-50852644D01*
G37*
G36*
X112152535Y-50852644D02*
G01*
X112425516Y-50965717D01*
X112425518Y-50965718D01*
X112549191Y-51048354D01*
X112671194Y-51129874D01*
X112880128Y-51338808D01*
X113044285Y-51584486D01*
X113157358Y-51857467D01*
X113215001Y-52147263D01*
X113215001Y-52442739D01*
X113157358Y-52732535D01*
X113044285Y-53005516D01*
X113044284Y-53005518D01*
X112880127Y-53251195D01*
X112671195Y-53460127D01*
X112425518Y-53624284D01*
X112425517Y-53624285D01*
X112425516Y-53624285D01*
X112152535Y-53737358D01*
X111862739Y-53795001D01*
X111567263Y-53795001D01*
X111277467Y-53737358D01*
X111004486Y-53624285D01*
X111004485Y-53624285D01*
X111004484Y-53624284D01*
X110758807Y-53460127D01*
X110549875Y-53251195D01*
X110385718Y-53005518D01*
X110385717Y-53005516D01*
X110272644Y-52732535D01*
X110215001Y-52442739D01*
X110215001Y-52147263D01*
X110272644Y-51857467D01*
X110385717Y-51584486D01*
X110549874Y-51338808D01*
X110758808Y-51129874D01*
X110880811Y-51048354D01*
X111004484Y-50965718D01*
X111004486Y-50965717D01*
X111277467Y-50852644D01*
X111567263Y-50795001D01*
X111862739Y-50795001D01*
X112152535Y-50852644D01*
X112152535Y-50852644D01*
G37*
G36*
X150252535Y-50852644D02*
G01*
X150525516Y-50965717D01*
X150525518Y-50965718D01*
X150649191Y-51048354D01*
X150771194Y-51129874D01*
X150980128Y-51338808D01*
X151144285Y-51584486D01*
X151257358Y-51857467D01*
X151315001Y-52147263D01*
X151315001Y-52442739D01*
X151257358Y-52732535D01*
X151144285Y-53005516D01*
X151144284Y-53005518D01*
X150980127Y-53251195D01*
X150771195Y-53460127D01*
X150525518Y-53624284D01*
X150525517Y-53624285D01*
X150525516Y-53624285D01*
X150252535Y-53737358D01*
X149962739Y-53795001D01*
X149667263Y-53795001D01*
X149377467Y-53737358D01*
X149104486Y-53624285D01*
X149104485Y-53624285D01*
X149104484Y-53624284D01*
X148858807Y-53460127D01*
X148649875Y-53251195D01*
X148485718Y-53005518D01*
X148485717Y-53005516D01*
X148372644Y-52732535D01*
X148315001Y-52442739D01*
X148315001Y-52147263D01*
X148372644Y-51857467D01*
X148485717Y-51584486D01*
X148649874Y-51338808D01*
X148858808Y-51129874D01*
X148980811Y-51048354D01*
X149104484Y-50965718D01*
X149104486Y-50965717D01*
X149377467Y-50852644D01*
X149667263Y-50795001D01*
X149962739Y-50795001D01*
X150252535Y-50852644D01*
X150252535Y-50852644D01*
G37*
G36*
X134825001Y-53295001D02*
G01*
X132825001Y-53295001D01*
X132825001Y-51295001D01*
X134825001Y-51295001D01*
X134825001Y-53295001D01*
X134825001Y-53295001D01*
G37*
G36*
X153875001Y-53295001D02*
G01*
X151875001Y-53295001D01*
X151875001Y-51295001D01*
X153875001Y-51295001D01*
X153875001Y-53295001D01*
X153875001Y-53295001D01*
G37*
G36*
X115775001Y-53295001D02*
G01*
X113775001Y-53295001D01*
X113775001Y-51295001D01*
X115775001Y-51295001D01*
X115775001Y-53295001D01*
X115775001Y-53295001D01*
G37*
G36*
X96725001Y-53295001D02*
G01*
X94725001Y-53295001D01*
X94725001Y-51295001D01*
X96725001Y-51295001D01*
X96725001Y-53295001D01*
X96725001Y-53295001D01*
G37*
G36*
X77675001Y-53295001D02*
G01*
X75675001Y-53295001D01*
X75675001Y-51295001D01*
X77675001Y-51295001D01*
X77675001Y-53295001D01*
X77675001Y-53295001D01*
G37*
G36*
X61655013Y-44798057D02*
G01*
X61764206Y-44843286D01*
X61862477Y-44908949D01*
X61946051Y-44992523D01*
X62011714Y-45090794D01*
X62056943Y-45199987D01*
X62080000Y-45315904D01*
X62080000Y-45434096D01*
X62056943Y-45550013D01*
X62011714Y-45659206D01*
X61946051Y-45757477D01*
X61862477Y-45841051D01*
X61764206Y-45906714D01*
X61655013Y-45951943D01*
X61539096Y-45975000D01*
X61420904Y-45975000D01*
X61304987Y-45951943D01*
X61195794Y-45906714D01*
X61097523Y-45841051D01*
X61013949Y-45757477D01*
X60948286Y-45659206D01*
X60903057Y-45550013D01*
X60880000Y-45434096D01*
X60880000Y-45315904D01*
X60903057Y-45199987D01*
X60948286Y-45090794D01*
X61013949Y-44992523D01*
X61097523Y-44908949D01*
X61195794Y-44843286D01*
X61304987Y-44798057D01*
X61420904Y-44775000D01*
X61539096Y-44775000D01*
X61655013Y-44798057D01*
X61655013Y-44798057D01*
G37*
G36*
X68655013Y-44798057D02*
G01*
X68764206Y-44843286D01*
X68862477Y-44908949D01*
X68946051Y-44992523D01*
X69011714Y-45090794D01*
X69056943Y-45199987D01*
X69080000Y-45315904D01*
X69080000Y-45434096D01*
X69056943Y-45550013D01*
X69011714Y-45659206D01*
X68946051Y-45757477D01*
X68862477Y-45841051D01*
X68764206Y-45906714D01*
X68655013Y-45951943D01*
X68539096Y-45975000D01*
X68420904Y-45975000D01*
X68304987Y-45951943D01*
X68195794Y-45906714D01*
X68097523Y-45841051D01*
X68013949Y-45757477D01*
X67948286Y-45659206D01*
X67903057Y-45550013D01*
X67880000Y-45434096D01*
X67880000Y-45315904D01*
X67903057Y-45199987D01*
X67948286Y-45090794D01*
X68013949Y-44992523D01*
X68097523Y-44908949D01*
X68195794Y-44843286D01*
X68304987Y-44798057D01*
X68420904Y-44775000D01*
X68539096Y-44775000D01*
X68655013Y-44798057D01*
X68655013Y-44798057D01*
G37*
G36*
X149700013Y-44798057D02*
G01*
X149809206Y-44843286D01*
X149907477Y-44908949D01*
X149991051Y-44992523D01*
X150056714Y-45090794D01*
X150101943Y-45199987D01*
X150125000Y-45315904D01*
X150125000Y-45434096D01*
X150101943Y-45550013D01*
X150056714Y-45659206D01*
X149991051Y-45757477D01*
X149907477Y-45841051D01*
X149809206Y-45906714D01*
X149700013Y-45951943D01*
X149584096Y-45975000D01*
X149465904Y-45975000D01*
X149349987Y-45951943D01*
X149240794Y-45906714D01*
X149142523Y-45841051D01*
X149058949Y-45757477D01*
X148993286Y-45659206D01*
X148948057Y-45550013D01*
X148925000Y-45434096D01*
X148925000Y-45315904D01*
X148948057Y-45199987D01*
X148993286Y-45090794D01*
X149058949Y-44992523D01*
X149142523Y-44908949D01*
X149240794Y-44843286D01*
X149349987Y-44798057D01*
X149465904Y-44775000D01*
X149584096Y-44775000D01*
X149700013Y-44798057D01*
X149700013Y-44798057D01*
G37*
G36*
X156700013Y-44798057D02*
G01*
X156809206Y-44843286D01*
X156907477Y-44908949D01*
X156991051Y-44992523D01*
X157056714Y-45090794D01*
X157101943Y-45199987D01*
X157125000Y-45315904D01*
X157125000Y-45434096D01*
X157101943Y-45550013D01*
X157056714Y-45659206D01*
X156991051Y-45757477D01*
X156907477Y-45841051D01*
X156809206Y-45906714D01*
X156700013Y-45951943D01*
X156584096Y-45975000D01*
X156465904Y-45975000D01*
X156349987Y-45951943D01*
X156240794Y-45906714D01*
X156142523Y-45841051D01*
X156058949Y-45757477D01*
X155993286Y-45659206D01*
X155948057Y-45550013D01*
X155925000Y-45434096D01*
X155925000Y-45315904D01*
X155948057Y-45199987D01*
X155993286Y-45090794D01*
X156058949Y-44992523D01*
X156142523Y-44908949D01*
X156240794Y-44843286D01*
X156349987Y-44798057D01*
X156465904Y-44775000D01*
X156584096Y-44775000D01*
X156700013Y-44798057D01*
X156700013Y-44798057D01*
G37*
M02*
