G04 #@! TF.GenerationSoftware,KiCad,Pcbnew,(5.1.0)-1*
G04 #@! TF.CreationDate,2019-04-24T01:44:35+09:00*
G04 #@! TF.ProjectId,mithumboard,6d697468-756d-4626-9f61-72642e6b6963,rev?*
G04 #@! TF.SameCoordinates,Original*
G04 #@! TF.FileFunction,Paste,Bot*
G04 #@! TF.FilePolarity,Positive*
%FSLAX46Y46*%
G04 Gerber Fmt 4.6, Leading zero omitted, Abs format (unit mm)*
G04 Created by KiCad (PCBNEW (5.1.0)-1) date 2019-04-24 01:44:35*
%MOMM*%
%LPD*%
G04 APERTURE LIST*
%ADD10R,0.760000X1.600000*%
%ADD11C,0.100000*%
%ADD12C,0.950000*%
%ADD13C,1.600000*%
%ADD14R,2.000000X2.000000*%
%ADD15R,1.900000X2.000000*%
%ADD16R,1.100000X0.400000*%
G04 APERTURE END LIST*
D10*
X118745000Y-118205000D03*
X122555000Y-110585000D03*
X120015000Y-118205000D03*
X121285000Y-110585000D03*
X121285000Y-118205000D03*
X120015000Y-110585000D03*
X122555000Y-118205000D03*
X118745000Y-110585000D03*
D11*
G36*
X112338779Y-107063144D02*
G01*
X112361834Y-107066563D01*
X112384443Y-107072227D01*
X112406387Y-107080079D01*
X112427457Y-107090044D01*
X112447448Y-107102026D01*
X112466168Y-107115910D01*
X112483438Y-107131562D01*
X112499090Y-107148832D01*
X112512974Y-107167552D01*
X112524956Y-107187543D01*
X112534921Y-107208613D01*
X112542773Y-107230557D01*
X112548437Y-107253166D01*
X112551856Y-107276221D01*
X112553000Y-107299500D01*
X112553000Y-107774500D01*
X112551856Y-107797779D01*
X112548437Y-107820834D01*
X112542773Y-107843443D01*
X112534921Y-107865387D01*
X112524956Y-107886457D01*
X112512974Y-107906448D01*
X112499090Y-107925168D01*
X112483438Y-107942438D01*
X112466168Y-107958090D01*
X112447448Y-107971974D01*
X112427457Y-107983956D01*
X112406387Y-107993921D01*
X112384443Y-108001773D01*
X112361834Y-108007437D01*
X112338779Y-108010856D01*
X112315500Y-108012000D01*
X111740500Y-108012000D01*
X111717221Y-108010856D01*
X111694166Y-108007437D01*
X111671557Y-108001773D01*
X111649613Y-107993921D01*
X111628543Y-107983956D01*
X111608552Y-107971974D01*
X111589832Y-107958090D01*
X111572562Y-107942438D01*
X111556910Y-107925168D01*
X111543026Y-107906448D01*
X111531044Y-107886457D01*
X111521079Y-107865387D01*
X111513227Y-107843443D01*
X111507563Y-107820834D01*
X111504144Y-107797779D01*
X111503000Y-107774500D01*
X111503000Y-107299500D01*
X111504144Y-107276221D01*
X111507563Y-107253166D01*
X111513227Y-107230557D01*
X111521079Y-107208613D01*
X111531044Y-107187543D01*
X111543026Y-107167552D01*
X111556910Y-107148832D01*
X111572562Y-107131562D01*
X111589832Y-107115910D01*
X111608552Y-107102026D01*
X111628543Y-107090044D01*
X111649613Y-107080079D01*
X111671557Y-107072227D01*
X111694166Y-107066563D01*
X111717221Y-107063144D01*
X111740500Y-107062000D01*
X112315500Y-107062000D01*
X112338779Y-107063144D01*
X112338779Y-107063144D01*
G37*
D12*
X112028000Y-107537000D03*
D11*
G36*
X114088779Y-107063144D02*
G01*
X114111834Y-107066563D01*
X114134443Y-107072227D01*
X114156387Y-107080079D01*
X114177457Y-107090044D01*
X114197448Y-107102026D01*
X114216168Y-107115910D01*
X114233438Y-107131562D01*
X114249090Y-107148832D01*
X114262974Y-107167552D01*
X114274956Y-107187543D01*
X114284921Y-107208613D01*
X114292773Y-107230557D01*
X114298437Y-107253166D01*
X114301856Y-107276221D01*
X114303000Y-107299500D01*
X114303000Y-107774500D01*
X114301856Y-107797779D01*
X114298437Y-107820834D01*
X114292773Y-107843443D01*
X114284921Y-107865387D01*
X114274956Y-107886457D01*
X114262974Y-107906448D01*
X114249090Y-107925168D01*
X114233438Y-107942438D01*
X114216168Y-107958090D01*
X114197448Y-107971974D01*
X114177457Y-107983956D01*
X114156387Y-107993921D01*
X114134443Y-108001773D01*
X114111834Y-108007437D01*
X114088779Y-108010856D01*
X114065500Y-108012000D01*
X113490500Y-108012000D01*
X113467221Y-108010856D01*
X113444166Y-108007437D01*
X113421557Y-108001773D01*
X113399613Y-107993921D01*
X113378543Y-107983956D01*
X113358552Y-107971974D01*
X113339832Y-107958090D01*
X113322562Y-107942438D01*
X113306910Y-107925168D01*
X113293026Y-107906448D01*
X113281044Y-107886457D01*
X113271079Y-107865387D01*
X113263227Y-107843443D01*
X113257563Y-107820834D01*
X113254144Y-107797779D01*
X113253000Y-107774500D01*
X113253000Y-107299500D01*
X113254144Y-107276221D01*
X113257563Y-107253166D01*
X113263227Y-107230557D01*
X113271079Y-107208613D01*
X113281044Y-107187543D01*
X113293026Y-107167552D01*
X113306910Y-107148832D01*
X113322562Y-107131562D01*
X113339832Y-107115910D01*
X113358552Y-107102026D01*
X113378543Y-107090044D01*
X113399613Y-107080079D01*
X113421557Y-107072227D01*
X113444166Y-107066563D01*
X113467221Y-107063144D01*
X113490500Y-107062000D01*
X114065500Y-107062000D01*
X114088779Y-107063144D01*
X114088779Y-107063144D01*
G37*
D12*
X113778000Y-107537000D03*
D11*
G36*
X73412779Y-121378144D02*
G01*
X73435834Y-121381563D01*
X73458443Y-121387227D01*
X73480387Y-121395079D01*
X73501457Y-121405044D01*
X73521448Y-121417026D01*
X73540168Y-121430910D01*
X73557438Y-121446562D01*
X73573090Y-121463832D01*
X73586974Y-121482552D01*
X73598956Y-121502543D01*
X73608921Y-121523613D01*
X73616773Y-121545557D01*
X73622437Y-121568166D01*
X73625856Y-121591221D01*
X73627000Y-121614500D01*
X73627000Y-122189500D01*
X73625856Y-122212779D01*
X73622437Y-122235834D01*
X73616773Y-122258443D01*
X73608921Y-122280387D01*
X73598956Y-122301457D01*
X73586974Y-122321448D01*
X73573090Y-122340168D01*
X73557438Y-122357438D01*
X73540168Y-122373090D01*
X73521448Y-122386974D01*
X73501457Y-122398956D01*
X73480387Y-122408921D01*
X73458443Y-122416773D01*
X73435834Y-122422437D01*
X73412779Y-122425856D01*
X73389500Y-122427000D01*
X72914500Y-122427000D01*
X72891221Y-122425856D01*
X72868166Y-122422437D01*
X72845557Y-122416773D01*
X72823613Y-122408921D01*
X72802543Y-122398956D01*
X72782552Y-122386974D01*
X72763832Y-122373090D01*
X72746562Y-122357438D01*
X72730910Y-122340168D01*
X72717026Y-122321448D01*
X72705044Y-122301457D01*
X72695079Y-122280387D01*
X72687227Y-122258443D01*
X72681563Y-122235834D01*
X72678144Y-122212779D01*
X72677000Y-122189500D01*
X72677000Y-121614500D01*
X72678144Y-121591221D01*
X72681563Y-121568166D01*
X72687227Y-121545557D01*
X72695079Y-121523613D01*
X72705044Y-121502543D01*
X72717026Y-121482552D01*
X72730910Y-121463832D01*
X72746562Y-121446562D01*
X72763832Y-121430910D01*
X72782552Y-121417026D01*
X72802543Y-121405044D01*
X72823613Y-121395079D01*
X72845557Y-121387227D01*
X72868166Y-121381563D01*
X72891221Y-121378144D01*
X72914500Y-121377000D01*
X73389500Y-121377000D01*
X73412779Y-121378144D01*
X73412779Y-121378144D01*
G37*
D12*
X73152000Y-121902000D03*
D11*
G36*
X73412779Y-123128144D02*
G01*
X73435834Y-123131563D01*
X73458443Y-123137227D01*
X73480387Y-123145079D01*
X73501457Y-123155044D01*
X73521448Y-123167026D01*
X73540168Y-123180910D01*
X73557438Y-123196562D01*
X73573090Y-123213832D01*
X73586974Y-123232552D01*
X73598956Y-123252543D01*
X73608921Y-123273613D01*
X73616773Y-123295557D01*
X73622437Y-123318166D01*
X73625856Y-123341221D01*
X73627000Y-123364500D01*
X73627000Y-123939500D01*
X73625856Y-123962779D01*
X73622437Y-123985834D01*
X73616773Y-124008443D01*
X73608921Y-124030387D01*
X73598956Y-124051457D01*
X73586974Y-124071448D01*
X73573090Y-124090168D01*
X73557438Y-124107438D01*
X73540168Y-124123090D01*
X73521448Y-124136974D01*
X73501457Y-124148956D01*
X73480387Y-124158921D01*
X73458443Y-124166773D01*
X73435834Y-124172437D01*
X73412779Y-124175856D01*
X73389500Y-124177000D01*
X72914500Y-124177000D01*
X72891221Y-124175856D01*
X72868166Y-124172437D01*
X72845557Y-124166773D01*
X72823613Y-124158921D01*
X72802543Y-124148956D01*
X72782552Y-124136974D01*
X72763832Y-124123090D01*
X72746562Y-124107438D01*
X72730910Y-124090168D01*
X72717026Y-124071448D01*
X72705044Y-124051457D01*
X72695079Y-124030387D01*
X72687227Y-124008443D01*
X72681563Y-123985834D01*
X72678144Y-123962779D01*
X72677000Y-123939500D01*
X72677000Y-123364500D01*
X72678144Y-123341221D01*
X72681563Y-123318166D01*
X72687227Y-123295557D01*
X72695079Y-123273613D01*
X72705044Y-123252543D01*
X72717026Y-123232552D01*
X72730910Y-123213832D01*
X72746562Y-123196562D01*
X72763832Y-123180910D01*
X72782552Y-123167026D01*
X72802543Y-123155044D01*
X72823613Y-123145079D01*
X72845557Y-123137227D01*
X72868166Y-123131563D01*
X72891221Y-123128144D01*
X72914500Y-123127000D01*
X73389500Y-123127000D01*
X73412779Y-123128144D01*
X73412779Y-123128144D01*
G37*
D12*
X73152000Y-123652000D03*
D11*
G36*
X143580779Y-120906144D02*
G01*
X143603834Y-120909563D01*
X143626443Y-120915227D01*
X143648387Y-120923079D01*
X143669457Y-120933044D01*
X143689448Y-120945026D01*
X143708168Y-120958910D01*
X143725438Y-120974562D01*
X143741090Y-120991832D01*
X143754974Y-121010552D01*
X143766956Y-121030543D01*
X143776921Y-121051613D01*
X143784773Y-121073557D01*
X143790437Y-121096166D01*
X143793856Y-121119221D01*
X143795000Y-121142500D01*
X143795000Y-121617500D01*
X143793856Y-121640779D01*
X143790437Y-121663834D01*
X143784773Y-121686443D01*
X143776921Y-121708387D01*
X143766956Y-121729457D01*
X143754974Y-121749448D01*
X143741090Y-121768168D01*
X143725438Y-121785438D01*
X143708168Y-121801090D01*
X143689448Y-121814974D01*
X143669457Y-121826956D01*
X143648387Y-121836921D01*
X143626443Y-121844773D01*
X143603834Y-121850437D01*
X143580779Y-121853856D01*
X143557500Y-121855000D01*
X142982500Y-121855000D01*
X142959221Y-121853856D01*
X142936166Y-121850437D01*
X142913557Y-121844773D01*
X142891613Y-121836921D01*
X142870543Y-121826956D01*
X142850552Y-121814974D01*
X142831832Y-121801090D01*
X142814562Y-121785438D01*
X142798910Y-121768168D01*
X142785026Y-121749448D01*
X142773044Y-121729457D01*
X142763079Y-121708387D01*
X142755227Y-121686443D01*
X142749563Y-121663834D01*
X142746144Y-121640779D01*
X142745000Y-121617500D01*
X142745000Y-121142500D01*
X142746144Y-121119221D01*
X142749563Y-121096166D01*
X142755227Y-121073557D01*
X142763079Y-121051613D01*
X142773044Y-121030543D01*
X142785026Y-121010552D01*
X142798910Y-120991832D01*
X142814562Y-120974562D01*
X142831832Y-120958910D01*
X142850552Y-120945026D01*
X142870543Y-120933044D01*
X142891613Y-120923079D01*
X142913557Y-120915227D01*
X142936166Y-120909563D01*
X142959221Y-120906144D01*
X142982500Y-120905000D01*
X143557500Y-120905000D01*
X143580779Y-120906144D01*
X143580779Y-120906144D01*
G37*
D12*
X143270000Y-121380000D03*
D11*
G36*
X145330779Y-120906144D02*
G01*
X145353834Y-120909563D01*
X145376443Y-120915227D01*
X145398387Y-120923079D01*
X145419457Y-120933044D01*
X145439448Y-120945026D01*
X145458168Y-120958910D01*
X145475438Y-120974562D01*
X145491090Y-120991832D01*
X145504974Y-121010552D01*
X145516956Y-121030543D01*
X145526921Y-121051613D01*
X145534773Y-121073557D01*
X145540437Y-121096166D01*
X145543856Y-121119221D01*
X145545000Y-121142500D01*
X145545000Y-121617500D01*
X145543856Y-121640779D01*
X145540437Y-121663834D01*
X145534773Y-121686443D01*
X145526921Y-121708387D01*
X145516956Y-121729457D01*
X145504974Y-121749448D01*
X145491090Y-121768168D01*
X145475438Y-121785438D01*
X145458168Y-121801090D01*
X145439448Y-121814974D01*
X145419457Y-121826956D01*
X145398387Y-121836921D01*
X145376443Y-121844773D01*
X145353834Y-121850437D01*
X145330779Y-121853856D01*
X145307500Y-121855000D01*
X144732500Y-121855000D01*
X144709221Y-121853856D01*
X144686166Y-121850437D01*
X144663557Y-121844773D01*
X144641613Y-121836921D01*
X144620543Y-121826956D01*
X144600552Y-121814974D01*
X144581832Y-121801090D01*
X144564562Y-121785438D01*
X144548910Y-121768168D01*
X144535026Y-121749448D01*
X144523044Y-121729457D01*
X144513079Y-121708387D01*
X144505227Y-121686443D01*
X144499563Y-121663834D01*
X144496144Y-121640779D01*
X144495000Y-121617500D01*
X144495000Y-121142500D01*
X144496144Y-121119221D01*
X144499563Y-121096166D01*
X144505227Y-121073557D01*
X144513079Y-121051613D01*
X144523044Y-121030543D01*
X144535026Y-121010552D01*
X144548910Y-120991832D01*
X144564562Y-120974562D01*
X144581832Y-120958910D01*
X144600552Y-120945026D01*
X144620543Y-120933044D01*
X144641613Y-120923079D01*
X144663557Y-120915227D01*
X144686166Y-120909563D01*
X144709221Y-120906144D01*
X144732500Y-120905000D01*
X145307500Y-120905000D01*
X145330779Y-120906144D01*
X145330779Y-120906144D01*
G37*
D12*
X145020000Y-121380000D03*
D11*
G36*
X105504504Y-120581204D02*
G01*
X105528773Y-120584804D01*
X105552571Y-120590765D01*
X105575671Y-120599030D01*
X105597849Y-120609520D01*
X105618893Y-120622133D01*
X105638598Y-120636747D01*
X105656777Y-120653223D01*
X105673253Y-120671402D01*
X105687867Y-120691107D01*
X105700480Y-120712151D01*
X105710970Y-120734329D01*
X105719235Y-120757429D01*
X105725196Y-120781227D01*
X105728796Y-120805496D01*
X105730000Y-120830000D01*
X105730000Y-121930000D01*
X105728796Y-121954504D01*
X105725196Y-121978773D01*
X105719235Y-122002571D01*
X105710970Y-122025671D01*
X105700480Y-122047849D01*
X105687867Y-122068893D01*
X105673253Y-122088598D01*
X105656777Y-122106777D01*
X105638598Y-122123253D01*
X105618893Y-122137867D01*
X105597849Y-122150480D01*
X105575671Y-122160970D01*
X105552571Y-122169235D01*
X105528773Y-122175196D01*
X105504504Y-122178796D01*
X105480000Y-122180000D01*
X102480000Y-122180000D01*
X102455496Y-122178796D01*
X102431227Y-122175196D01*
X102407429Y-122169235D01*
X102384329Y-122160970D01*
X102362151Y-122150480D01*
X102341107Y-122137867D01*
X102321402Y-122123253D01*
X102303223Y-122106777D01*
X102286747Y-122088598D01*
X102272133Y-122068893D01*
X102259520Y-122047849D01*
X102249030Y-122025671D01*
X102240765Y-122002571D01*
X102234804Y-121978773D01*
X102231204Y-121954504D01*
X102230000Y-121930000D01*
X102230000Y-120830000D01*
X102231204Y-120805496D01*
X102234804Y-120781227D01*
X102240765Y-120757429D01*
X102249030Y-120734329D01*
X102259520Y-120712151D01*
X102272133Y-120691107D01*
X102286747Y-120671402D01*
X102303223Y-120653223D01*
X102321402Y-120636747D01*
X102341107Y-120622133D01*
X102362151Y-120609520D01*
X102384329Y-120599030D01*
X102407429Y-120590765D01*
X102431227Y-120584804D01*
X102455496Y-120581204D01*
X102480000Y-120580000D01*
X105480000Y-120580000D01*
X105504504Y-120581204D01*
X105504504Y-120581204D01*
G37*
D13*
X103980000Y-121380000D03*
D11*
G36*
X110904504Y-120581204D02*
G01*
X110928773Y-120584804D01*
X110952571Y-120590765D01*
X110975671Y-120599030D01*
X110997849Y-120609520D01*
X111018893Y-120622133D01*
X111038598Y-120636747D01*
X111056777Y-120653223D01*
X111073253Y-120671402D01*
X111087867Y-120691107D01*
X111100480Y-120712151D01*
X111110970Y-120734329D01*
X111119235Y-120757429D01*
X111125196Y-120781227D01*
X111128796Y-120805496D01*
X111130000Y-120830000D01*
X111130000Y-121930000D01*
X111128796Y-121954504D01*
X111125196Y-121978773D01*
X111119235Y-122002571D01*
X111110970Y-122025671D01*
X111100480Y-122047849D01*
X111087867Y-122068893D01*
X111073253Y-122088598D01*
X111056777Y-122106777D01*
X111038598Y-122123253D01*
X111018893Y-122137867D01*
X110997849Y-122150480D01*
X110975671Y-122160970D01*
X110952571Y-122169235D01*
X110928773Y-122175196D01*
X110904504Y-122178796D01*
X110880000Y-122180000D01*
X107880000Y-122180000D01*
X107855496Y-122178796D01*
X107831227Y-122175196D01*
X107807429Y-122169235D01*
X107784329Y-122160970D01*
X107762151Y-122150480D01*
X107741107Y-122137867D01*
X107721402Y-122123253D01*
X107703223Y-122106777D01*
X107686747Y-122088598D01*
X107672133Y-122068893D01*
X107659520Y-122047849D01*
X107649030Y-122025671D01*
X107640765Y-122002571D01*
X107634804Y-121978773D01*
X107631204Y-121954504D01*
X107630000Y-121930000D01*
X107630000Y-120830000D01*
X107631204Y-120805496D01*
X107634804Y-120781227D01*
X107640765Y-120757429D01*
X107649030Y-120734329D01*
X107659520Y-120712151D01*
X107672133Y-120691107D01*
X107686747Y-120671402D01*
X107703223Y-120653223D01*
X107721402Y-120636747D01*
X107741107Y-120622133D01*
X107762151Y-120609520D01*
X107784329Y-120599030D01*
X107807429Y-120590765D01*
X107831227Y-120584804D01*
X107855496Y-120581204D01*
X107880000Y-120580000D01*
X110880000Y-120580000D01*
X110904504Y-120581204D01*
X110904504Y-120581204D01*
G37*
D13*
X109380000Y-121380000D03*
D11*
G36*
X116120779Y-120906144D02*
G01*
X116143834Y-120909563D01*
X116166443Y-120915227D01*
X116188387Y-120923079D01*
X116209457Y-120933044D01*
X116229448Y-120945026D01*
X116248168Y-120958910D01*
X116265438Y-120974562D01*
X116281090Y-120991832D01*
X116294974Y-121010552D01*
X116306956Y-121030543D01*
X116316921Y-121051613D01*
X116324773Y-121073557D01*
X116330437Y-121096166D01*
X116333856Y-121119221D01*
X116335000Y-121142500D01*
X116335000Y-121617500D01*
X116333856Y-121640779D01*
X116330437Y-121663834D01*
X116324773Y-121686443D01*
X116316921Y-121708387D01*
X116306956Y-121729457D01*
X116294974Y-121749448D01*
X116281090Y-121768168D01*
X116265438Y-121785438D01*
X116248168Y-121801090D01*
X116229448Y-121814974D01*
X116209457Y-121826956D01*
X116188387Y-121836921D01*
X116166443Y-121844773D01*
X116143834Y-121850437D01*
X116120779Y-121853856D01*
X116097500Y-121855000D01*
X115522500Y-121855000D01*
X115499221Y-121853856D01*
X115476166Y-121850437D01*
X115453557Y-121844773D01*
X115431613Y-121836921D01*
X115410543Y-121826956D01*
X115390552Y-121814974D01*
X115371832Y-121801090D01*
X115354562Y-121785438D01*
X115338910Y-121768168D01*
X115325026Y-121749448D01*
X115313044Y-121729457D01*
X115303079Y-121708387D01*
X115295227Y-121686443D01*
X115289563Y-121663834D01*
X115286144Y-121640779D01*
X115285000Y-121617500D01*
X115285000Y-121142500D01*
X115286144Y-121119221D01*
X115289563Y-121096166D01*
X115295227Y-121073557D01*
X115303079Y-121051613D01*
X115313044Y-121030543D01*
X115325026Y-121010552D01*
X115338910Y-120991832D01*
X115354562Y-120974562D01*
X115371832Y-120958910D01*
X115390552Y-120945026D01*
X115410543Y-120933044D01*
X115431613Y-120923079D01*
X115453557Y-120915227D01*
X115476166Y-120909563D01*
X115499221Y-120906144D01*
X115522500Y-120905000D01*
X116097500Y-120905000D01*
X116120779Y-120906144D01*
X116120779Y-120906144D01*
G37*
D12*
X115810000Y-121380000D03*
D11*
G36*
X114370779Y-120906144D02*
G01*
X114393834Y-120909563D01*
X114416443Y-120915227D01*
X114438387Y-120923079D01*
X114459457Y-120933044D01*
X114479448Y-120945026D01*
X114498168Y-120958910D01*
X114515438Y-120974562D01*
X114531090Y-120991832D01*
X114544974Y-121010552D01*
X114556956Y-121030543D01*
X114566921Y-121051613D01*
X114574773Y-121073557D01*
X114580437Y-121096166D01*
X114583856Y-121119221D01*
X114585000Y-121142500D01*
X114585000Y-121617500D01*
X114583856Y-121640779D01*
X114580437Y-121663834D01*
X114574773Y-121686443D01*
X114566921Y-121708387D01*
X114556956Y-121729457D01*
X114544974Y-121749448D01*
X114531090Y-121768168D01*
X114515438Y-121785438D01*
X114498168Y-121801090D01*
X114479448Y-121814974D01*
X114459457Y-121826956D01*
X114438387Y-121836921D01*
X114416443Y-121844773D01*
X114393834Y-121850437D01*
X114370779Y-121853856D01*
X114347500Y-121855000D01*
X113772500Y-121855000D01*
X113749221Y-121853856D01*
X113726166Y-121850437D01*
X113703557Y-121844773D01*
X113681613Y-121836921D01*
X113660543Y-121826956D01*
X113640552Y-121814974D01*
X113621832Y-121801090D01*
X113604562Y-121785438D01*
X113588910Y-121768168D01*
X113575026Y-121749448D01*
X113563044Y-121729457D01*
X113553079Y-121708387D01*
X113545227Y-121686443D01*
X113539563Y-121663834D01*
X113536144Y-121640779D01*
X113535000Y-121617500D01*
X113535000Y-121142500D01*
X113536144Y-121119221D01*
X113539563Y-121096166D01*
X113545227Y-121073557D01*
X113553079Y-121051613D01*
X113563044Y-121030543D01*
X113575026Y-121010552D01*
X113588910Y-120991832D01*
X113604562Y-120974562D01*
X113621832Y-120958910D01*
X113640552Y-120945026D01*
X113660543Y-120933044D01*
X113681613Y-120923079D01*
X113703557Y-120915227D01*
X113726166Y-120909563D01*
X113749221Y-120906144D01*
X113772500Y-120905000D01*
X114347500Y-120905000D01*
X114370779Y-120906144D01*
X114370779Y-120906144D01*
G37*
D12*
X114060000Y-121380000D03*
D14*
X101075001Y-80125001D03*
D15*
X111975001Y-82325001D03*
D14*
X102275001Y-73885001D03*
X114775001Y-71345001D03*
X120125001Y-61075001D03*
D15*
X131025001Y-63275001D03*
D14*
X121325001Y-54835001D03*
X133825001Y-52295001D03*
D16*
X106370000Y-109820000D03*
X106370000Y-110470000D03*
X106370000Y-111120000D03*
X106370000Y-111770000D03*
X106370000Y-112420000D03*
X106370000Y-113070000D03*
X106370000Y-113720000D03*
X106370000Y-114370000D03*
X106370000Y-115020000D03*
X106370000Y-115670000D03*
X106370000Y-116320000D03*
X106370000Y-116970000D03*
X112070000Y-116970000D03*
X112070000Y-116320000D03*
X112070000Y-115670000D03*
X112070000Y-115020000D03*
X112070000Y-114370000D03*
X112070000Y-113720000D03*
X112070000Y-113070000D03*
X112070000Y-112420000D03*
X112070000Y-111770000D03*
X112070000Y-111120000D03*
X112070000Y-110470000D03*
X112070000Y-109820000D03*
D14*
X62975001Y-61075001D03*
D15*
X73875001Y-63275001D03*
D14*
X64175001Y-54835001D03*
X76675001Y-52295001D03*
X62975001Y-80125001D03*
D15*
X73875001Y-82325001D03*
D14*
X64175001Y-73885001D03*
X76675001Y-71345001D03*
X62975001Y-99175001D03*
D15*
X73875001Y-101375001D03*
D14*
X64175001Y-92935001D03*
X76675001Y-90395001D03*
X82025001Y-61075001D03*
D15*
X92925001Y-63275001D03*
D14*
X83225001Y-54835001D03*
X95725001Y-52295001D03*
X82025001Y-80125001D03*
D15*
X92925001Y-82325001D03*
D14*
X83225001Y-73885001D03*
X95725001Y-71345001D03*
X82025001Y-99175001D03*
D15*
X92925001Y-101375001D03*
D14*
X83225001Y-92935001D03*
X95725001Y-90395001D03*
X101075001Y-61075001D03*
D15*
X111975001Y-63275001D03*
D14*
X102275001Y-54835001D03*
X114775001Y-52295001D03*
X101075001Y-99175001D03*
D15*
X111975001Y-101375001D03*
D14*
X102275001Y-92935001D03*
X114775001Y-90395001D03*
X120125001Y-80125001D03*
D15*
X131025001Y-82325001D03*
D14*
X121325001Y-73885001D03*
X133825001Y-71345001D03*
X120125001Y-99175001D03*
D15*
X131025001Y-101375001D03*
D14*
X121325001Y-92935001D03*
X133825001Y-90395001D03*
X139175001Y-61075001D03*
D15*
X150075001Y-63275001D03*
D14*
X140375001Y-54835001D03*
X152875001Y-52295001D03*
X139175001Y-80125001D03*
D15*
X150075001Y-82325001D03*
D14*
X140375001Y-73885001D03*
X152875001Y-71345001D03*
X139175001Y-99175001D03*
D15*
X150075001Y-101375001D03*
D14*
X140375001Y-92935001D03*
X152875001Y-90395001D03*
M02*
