G04 #@! TF.GenerationSoftware,KiCad,Pcbnew,(5.1.0)-1*
G04 #@! TF.CreationDate,2019-04-24T01:44:35+09:00*
G04 #@! TF.ProjectId,mithumboard,6d697468-756d-4626-9f61-72642e6b6963,rev?*
G04 #@! TF.SameCoordinates,Original*
G04 #@! TF.FileFunction,Legend,Bot*
G04 #@! TF.FilePolarity,Positive*
%FSLAX46Y46*%
G04 Gerber Fmt 4.6, Leading zero omitted, Abs format (unit mm)*
G04 Created by KiCad (PCBNEW (5.1.0)-1) date 2019-04-24 01:44:35*
%MOMM*%
%LPD*%
G04 APERTURE LIST*
%ADD10C,0.150000*%
%ADD11C,0.120000*%
G04 APERTURE END LIST*
D10*
X83628333Y-112117380D02*
X83628333Y-111450714D01*
X83628333Y-111545952D02*
X83580714Y-111498333D01*
X83485476Y-111450714D01*
X83342619Y-111450714D01*
X83247380Y-111498333D01*
X83199761Y-111593571D01*
X83199761Y-112117380D01*
X83199761Y-111593571D02*
X83152142Y-111498333D01*
X83056904Y-111450714D01*
X82914047Y-111450714D01*
X82818809Y-111498333D01*
X82771190Y-111593571D01*
X82771190Y-112117380D01*
X82295000Y-112117380D02*
X82295000Y-111450714D01*
X82295000Y-111117380D02*
X82342619Y-111165000D01*
X82295000Y-111212619D01*
X82247380Y-111165000D01*
X82295000Y-111117380D01*
X82295000Y-111212619D01*
X81961666Y-111450714D02*
X81580714Y-111450714D01*
X81818809Y-111117380D02*
X81818809Y-111974523D01*
X81771190Y-112069761D01*
X81675952Y-112117380D01*
X81580714Y-112117380D01*
X81247380Y-112117380D02*
X81247380Y-111117380D01*
X80818809Y-112117380D02*
X80818809Y-111593571D01*
X80866428Y-111498333D01*
X80961666Y-111450714D01*
X81104523Y-111450714D01*
X81199761Y-111498333D01*
X81247380Y-111545952D01*
X79914047Y-111450714D02*
X79914047Y-112117380D01*
X80342619Y-111450714D02*
X80342619Y-111974523D01*
X80295000Y-112069761D01*
X80199761Y-112117380D01*
X80056904Y-112117380D01*
X79961666Y-112069761D01*
X79914047Y-112022142D01*
X79437857Y-112117380D02*
X79437857Y-111450714D01*
X79437857Y-111545952D02*
X79390238Y-111498333D01*
X79295000Y-111450714D01*
X79152142Y-111450714D01*
X79056904Y-111498333D01*
X79009285Y-111593571D01*
X79009285Y-112117380D01*
X79009285Y-111593571D02*
X78961666Y-111498333D01*
X78866428Y-111450714D01*
X78723571Y-111450714D01*
X78628333Y-111498333D01*
X78580714Y-111593571D01*
X78580714Y-112117380D01*
X78104523Y-112117380D02*
X78104523Y-111117380D01*
X78104523Y-111498333D02*
X78009285Y-111450714D01*
X77818809Y-111450714D01*
X77723571Y-111498333D01*
X77675952Y-111545952D01*
X77628333Y-111641190D01*
X77628333Y-111926904D01*
X77675952Y-112022142D01*
X77723571Y-112069761D01*
X77818809Y-112117380D01*
X78009285Y-112117380D01*
X78104523Y-112069761D01*
X77056904Y-112117380D02*
X77152142Y-112069761D01*
X77199761Y-112022142D01*
X77247380Y-111926904D01*
X77247380Y-111641190D01*
X77199761Y-111545952D01*
X77152142Y-111498333D01*
X77056904Y-111450714D01*
X76914047Y-111450714D01*
X76818809Y-111498333D01*
X76771190Y-111545952D01*
X76723571Y-111641190D01*
X76723571Y-111926904D01*
X76771190Y-112022142D01*
X76818809Y-112069761D01*
X76914047Y-112117380D01*
X77056904Y-112117380D01*
X75866428Y-112117380D02*
X75866428Y-111593571D01*
X75914047Y-111498333D01*
X76009285Y-111450714D01*
X76199761Y-111450714D01*
X76295000Y-111498333D01*
X75866428Y-112069761D02*
X75961666Y-112117380D01*
X76199761Y-112117380D01*
X76295000Y-112069761D01*
X76342619Y-111974523D01*
X76342619Y-111879285D01*
X76295000Y-111784047D01*
X76199761Y-111736428D01*
X75961666Y-111736428D01*
X75866428Y-111688809D01*
X75390238Y-112117380D02*
X75390238Y-111450714D01*
X75390238Y-111641190D02*
X75342619Y-111545952D01*
X75295000Y-111498333D01*
X75199761Y-111450714D01*
X75104523Y-111450714D01*
X74342619Y-112117380D02*
X74342619Y-111117380D01*
X74342619Y-112069761D02*
X74437857Y-112117380D01*
X74628333Y-112117380D01*
X74723571Y-112069761D01*
X74771190Y-112022142D01*
X74818809Y-111926904D01*
X74818809Y-111641190D01*
X74771190Y-111545952D01*
X74723571Y-111498333D01*
X74628333Y-111450714D01*
X74437857Y-111450714D01*
X74342619Y-111498333D01*
X72818809Y-112498333D02*
X72866428Y-112450714D01*
X72961666Y-112307857D01*
X73009285Y-112212619D01*
X73056904Y-112069761D01*
X73104523Y-111831666D01*
X73104523Y-111641190D01*
X73056904Y-111403095D01*
X73009285Y-111260238D01*
X72961666Y-111165000D01*
X72866428Y-111022142D01*
X72818809Y-110974523D01*
X72485476Y-112069761D02*
X72342619Y-112117380D01*
X72104523Y-112117380D01*
X72009285Y-112069761D01*
X71961666Y-112022142D01*
X71914047Y-111926904D01*
X71914047Y-111831666D01*
X71961666Y-111736428D01*
X72009285Y-111688809D01*
X72104523Y-111641190D01*
X72295000Y-111593571D01*
X72390238Y-111545952D01*
X72437857Y-111498333D01*
X72485476Y-111403095D01*
X72485476Y-111307857D01*
X72437857Y-111212619D01*
X72390238Y-111165000D01*
X72295000Y-111117380D01*
X72056904Y-111117380D01*
X71914047Y-111165000D01*
X71485476Y-112117380D02*
X71485476Y-111117380D01*
X71152142Y-111831666D01*
X70818809Y-111117380D01*
X70818809Y-112117380D01*
X70485476Y-111117380D02*
X69914047Y-111117380D01*
X70199761Y-112117380D02*
X70199761Y-111117380D01*
X69675952Y-112498333D02*
X69628333Y-112450714D01*
X69533095Y-112307857D01*
X69485476Y-112212619D01*
X69437857Y-112069761D01*
X69390238Y-111831666D01*
X69390238Y-111641190D01*
X69437857Y-111403095D01*
X69485476Y-111260238D01*
X69533095Y-111165000D01*
X69628333Y-111022142D01*
X69675952Y-110974523D01*
X68152142Y-112117380D02*
X68152142Y-111450714D01*
X68152142Y-111641190D02*
X68104523Y-111545952D01*
X68056904Y-111498333D01*
X67961666Y-111450714D01*
X67866428Y-111450714D01*
X67152142Y-112069761D02*
X67247380Y-112117380D01*
X67437857Y-112117380D01*
X67533095Y-112069761D01*
X67580714Y-111974523D01*
X67580714Y-111593571D01*
X67533095Y-111498333D01*
X67437857Y-111450714D01*
X67247380Y-111450714D01*
X67152142Y-111498333D01*
X67104523Y-111593571D01*
X67104523Y-111688809D01*
X67580714Y-111784047D01*
X66771190Y-111450714D02*
X66533095Y-112117380D01*
X66295000Y-111450714D01*
X65914047Y-112022142D02*
X65866428Y-112069761D01*
X65914047Y-112117380D01*
X65961666Y-112069761D01*
X65914047Y-112022142D01*
X65914047Y-112117380D01*
X65247380Y-111117380D02*
X65152142Y-111117380D01*
X65056904Y-111165000D01*
X65009285Y-111212619D01*
X64961666Y-111307857D01*
X64914047Y-111498333D01*
X64914047Y-111736428D01*
X64961666Y-111926904D01*
X65009285Y-112022142D01*
X65056904Y-112069761D01*
X65152142Y-112117380D01*
X65247380Y-112117380D01*
X65342619Y-112069761D01*
X65390238Y-112022142D01*
X65437857Y-111926904D01*
X65485476Y-111736428D01*
X65485476Y-111498333D01*
X65437857Y-111307857D01*
X65390238Y-111212619D01*
X65342619Y-111165000D01*
X65247380Y-111117380D01*
X84437857Y-113767380D02*
X84437857Y-112767380D01*
X84199761Y-112767380D01*
X84056904Y-112815000D01*
X83961666Y-112910238D01*
X83914047Y-113005476D01*
X83866428Y-113195952D01*
X83866428Y-113338809D01*
X83914047Y-113529285D01*
X83961666Y-113624523D01*
X84056904Y-113719761D01*
X84199761Y-113767380D01*
X84437857Y-113767380D01*
X83056904Y-113719761D02*
X83152142Y-113767380D01*
X83342619Y-113767380D01*
X83437857Y-113719761D01*
X83485476Y-113624523D01*
X83485476Y-113243571D01*
X83437857Y-113148333D01*
X83342619Y-113100714D01*
X83152142Y-113100714D01*
X83056904Y-113148333D01*
X83009285Y-113243571D01*
X83009285Y-113338809D01*
X83485476Y-113434047D01*
X82628333Y-113719761D02*
X82533095Y-113767380D01*
X82342619Y-113767380D01*
X82247380Y-113719761D01*
X82199761Y-113624523D01*
X82199761Y-113576904D01*
X82247380Y-113481666D01*
X82342619Y-113434047D01*
X82485476Y-113434047D01*
X82580714Y-113386428D01*
X82628333Y-113291190D01*
X82628333Y-113243571D01*
X82580714Y-113148333D01*
X82485476Y-113100714D01*
X82342619Y-113100714D01*
X82247380Y-113148333D01*
X81771190Y-113767380D02*
X81771190Y-113100714D01*
X81771190Y-112767380D02*
X81818809Y-112815000D01*
X81771190Y-112862619D01*
X81723571Y-112815000D01*
X81771190Y-112767380D01*
X81771190Y-112862619D01*
X80866428Y-113100714D02*
X80866428Y-113910238D01*
X80914047Y-114005476D01*
X80961666Y-114053095D01*
X81056904Y-114100714D01*
X81199761Y-114100714D01*
X81295000Y-114053095D01*
X80866428Y-113719761D02*
X80961666Y-113767380D01*
X81152142Y-113767380D01*
X81247380Y-113719761D01*
X81295000Y-113672142D01*
X81342619Y-113576904D01*
X81342619Y-113291190D01*
X81295000Y-113195952D01*
X81247380Y-113148333D01*
X81152142Y-113100714D01*
X80961666Y-113100714D01*
X80866428Y-113148333D01*
X80390238Y-113100714D02*
X80390238Y-113767380D01*
X80390238Y-113195952D02*
X80342619Y-113148333D01*
X80247380Y-113100714D01*
X80104523Y-113100714D01*
X80009285Y-113148333D01*
X79961666Y-113243571D01*
X79961666Y-113767380D01*
X79104523Y-113719761D02*
X79199761Y-113767380D01*
X79390238Y-113767380D01*
X79485476Y-113719761D01*
X79533095Y-113624523D01*
X79533095Y-113243571D01*
X79485476Y-113148333D01*
X79390238Y-113100714D01*
X79199761Y-113100714D01*
X79104523Y-113148333D01*
X79056904Y-113243571D01*
X79056904Y-113338809D01*
X79533095Y-113434047D01*
X78199761Y-113767380D02*
X78199761Y-112767380D01*
X78199761Y-113719761D02*
X78295000Y-113767380D01*
X78485476Y-113767380D01*
X78580714Y-113719761D01*
X78628333Y-113672142D01*
X78675952Y-113576904D01*
X78675952Y-113291190D01*
X78628333Y-113195952D01*
X78580714Y-113148333D01*
X78485476Y-113100714D01*
X78295000Y-113100714D01*
X78199761Y-113148333D01*
X76961666Y-113767380D02*
X76961666Y-112767380D01*
X76961666Y-113148333D02*
X76866428Y-113100714D01*
X76675952Y-113100714D01*
X76580714Y-113148333D01*
X76533095Y-113195952D01*
X76485476Y-113291190D01*
X76485476Y-113576904D01*
X76533095Y-113672142D01*
X76580714Y-113719761D01*
X76675952Y-113767380D01*
X76866428Y-113767380D01*
X76961666Y-113719761D01*
X76152142Y-113100714D02*
X75914047Y-113767380D01*
X75675952Y-113100714D02*
X75914047Y-113767380D01*
X76009285Y-114005476D01*
X76056904Y-114053095D01*
X76152142Y-114100714D01*
X74533095Y-113767380D02*
X74533095Y-113100714D01*
X74533095Y-113195952D02*
X74485476Y-113148333D01*
X74390238Y-113100714D01*
X74247380Y-113100714D01*
X74152142Y-113148333D01*
X74104523Y-113243571D01*
X74104523Y-113767380D01*
X74104523Y-113243571D02*
X74056904Y-113148333D01*
X73961666Y-113100714D01*
X73818809Y-113100714D01*
X73723571Y-113148333D01*
X73675952Y-113243571D01*
X73675952Y-113767380D01*
X73199761Y-113767380D02*
X73199761Y-113100714D01*
X73199761Y-112767380D02*
X73247380Y-112815000D01*
X73199761Y-112862619D01*
X73152142Y-112815000D01*
X73199761Y-112767380D01*
X73199761Y-112862619D01*
X72866428Y-113100714D02*
X72485476Y-113100714D01*
X72723571Y-112767380D02*
X72723571Y-113624523D01*
X72675952Y-113719761D01*
X72580714Y-113767380D01*
X72485476Y-113767380D01*
X71723571Y-113767380D02*
X71723571Y-113243571D01*
X71771190Y-113148333D01*
X71866428Y-113100714D01*
X72056904Y-113100714D01*
X72152142Y-113148333D01*
X71723571Y-113719761D02*
X71818809Y-113767380D01*
X72056904Y-113767380D01*
X72152142Y-113719761D01*
X72199761Y-113624523D01*
X72199761Y-113529285D01*
X72152142Y-113434047D01*
X72056904Y-113386428D01*
X71818809Y-113386428D01*
X71723571Y-113338809D01*
X71247380Y-113767380D02*
X71247380Y-113100714D01*
X71247380Y-113291190D02*
X71199761Y-113195952D01*
X71152142Y-113148333D01*
X71056904Y-113100714D01*
X70961666Y-113100714D01*
X70485476Y-113767380D02*
X70580714Y-113719761D01*
X70628333Y-113672142D01*
X70675952Y-113576904D01*
X70675952Y-113291190D01*
X70628333Y-113195952D01*
X70580714Y-113148333D01*
X70485476Y-113100714D01*
X70342619Y-113100714D01*
X70247380Y-113148333D01*
X70199761Y-113195952D01*
X70152142Y-113291190D01*
X70152142Y-113576904D01*
X70199761Y-113672142D01*
X70247380Y-113719761D01*
X70342619Y-113767380D01*
X70485476Y-113767380D01*
X69866428Y-112767380D02*
X69295000Y-112767380D01*
X69580714Y-113767380D02*
X69580714Y-112767380D01*
X68961666Y-113767380D02*
X68961666Y-112767380D01*
X68533095Y-113767380D02*
X68533095Y-113243571D01*
X68580714Y-113148333D01*
X68675952Y-113100714D01*
X68818809Y-113100714D01*
X68914047Y-113148333D01*
X68961666Y-113195952D01*
X67628333Y-113767380D02*
X67628333Y-113243571D01*
X67675952Y-113148333D01*
X67771190Y-113100714D01*
X67961666Y-113100714D01*
X68056904Y-113148333D01*
X67628333Y-113719761D02*
X67723571Y-113767380D01*
X67961666Y-113767380D01*
X68056904Y-113719761D01*
X68104523Y-113624523D01*
X68104523Y-113529285D01*
X68056904Y-113434047D01*
X67961666Y-113386428D01*
X67723571Y-113386428D01*
X67628333Y-113338809D01*
X67152142Y-113100714D02*
X67152142Y-113767380D01*
X67152142Y-113195952D02*
X67104523Y-113148333D01*
X67009285Y-113100714D01*
X66866428Y-113100714D01*
X66771190Y-113148333D01*
X66723571Y-113243571D01*
X66723571Y-113767380D01*
X66247380Y-113767380D02*
X66247380Y-112767380D01*
X66152142Y-113386428D02*
X65866428Y-113767380D01*
X65866428Y-113100714D02*
X66247380Y-113481666D01*
X65056904Y-113719761D02*
X65152142Y-113767380D01*
X65342619Y-113767380D01*
X65437857Y-113719761D01*
X65485476Y-113624523D01*
X65485476Y-113243571D01*
X65437857Y-113148333D01*
X65342619Y-113100714D01*
X65152142Y-113100714D01*
X65056904Y-113148333D01*
X65009285Y-113243571D01*
X65009285Y-113338809D01*
X65485476Y-113434047D01*
X64580714Y-113100714D02*
X64580714Y-113767380D01*
X64580714Y-113195952D02*
X64533095Y-113148333D01*
X64437857Y-113100714D01*
X64295000Y-113100714D01*
X64199761Y-113148333D01*
X64152142Y-113243571D01*
X64152142Y-113767380D01*
D11*
X122615000Y-117155000D02*
X123885000Y-117155000D01*
X122615000Y-111635000D02*
X123885000Y-111635000D01*
X117415000Y-117155000D02*
X118684000Y-117155000D01*
X117415000Y-111635000D02*
X117415000Y-117155000D01*
X117415000Y-111635000D02*
X118065000Y-111635000D01*
X118065000Y-109785000D02*
X118065000Y-111635000D01*
X123885000Y-111635000D02*
X123885000Y-117155000D01*
X113074267Y-108047000D02*
X112731733Y-108047000D01*
X113074267Y-107027000D02*
X112731733Y-107027000D01*
X72642000Y-122948267D02*
X72642000Y-122605733D01*
X73662000Y-122948267D02*
X73662000Y-122605733D01*
X144316267Y-121890000D02*
X143973733Y-121890000D01*
X144316267Y-120870000D02*
X143973733Y-120870000D01*
X110723750Y-119138750D02*
X110723750Y-119926250D01*
X111117500Y-119532500D02*
X110330000Y-119532500D01*
X110090000Y-123725563D02*
X109025563Y-124790000D01*
X110090000Y-119034437D02*
X109025563Y-117970000D01*
X110090000Y-119034437D02*
X110090000Y-120320000D01*
X110090000Y-123725563D02*
X110090000Y-122440000D01*
X109025563Y-124790000D02*
X103270000Y-124790000D01*
X109025563Y-117970000D02*
X103270000Y-117970000D01*
X103270000Y-117970000D02*
X103270000Y-120320000D01*
X103270000Y-124790000D02*
X103270000Y-122440000D01*
X114763733Y-120870000D02*
X115106267Y-120870000D01*
X114763733Y-121890000D02*
X115106267Y-121890000D01*
D10*
X106895001Y-83925001D02*
X106895001Y-84625001D01*
X106895001Y-83875001D02*
G75*
G03X105675001Y-82455001I-1320000J100000D01*
G01*
X106605001Y-77825001D02*
G75*
G03X108975001Y-79995001I2270000J100000D01*
G01*
X101900001Y-77825001D02*
X101875001Y-82425001D01*
X111475001Y-80025001D02*
X111475001Y-84625001D01*
X105675001Y-82450001D02*
X101900001Y-82450001D01*
X106600001Y-77800001D02*
X101900001Y-77800001D01*
X111450001Y-80000001D02*
X108900001Y-80000001D01*
X111450001Y-84650001D02*
X106900001Y-84650001D01*
X106690001Y-75505001D02*
G75*
G02X108950001Y-73625001I2070000J-190000D01*
G01*
X103086001Y-71505001D02*
G75*
G02X105350001Y-69621001I2074000J-190000D01*
G01*
X113975001Y-73575001D02*
X108925001Y-73621001D01*
X113975001Y-73529001D02*
X113975001Y-69621001D01*
X113975001Y-69621001D02*
X105350001Y-69621001D01*
X103075001Y-71575001D02*
X103075001Y-75520001D01*
X103075001Y-75529001D02*
X106685001Y-75529001D01*
X125945001Y-64875001D02*
X125945001Y-65575001D01*
X125945001Y-64825001D02*
G75*
G03X124725001Y-63405001I-1320000J100000D01*
G01*
X125655001Y-58775001D02*
G75*
G03X128025001Y-60945001I2270000J100000D01*
G01*
X120950001Y-58775001D02*
X120925001Y-63375001D01*
X130525001Y-60975001D02*
X130525001Y-65575001D01*
X124725001Y-63400001D02*
X120950001Y-63400001D01*
X125650001Y-58750001D02*
X120950001Y-58750001D01*
X130500001Y-60950001D02*
X127950001Y-60950001D01*
X130500001Y-65600001D02*
X125950001Y-65600001D01*
X125740001Y-56455001D02*
G75*
G02X128000001Y-54575001I2070000J-190000D01*
G01*
X122136001Y-52455001D02*
G75*
G02X124400001Y-50571001I2074000J-190000D01*
G01*
X133025001Y-54525001D02*
X127975001Y-54571001D01*
X133025001Y-54479001D02*
X133025001Y-50571001D01*
X133025001Y-50571001D02*
X124400001Y-50571001D01*
X122125001Y-52525001D02*
X122125001Y-56470001D01*
X122125001Y-56479001D02*
X125735001Y-56479001D01*
X111545000Y-117420000D02*
X106895000Y-117420000D01*
X112620000Y-109320000D02*
X106895000Y-109320000D01*
X111545000Y-117420000D02*
X111545000Y-117395000D01*
X106895000Y-117420000D02*
X106895000Y-117395000D01*
X106895000Y-109370000D02*
X106895000Y-109395000D01*
X68795001Y-64875001D02*
X68795001Y-65575001D01*
X68795001Y-64825001D02*
G75*
G03X67575001Y-63405001I-1320000J100000D01*
G01*
X68505001Y-58775001D02*
G75*
G03X70875001Y-60945001I2270000J100000D01*
G01*
X63800001Y-58775001D02*
X63775001Y-63375001D01*
X73375001Y-60975001D02*
X73375001Y-65575001D01*
X67575001Y-63400001D02*
X63800001Y-63400001D01*
X68500001Y-58750001D02*
X63800001Y-58750001D01*
X73350001Y-60950001D02*
X70800001Y-60950001D01*
X73350001Y-65600001D02*
X68800001Y-65600001D01*
X68590001Y-56455001D02*
G75*
G02X70850001Y-54575001I2070000J-190000D01*
G01*
X64986001Y-52455001D02*
G75*
G02X67250001Y-50571001I2074000J-190000D01*
G01*
X75875001Y-54525001D02*
X70825001Y-54571001D01*
X75875001Y-54479001D02*
X75875001Y-50571001D01*
X75875001Y-50571001D02*
X67250001Y-50571001D01*
X64975001Y-52525001D02*
X64975001Y-56470001D01*
X64975001Y-56479001D02*
X68585001Y-56479001D01*
X68795001Y-83925001D02*
X68795001Y-84625001D01*
X68795001Y-83875001D02*
G75*
G03X67575001Y-82455001I-1320000J100000D01*
G01*
X68505001Y-77825001D02*
G75*
G03X70875001Y-79995001I2270000J100000D01*
G01*
X63800001Y-77825001D02*
X63775001Y-82425001D01*
X73375001Y-80025001D02*
X73375001Y-84625001D01*
X67575001Y-82450001D02*
X63800001Y-82450001D01*
X68500001Y-77800001D02*
X63800001Y-77800001D01*
X73350001Y-80000001D02*
X70800001Y-80000001D01*
X73350001Y-84650001D02*
X68800001Y-84650001D01*
X68590001Y-75505001D02*
G75*
G02X70850001Y-73625001I2070000J-190000D01*
G01*
X64986001Y-71505001D02*
G75*
G02X67250001Y-69621001I2074000J-190000D01*
G01*
X75875001Y-73575001D02*
X70825001Y-73621001D01*
X75875001Y-73529001D02*
X75875001Y-69621001D01*
X75875001Y-69621001D02*
X67250001Y-69621001D01*
X64975001Y-71575001D02*
X64975001Y-75520001D01*
X64975001Y-75529001D02*
X68585001Y-75529001D01*
X68795001Y-102975001D02*
X68795001Y-103675001D01*
X68795001Y-102925001D02*
G75*
G03X67575001Y-101505001I-1320000J100000D01*
G01*
X68505001Y-96875001D02*
G75*
G03X70875001Y-99045001I2270000J100000D01*
G01*
X63800001Y-96875001D02*
X63775001Y-101475001D01*
X73375001Y-99075001D02*
X73375001Y-103675001D01*
X67575001Y-101500001D02*
X63800001Y-101500001D01*
X68500001Y-96850001D02*
X63800001Y-96850001D01*
X73350001Y-99050001D02*
X70800001Y-99050001D01*
X73350001Y-103700001D02*
X68800001Y-103700001D01*
X68590001Y-94555001D02*
G75*
G02X70850001Y-92675001I2070000J-190000D01*
G01*
X64986001Y-90555001D02*
G75*
G02X67250001Y-88671001I2074000J-190000D01*
G01*
X75875001Y-92625001D02*
X70825001Y-92671001D01*
X75875001Y-92579001D02*
X75875001Y-88671001D01*
X75875001Y-88671001D02*
X67250001Y-88671001D01*
X64975001Y-90625001D02*
X64975001Y-94570001D01*
X64975001Y-94579001D02*
X68585001Y-94579001D01*
X87845001Y-64875001D02*
X87845001Y-65575001D01*
X87845001Y-64825001D02*
G75*
G03X86625001Y-63405001I-1320000J100000D01*
G01*
X87555001Y-58775001D02*
G75*
G03X89925001Y-60945001I2270000J100000D01*
G01*
X82850001Y-58775001D02*
X82825001Y-63375001D01*
X92425001Y-60975001D02*
X92425001Y-65575001D01*
X86625001Y-63400001D02*
X82850001Y-63400001D01*
X87550001Y-58750001D02*
X82850001Y-58750001D01*
X92400001Y-60950001D02*
X89850001Y-60950001D01*
X92400001Y-65600001D02*
X87850001Y-65600001D01*
X87640001Y-56455001D02*
G75*
G02X89900001Y-54575001I2070000J-190000D01*
G01*
X84036001Y-52455001D02*
G75*
G02X86300001Y-50571001I2074000J-190000D01*
G01*
X94925001Y-54525001D02*
X89875001Y-54571001D01*
X94925001Y-54479001D02*
X94925001Y-50571001D01*
X94925001Y-50571001D02*
X86300001Y-50571001D01*
X84025001Y-52525001D02*
X84025001Y-56470001D01*
X84025001Y-56479001D02*
X87635001Y-56479001D01*
X87845001Y-83925001D02*
X87845001Y-84625001D01*
X87845001Y-83875001D02*
G75*
G03X86625001Y-82455001I-1320000J100000D01*
G01*
X87555001Y-77825001D02*
G75*
G03X89925001Y-79995001I2270000J100000D01*
G01*
X82850001Y-77825001D02*
X82825001Y-82425001D01*
X92425001Y-80025001D02*
X92425001Y-84625001D01*
X86625001Y-82450001D02*
X82850001Y-82450001D01*
X87550001Y-77800001D02*
X82850001Y-77800001D01*
X92400001Y-80000001D02*
X89850001Y-80000001D01*
X92400001Y-84650001D02*
X87850001Y-84650001D01*
X87640001Y-75505001D02*
G75*
G02X89900001Y-73625001I2070000J-190000D01*
G01*
X84036001Y-71505001D02*
G75*
G02X86300001Y-69621001I2074000J-190000D01*
G01*
X94925001Y-73575001D02*
X89875001Y-73621001D01*
X94925001Y-73529001D02*
X94925001Y-69621001D01*
X94925001Y-69621001D02*
X86300001Y-69621001D01*
X84025001Y-71575001D02*
X84025001Y-75520001D01*
X84025001Y-75529001D02*
X87635001Y-75529001D01*
X87845001Y-102975001D02*
X87845001Y-103675001D01*
X87845001Y-102925001D02*
G75*
G03X86625001Y-101505001I-1320000J100000D01*
G01*
X87555001Y-96875001D02*
G75*
G03X89925001Y-99045001I2270000J100000D01*
G01*
X82850001Y-96875001D02*
X82825001Y-101475001D01*
X92425001Y-99075001D02*
X92425001Y-103675001D01*
X86625001Y-101500001D02*
X82850001Y-101500001D01*
X87550001Y-96850001D02*
X82850001Y-96850001D01*
X92400001Y-99050001D02*
X89850001Y-99050001D01*
X92400001Y-103700001D02*
X87850001Y-103700001D01*
X87640001Y-94555001D02*
G75*
G02X89900001Y-92675001I2070000J-190000D01*
G01*
X84036001Y-90555001D02*
G75*
G02X86300001Y-88671001I2074000J-190000D01*
G01*
X94925001Y-92625001D02*
X89875001Y-92671001D01*
X94925001Y-92579001D02*
X94925001Y-88671001D01*
X94925001Y-88671001D02*
X86300001Y-88671001D01*
X84025001Y-90625001D02*
X84025001Y-94570001D01*
X84025001Y-94579001D02*
X87635001Y-94579001D01*
X106895001Y-64875001D02*
X106895001Y-65575001D01*
X106895001Y-64825001D02*
G75*
G03X105675001Y-63405001I-1320000J100000D01*
G01*
X106605001Y-58775001D02*
G75*
G03X108975001Y-60945001I2270000J100000D01*
G01*
X101900001Y-58775001D02*
X101875001Y-63375001D01*
X111475001Y-60975001D02*
X111475001Y-65575001D01*
X105675001Y-63400001D02*
X101900001Y-63400001D01*
X106600001Y-58750001D02*
X101900001Y-58750001D01*
X111450001Y-60950001D02*
X108900001Y-60950001D01*
X111450001Y-65600001D02*
X106900001Y-65600001D01*
X106690001Y-56455001D02*
G75*
G02X108950001Y-54575001I2070000J-190000D01*
G01*
X103086001Y-52455001D02*
G75*
G02X105350001Y-50571001I2074000J-190000D01*
G01*
X113975001Y-54525001D02*
X108925001Y-54571001D01*
X113975001Y-54479001D02*
X113975001Y-50571001D01*
X113975001Y-50571001D02*
X105350001Y-50571001D01*
X103075001Y-52525001D02*
X103075001Y-56470001D01*
X103075001Y-56479001D02*
X106685001Y-56479001D01*
X106895001Y-102975001D02*
X106895001Y-103675001D01*
X106895001Y-102925001D02*
G75*
G03X105675001Y-101505001I-1320000J100000D01*
G01*
X106605001Y-96875001D02*
G75*
G03X108975001Y-99045001I2270000J100000D01*
G01*
X101900001Y-96875001D02*
X101875001Y-101475001D01*
X111475001Y-99075001D02*
X111475001Y-103675001D01*
X105675001Y-101500001D02*
X101900001Y-101500001D01*
X106600001Y-96850001D02*
X101900001Y-96850001D01*
X111450001Y-99050001D02*
X108900001Y-99050001D01*
X111450001Y-103700001D02*
X106900001Y-103700001D01*
X106690001Y-94555001D02*
G75*
G02X108950001Y-92675001I2070000J-190000D01*
G01*
X103086001Y-90555001D02*
G75*
G02X105350001Y-88671001I2074000J-190000D01*
G01*
X113975001Y-92625001D02*
X108925001Y-92671001D01*
X113975001Y-92579001D02*
X113975001Y-88671001D01*
X113975001Y-88671001D02*
X105350001Y-88671001D01*
X103075001Y-90625001D02*
X103075001Y-94570001D01*
X103075001Y-94579001D02*
X106685001Y-94579001D01*
X125945001Y-83925001D02*
X125945001Y-84625001D01*
X125945001Y-83875001D02*
G75*
G03X124725001Y-82455001I-1320000J100000D01*
G01*
X125655001Y-77825001D02*
G75*
G03X128025001Y-79995001I2270000J100000D01*
G01*
X120950001Y-77825001D02*
X120925001Y-82425001D01*
X130525001Y-80025001D02*
X130525001Y-84625001D01*
X124725001Y-82450001D02*
X120950001Y-82450001D01*
X125650001Y-77800001D02*
X120950001Y-77800001D01*
X130500001Y-80000001D02*
X127950001Y-80000001D01*
X130500001Y-84650001D02*
X125950001Y-84650001D01*
X125740001Y-75505001D02*
G75*
G02X128000001Y-73625001I2070000J-190000D01*
G01*
X122136001Y-71505001D02*
G75*
G02X124400001Y-69621001I2074000J-190000D01*
G01*
X133025001Y-73575001D02*
X127975001Y-73621001D01*
X133025001Y-73529001D02*
X133025001Y-69621001D01*
X133025001Y-69621001D02*
X124400001Y-69621001D01*
X122125001Y-71575001D02*
X122125001Y-75520001D01*
X122125001Y-75529001D02*
X125735001Y-75529001D01*
X125945001Y-102975001D02*
X125945001Y-103675001D01*
X125945001Y-102925001D02*
G75*
G03X124725001Y-101505001I-1320000J100000D01*
G01*
X125655001Y-96875001D02*
G75*
G03X128025001Y-99045001I2270000J100000D01*
G01*
X120950001Y-96875001D02*
X120925001Y-101475001D01*
X130525001Y-99075001D02*
X130525001Y-103675001D01*
X124725001Y-101500001D02*
X120950001Y-101500001D01*
X125650001Y-96850001D02*
X120950001Y-96850001D01*
X130500001Y-99050001D02*
X127950001Y-99050001D01*
X130500001Y-103700001D02*
X125950001Y-103700001D01*
X125740001Y-94555001D02*
G75*
G02X128000001Y-92675001I2070000J-190000D01*
G01*
X122136001Y-90555001D02*
G75*
G02X124400001Y-88671001I2074000J-190000D01*
G01*
X133025001Y-92625001D02*
X127975001Y-92671001D01*
X133025001Y-92579001D02*
X133025001Y-88671001D01*
X133025001Y-88671001D02*
X124400001Y-88671001D01*
X122125001Y-90625001D02*
X122125001Y-94570001D01*
X122125001Y-94579001D02*
X125735001Y-94579001D01*
X144995001Y-64875001D02*
X144995001Y-65575001D01*
X144995001Y-64825001D02*
G75*
G03X143775001Y-63405001I-1320000J100000D01*
G01*
X144705001Y-58775001D02*
G75*
G03X147075001Y-60945001I2270000J100000D01*
G01*
X140000001Y-58775001D02*
X139975001Y-63375001D01*
X149575001Y-60975001D02*
X149575001Y-65575001D01*
X143775001Y-63400001D02*
X140000001Y-63400001D01*
X144700001Y-58750001D02*
X140000001Y-58750001D01*
X149550001Y-60950001D02*
X147000001Y-60950001D01*
X149550001Y-65600001D02*
X145000001Y-65600001D01*
X144790001Y-56455001D02*
G75*
G02X147050001Y-54575001I2070000J-190000D01*
G01*
X141186001Y-52455001D02*
G75*
G02X143450001Y-50571001I2074000J-190000D01*
G01*
X152075001Y-54525001D02*
X147025001Y-54571001D01*
X152075001Y-54479001D02*
X152075001Y-50571001D01*
X152075001Y-50571001D02*
X143450001Y-50571001D01*
X141175001Y-52525001D02*
X141175001Y-56470001D01*
X141175001Y-56479001D02*
X144785001Y-56479001D01*
X144995001Y-83925001D02*
X144995001Y-84625001D01*
X144995001Y-83875001D02*
G75*
G03X143775001Y-82455001I-1320000J100000D01*
G01*
X144705001Y-77825001D02*
G75*
G03X147075001Y-79995001I2270000J100000D01*
G01*
X140000001Y-77825001D02*
X139975001Y-82425001D01*
X149575001Y-80025001D02*
X149575001Y-84625001D01*
X143775001Y-82450001D02*
X140000001Y-82450001D01*
X144700001Y-77800001D02*
X140000001Y-77800001D01*
X149550001Y-80000001D02*
X147000001Y-80000001D01*
X149550001Y-84650001D02*
X145000001Y-84650001D01*
X144790001Y-75505001D02*
G75*
G02X147050001Y-73625001I2070000J-190000D01*
G01*
X141186001Y-71505001D02*
G75*
G02X143450001Y-69621001I2074000J-190000D01*
G01*
X152075001Y-73575001D02*
X147025001Y-73621001D01*
X152075001Y-73529001D02*
X152075001Y-69621001D01*
X152075001Y-69621001D02*
X143450001Y-69621001D01*
X141175001Y-71575001D02*
X141175001Y-75520001D01*
X141175001Y-75529001D02*
X144785001Y-75529001D01*
X144995001Y-102975001D02*
X144995001Y-103675001D01*
X144995001Y-102925001D02*
G75*
G03X143775001Y-101505001I-1320000J100000D01*
G01*
X144705001Y-96875001D02*
G75*
G03X147075001Y-99045001I2270000J100000D01*
G01*
X140000001Y-96875001D02*
X139975001Y-101475001D01*
X149575001Y-99075001D02*
X149575001Y-103675001D01*
X143775001Y-101500001D02*
X140000001Y-101500001D01*
X144700001Y-96850001D02*
X140000001Y-96850001D01*
X149550001Y-99050001D02*
X147000001Y-99050001D01*
X149550001Y-103700001D02*
X145000001Y-103700001D01*
X144790001Y-94555001D02*
G75*
G02X147050001Y-92675001I2070000J-190000D01*
G01*
X141186001Y-90555001D02*
G75*
G02X143450001Y-88671001I2074000J-190000D01*
G01*
X152075001Y-92625001D02*
X147025001Y-92671001D01*
X152075001Y-92579001D02*
X152075001Y-88671001D01*
X152075001Y-88671001D02*
X143450001Y-88671001D01*
X141175001Y-90625001D02*
X141175001Y-94570001D01*
X141175001Y-94579001D02*
X144785001Y-94579001D01*
X146025000Y-124575000D02*
X158025000Y-124575000D01*
X146025000Y-118575000D02*
X146025000Y-124575000D01*
X158025000Y-118575000D02*
X146025000Y-118575000D01*
X158025000Y-124575000D02*
X158025000Y-118575000D01*
X71980000Y-118575000D02*
X59980000Y-118575000D01*
X71980000Y-124575000D02*
X71980000Y-118575000D01*
X59980000Y-124575000D02*
X71980000Y-124575000D01*
X59980000Y-118575000D02*
X59980000Y-124575000D01*
X146025000Y-48375000D02*
X158025000Y-48375000D01*
X146025000Y-42375000D02*
X146025000Y-48375000D01*
X158025000Y-42375000D02*
X146025000Y-42375000D01*
X158025000Y-48375000D02*
X158025000Y-42375000D01*
X71980000Y-42375000D02*
X59980000Y-42375000D01*
X71980000Y-48375000D02*
X71980000Y-42375000D01*
X59980000Y-48375000D02*
X71980000Y-48375000D01*
X59980000Y-42375000D02*
X59980000Y-48375000D01*
X116819761Y-112585476D02*
X116867380Y-112728333D01*
X116867380Y-112966428D01*
X116819761Y-113061666D01*
X116772142Y-113109285D01*
X116676904Y-113156904D01*
X116581666Y-113156904D01*
X116486428Y-113109285D01*
X116438809Y-113061666D01*
X116391190Y-112966428D01*
X116343571Y-112775952D01*
X116295952Y-112680714D01*
X116248333Y-112633095D01*
X116153095Y-112585476D01*
X116057857Y-112585476D01*
X115962619Y-112633095D01*
X115915000Y-112680714D01*
X115867380Y-112775952D01*
X115867380Y-113014047D01*
X115915000Y-113156904D01*
X115867380Y-113490238D02*
X116867380Y-113728333D01*
X116153095Y-113918809D01*
X116867380Y-114109285D01*
X115867380Y-114347380D01*
X116867380Y-115252142D02*
X116867380Y-114680714D01*
X116867380Y-114966428D02*
X115867380Y-114966428D01*
X116010238Y-114871190D01*
X116105476Y-114775952D01*
X116153095Y-114680714D01*
X115867380Y-116109285D02*
X115867380Y-115918809D01*
X115915000Y-115823571D01*
X115962619Y-115775952D01*
X116105476Y-115680714D01*
X116295952Y-115633095D01*
X116676904Y-115633095D01*
X116772142Y-115680714D01*
X116819761Y-115728333D01*
X116867380Y-115823571D01*
X116867380Y-116014047D01*
X116819761Y-116109285D01*
X116772142Y-116156904D01*
X116676904Y-116204523D01*
X116438809Y-116204523D01*
X116343571Y-116156904D01*
X116295952Y-116109285D01*
X116248333Y-116014047D01*
X116248333Y-115823571D01*
X116295952Y-115728333D01*
X116343571Y-115680714D01*
X116438809Y-115633095D01*
X113069666Y-106559380D02*
X113403000Y-106083190D01*
X113641095Y-106559380D02*
X113641095Y-105559380D01*
X113260142Y-105559380D01*
X113164904Y-105607000D01*
X113117285Y-105654619D01*
X113069666Y-105749857D01*
X113069666Y-105892714D01*
X113117285Y-105987952D01*
X113164904Y-106035571D01*
X113260142Y-106083190D01*
X113641095Y-106083190D01*
X112117285Y-106559380D02*
X112688714Y-106559380D01*
X112403000Y-106559380D02*
X112403000Y-105559380D01*
X112498238Y-105702238D01*
X112593476Y-105797476D01*
X112688714Y-105845095D01*
X74939142Y-122610333D02*
X74986761Y-122562714D01*
X75034380Y-122419857D01*
X75034380Y-122324619D01*
X74986761Y-122181761D01*
X74891523Y-122086523D01*
X74796285Y-122038904D01*
X74605809Y-121991285D01*
X74462952Y-121991285D01*
X74272476Y-122038904D01*
X74177238Y-122086523D01*
X74082000Y-122181761D01*
X74034380Y-122324619D01*
X74034380Y-122419857D01*
X74082000Y-122562714D01*
X74129619Y-122610333D01*
X74367714Y-123467476D02*
X75034380Y-123467476D01*
X73986761Y-123229380D02*
X74701047Y-122991285D01*
X74701047Y-123610333D01*
X144311666Y-120307142D02*
X144359285Y-120354761D01*
X144502142Y-120402380D01*
X144597380Y-120402380D01*
X144740238Y-120354761D01*
X144835476Y-120259523D01*
X144883095Y-120164285D01*
X144930714Y-119973809D01*
X144930714Y-119830952D01*
X144883095Y-119640476D01*
X144835476Y-119545238D01*
X144740238Y-119450000D01*
X144597380Y-119402380D01*
X144502142Y-119402380D01*
X144359285Y-119450000D01*
X144311666Y-119497619D01*
X143978333Y-119402380D02*
X143359285Y-119402380D01*
X143692619Y-119783333D01*
X143549761Y-119783333D01*
X143454523Y-119830952D01*
X143406904Y-119878571D01*
X143359285Y-119973809D01*
X143359285Y-120211904D01*
X143406904Y-120307142D01*
X143454523Y-120354761D01*
X143549761Y-120402380D01*
X143835476Y-120402380D01*
X143930714Y-120354761D01*
X143978333Y-120307142D01*
X111166666Y-125357142D02*
X111214285Y-125404761D01*
X111357142Y-125452380D01*
X111452380Y-125452380D01*
X111595238Y-125404761D01*
X111690476Y-125309523D01*
X111738095Y-125214285D01*
X111785714Y-125023809D01*
X111785714Y-124880952D01*
X111738095Y-124690476D01*
X111690476Y-124595238D01*
X111595238Y-124500000D01*
X111452380Y-124452380D01*
X111357142Y-124452380D01*
X111214285Y-124500000D01*
X111166666Y-124547619D01*
X110785714Y-124547619D02*
X110738095Y-124500000D01*
X110642857Y-124452380D01*
X110404761Y-124452380D01*
X110309523Y-124500000D01*
X110261904Y-124547619D01*
X110214285Y-124642857D01*
X110214285Y-124738095D01*
X110261904Y-124880952D01*
X110833333Y-125452380D01*
X110214285Y-125452380D01*
X115101666Y-123167142D02*
X115149285Y-123214761D01*
X115292142Y-123262380D01*
X115387380Y-123262380D01*
X115530238Y-123214761D01*
X115625476Y-123119523D01*
X115673095Y-123024285D01*
X115720714Y-122833809D01*
X115720714Y-122690952D01*
X115673095Y-122500476D01*
X115625476Y-122405238D01*
X115530238Y-122310000D01*
X115387380Y-122262380D01*
X115292142Y-122262380D01*
X115149285Y-122310000D01*
X115101666Y-122357619D01*
X114149285Y-123262380D02*
X114720714Y-123262380D01*
X114435000Y-123262380D02*
X114435000Y-122262380D01*
X114530238Y-122405238D01*
X114625476Y-122500476D01*
X114720714Y-122548095D01*
X117508334Y-84929762D02*
X117365477Y-84977381D01*
X117127381Y-84977381D01*
X117032143Y-84929762D01*
X116984524Y-84882143D01*
X116936905Y-84786905D01*
X116936905Y-84691667D01*
X116984524Y-84596429D01*
X117032143Y-84548810D01*
X117127381Y-84501191D01*
X117317858Y-84453572D01*
X117413096Y-84405953D01*
X117460715Y-84358334D01*
X117508334Y-84263096D01*
X117508334Y-84167858D01*
X117460715Y-84072620D01*
X117413096Y-84025001D01*
X117317858Y-83977381D01*
X117079762Y-83977381D01*
X116936905Y-84025001D01*
X116603572Y-83977381D02*
X116365477Y-84977381D01*
X116175001Y-84263096D01*
X115984524Y-84977381D01*
X115746429Y-83977381D01*
X115222620Y-84405953D02*
X115317858Y-84358334D01*
X115365477Y-84310715D01*
X115413096Y-84215477D01*
X115413096Y-84167858D01*
X115365477Y-84072620D01*
X115317858Y-84025001D01*
X115222620Y-83977381D01*
X115032143Y-83977381D01*
X114936905Y-84025001D01*
X114889286Y-84072620D01*
X114841667Y-84167858D01*
X114841667Y-84215477D01*
X114889286Y-84310715D01*
X114936905Y-84358334D01*
X115032143Y-84405953D01*
X115222620Y-84405953D01*
X115317858Y-84453572D01*
X115365477Y-84501191D01*
X115413096Y-84596429D01*
X115413096Y-84786905D01*
X115365477Y-84882143D01*
X115317858Y-84929762D01*
X115222620Y-84977381D01*
X115032143Y-84977381D01*
X114936905Y-84929762D01*
X114889286Y-84882143D01*
X114841667Y-84786905D01*
X114841667Y-84596429D01*
X114889286Y-84501191D01*
X114936905Y-84453572D01*
X115032143Y-84405953D01*
X137034524Y-65879762D02*
X136891667Y-65927381D01*
X136653572Y-65927381D01*
X136558334Y-65879762D01*
X136510715Y-65832143D01*
X136463096Y-65736905D01*
X136463096Y-65641667D01*
X136510715Y-65546429D01*
X136558334Y-65498810D01*
X136653572Y-65451191D01*
X136844048Y-65403572D01*
X136939286Y-65355953D01*
X136986905Y-65308334D01*
X137034524Y-65213096D01*
X137034524Y-65117858D01*
X136986905Y-65022620D01*
X136939286Y-64975001D01*
X136844048Y-64927381D01*
X136605953Y-64927381D01*
X136463096Y-64975001D01*
X136129762Y-64927381D02*
X135891667Y-65927381D01*
X135701191Y-65213096D01*
X135510715Y-65927381D01*
X135272620Y-64927381D01*
X134367858Y-65927381D02*
X134939286Y-65927381D01*
X134653572Y-65927381D02*
X134653572Y-64927381D01*
X134748810Y-65070239D01*
X134844048Y-65165477D01*
X134939286Y-65213096D01*
X133748810Y-64927381D02*
X133653572Y-64927381D01*
X133558334Y-64975001D01*
X133510715Y-65022620D01*
X133463096Y-65117858D01*
X133415477Y-65308334D01*
X133415477Y-65546429D01*
X133463096Y-65736905D01*
X133510715Y-65832143D01*
X133558334Y-65879762D01*
X133653572Y-65927381D01*
X133748810Y-65927381D01*
X133844048Y-65879762D01*
X133891667Y-65832143D01*
X133939286Y-65736905D01*
X133986905Y-65546429D01*
X133986905Y-65308334D01*
X133939286Y-65117858D01*
X133891667Y-65022620D01*
X133844048Y-64975001D01*
X133748810Y-64927381D01*
X109981904Y-107897380D02*
X109981904Y-108706904D01*
X109934285Y-108802142D01*
X109886666Y-108849761D01*
X109791428Y-108897380D01*
X109600952Y-108897380D01*
X109505714Y-108849761D01*
X109458095Y-108802142D01*
X109410476Y-108706904D01*
X109410476Y-107897380D01*
X108410476Y-108897380D02*
X108981904Y-108897380D01*
X108696190Y-108897380D02*
X108696190Y-107897380D01*
X108791428Y-108040238D01*
X108886666Y-108135476D01*
X108981904Y-108183095D01*
X79408334Y-65879762D02*
X79265477Y-65927381D01*
X79027381Y-65927381D01*
X78932143Y-65879762D01*
X78884524Y-65832143D01*
X78836905Y-65736905D01*
X78836905Y-65641667D01*
X78884524Y-65546429D01*
X78932143Y-65498810D01*
X79027381Y-65451191D01*
X79217858Y-65403572D01*
X79313096Y-65355953D01*
X79360715Y-65308334D01*
X79408334Y-65213096D01*
X79408334Y-65117858D01*
X79360715Y-65022620D01*
X79313096Y-64975001D01*
X79217858Y-64927381D01*
X78979762Y-64927381D01*
X78836905Y-64975001D01*
X78503572Y-64927381D02*
X78265477Y-65927381D01*
X78075001Y-65213096D01*
X77884524Y-65927381D01*
X77646429Y-64927381D01*
X76741667Y-65927381D02*
X77313096Y-65927381D01*
X77027381Y-65927381D02*
X77027381Y-64927381D01*
X77122620Y-65070239D01*
X77217858Y-65165477D01*
X77313096Y-65213096D01*
X79408334Y-84929762D02*
X79265477Y-84977381D01*
X79027381Y-84977381D01*
X78932143Y-84929762D01*
X78884524Y-84882143D01*
X78836905Y-84786905D01*
X78836905Y-84691667D01*
X78884524Y-84596429D01*
X78932143Y-84548810D01*
X79027381Y-84501191D01*
X79217858Y-84453572D01*
X79313096Y-84405953D01*
X79360715Y-84358334D01*
X79408334Y-84263096D01*
X79408334Y-84167858D01*
X79360715Y-84072620D01*
X79313096Y-84025001D01*
X79217858Y-83977381D01*
X78979762Y-83977381D01*
X78836905Y-84025001D01*
X78503572Y-83977381D02*
X78265477Y-84977381D01*
X78075001Y-84263096D01*
X77884524Y-84977381D01*
X77646429Y-83977381D01*
X77313096Y-84072620D02*
X77265477Y-84025001D01*
X77170239Y-83977381D01*
X76932143Y-83977381D01*
X76836905Y-84025001D01*
X76789286Y-84072620D01*
X76741667Y-84167858D01*
X76741667Y-84263096D01*
X76789286Y-84405953D01*
X77360715Y-84977381D01*
X76741667Y-84977381D01*
X79408334Y-103979762D02*
X79265477Y-104027381D01*
X79027381Y-104027381D01*
X78932143Y-103979762D01*
X78884524Y-103932143D01*
X78836905Y-103836905D01*
X78836905Y-103741667D01*
X78884524Y-103646429D01*
X78932143Y-103598810D01*
X79027381Y-103551191D01*
X79217858Y-103503572D01*
X79313096Y-103455953D01*
X79360715Y-103408334D01*
X79408334Y-103313096D01*
X79408334Y-103217858D01*
X79360715Y-103122620D01*
X79313096Y-103075001D01*
X79217858Y-103027381D01*
X78979762Y-103027381D01*
X78836905Y-103075001D01*
X78503572Y-103027381D02*
X78265477Y-104027381D01*
X78075001Y-103313096D01*
X77884524Y-104027381D01*
X77646429Y-103027381D01*
X77360715Y-103027381D02*
X76741667Y-103027381D01*
X77075001Y-103408334D01*
X76932143Y-103408334D01*
X76836905Y-103455953D01*
X76789286Y-103503572D01*
X76741667Y-103598810D01*
X76741667Y-103836905D01*
X76789286Y-103932143D01*
X76836905Y-103979762D01*
X76932143Y-104027381D01*
X77217858Y-104027381D01*
X77313096Y-103979762D01*
X77360715Y-103932143D01*
X98458334Y-65879762D02*
X98315477Y-65927381D01*
X98077381Y-65927381D01*
X97982143Y-65879762D01*
X97934524Y-65832143D01*
X97886905Y-65736905D01*
X97886905Y-65641667D01*
X97934524Y-65546429D01*
X97982143Y-65498810D01*
X98077381Y-65451191D01*
X98267858Y-65403572D01*
X98363096Y-65355953D01*
X98410715Y-65308334D01*
X98458334Y-65213096D01*
X98458334Y-65117858D01*
X98410715Y-65022620D01*
X98363096Y-64975001D01*
X98267858Y-64927381D01*
X98029762Y-64927381D01*
X97886905Y-64975001D01*
X97553572Y-64927381D02*
X97315477Y-65927381D01*
X97125001Y-65213096D01*
X96934524Y-65927381D01*
X96696429Y-64927381D01*
X95886905Y-65260715D02*
X95886905Y-65927381D01*
X96125001Y-64879762D02*
X96363096Y-65594048D01*
X95744048Y-65594048D01*
X98458334Y-84929762D02*
X98315477Y-84977381D01*
X98077381Y-84977381D01*
X97982143Y-84929762D01*
X97934524Y-84882143D01*
X97886905Y-84786905D01*
X97886905Y-84691667D01*
X97934524Y-84596429D01*
X97982143Y-84548810D01*
X98077381Y-84501191D01*
X98267858Y-84453572D01*
X98363096Y-84405953D01*
X98410715Y-84358334D01*
X98458334Y-84263096D01*
X98458334Y-84167858D01*
X98410715Y-84072620D01*
X98363096Y-84025001D01*
X98267858Y-83977381D01*
X98029762Y-83977381D01*
X97886905Y-84025001D01*
X97553572Y-83977381D02*
X97315477Y-84977381D01*
X97125001Y-84263096D01*
X96934524Y-84977381D01*
X96696429Y-83977381D01*
X95839286Y-83977381D02*
X96315477Y-83977381D01*
X96363096Y-84453572D01*
X96315477Y-84405953D01*
X96220239Y-84358334D01*
X95982143Y-84358334D01*
X95886905Y-84405953D01*
X95839286Y-84453572D01*
X95791667Y-84548810D01*
X95791667Y-84786905D01*
X95839286Y-84882143D01*
X95886905Y-84929762D01*
X95982143Y-84977381D01*
X96220239Y-84977381D01*
X96315477Y-84929762D01*
X96363096Y-84882143D01*
X98458334Y-103979762D02*
X98315477Y-104027381D01*
X98077381Y-104027381D01*
X97982143Y-103979762D01*
X97934524Y-103932143D01*
X97886905Y-103836905D01*
X97886905Y-103741667D01*
X97934524Y-103646429D01*
X97982143Y-103598810D01*
X98077381Y-103551191D01*
X98267858Y-103503572D01*
X98363096Y-103455953D01*
X98410715Y-103408334D01*
X98458334Y-103313096D01*
X98458334Y-103217858D01*
X98410715Y-103122620D01*
X98363096Y-103075001D01*
X98267858Y-103027381D01*
X98029762Y-103027381D01*
X97886905Y-103075001D01*
X97553572Y-103027381D02*
X97315477Y-104027381D01*
X97125001Y-103313096D01*
X96934524Y-104027381D01*
X96696429Y-103027381D01*
X95886905Y-103027381D02*
X96077381Y-103027381D01*
X96172620Y-103075001D01*
X96220239Y-103122620D01*
X96315477Y-103265477D01*
X96363096Y-103455953D01*
X96363096Y-103836905D01*
X96315477Y-103932143D01*
X96267858Y-103979762D01*
X96172620Y-104027381D01*
X95982143Y-104027381D01*
X95886905Y-103979762D01*
X95839286Y-103932143D01*
X95791667Y-103836905D01*
X95791667Y-103598810D01*
X95839286Y-103503572D01*
X95886905Y-103455953D01*
X95982143Y-103408334D01*
X96172620Y-103408334D01*
X96267858Y-103455953D01*
X96315477Y-103503572D01*
X96363096Y-103598810D01*
X117508334Y-65879762D02*
X117365477Y-65927381D01*
X117127381Y-65927381D01*
X117032143Y-65879762D01*
X116984524Y-65832143D01*
X116936905Y-65736905D01*
X116936905Y-65641667D01*
X116984524Y-65546429D01*
X117032143Y-65498810D01*
X117127381Y-65451191D01*
X117317858Y-65403572D01*
X117413096Y-65355953D01*
X117460715Y-65308334D01*
X117508334Y-65213096D01*
X117508334Y-65117858D01*
X117460715Y-65022620D01*
X117413096Y-64975001D01*
X117317858Y-64927381D01*
X117079762Y-64927381D01*
X116936905Y-64975001D01*
X116603572Y-64927381D02*
X116365477Y-65927381D01*
X116175001Y-65213096D01*
X115984524Y-65927381D01*
X115746429Y-64927381D01*
X115460715Y-64927381D02*
X114794048Y-64927381D01*
X115222620Y-65927381D01*
X117508334Y-103979762D02*
X117365477Y-104027381D01*
X117127381Y-104027381D01*
X117032143Y-103979762D01*
X116984524Y-103932143D01*
X116936905Y-103836905D01*
X116936905Y-103741667D01*
X116984524Y-103646429D01*
X117032143Y-103598810D01*
X117127381Y-103551191D01*
X117317858Y-103503572D01*
X117413096Y-103455953D01*
X117460715Y-103408334D01*
X117508334Y-103313096D01*
X117508334Y-103217858D01*
X117460715Y-103122620D01*
X117413096Y-103075001D01*
X117317858Y-103027381D01*
X117079762Y-103027381D01*
X116936905Y-103075001D01*
X116603572Y-103027381D02*
X116365477Y-104027381D01*
X116175001Y-103313096D01*
X115984524Y-104027381D01*
X115746429Y-103027381D01*
X115317858Y-104027381D02*
X115127381Y-104027381D01*
X115032143Y-103979762D01*
X114984524Y-103932143D01*
X114889286Y-103789286D01*
X114841667Y-103598810D01*
X114841667Y-103217858D01*
X114889286Y-103122620D01*
X114936905Y-103075001D01*
X115032143Y-103027381D01*
X115222620Y-103027381D01*
X115317858Y-103075001D01*
X115365477Y-103122620D01*
X115413096Y-103217858D01*
X115413096Y-103455953D01*
X115365477Y-103551191D01*
X115317858Y-103598810D01*
X115222620Y-103646429D01*
X115032143Y-103646429D01*
X114936905Y-103598810D01*
X114889286Y-103551191D01*
X114841667Y-103455953D01*
X137034524Y-84929762D02*
X136891667Y-84977381D01*
X136653572Y-84977381D01*
X136558334Y-84929762D01*
X136510715Y-84882143D01*
X136463096Y-84786905D01*
X136463096Y-84691667D01*
X136510715Y-84596429D01*
X136558334Y-84548810D01*
X136653572Y-84501191D01*
X136844048Y-84453572D01*
X136939286Y-84405953D01*
X136986905Y-84358334D01*
X137034524Y-84263096D01*
X137034524Y-84167858D01*
X136986905Y-84072620D01*
X136939286Y-84025001D01*
X136844048Y-83977381D01*
X136605953Y-83977381D01*
X136463096Y-84025001D01*
X136129762Y-83977381D02*
X135891667Y-84977381D01*
X135701191Y-84263096D01*
X135510715Y-84977381D01*
X135272620Y-83977381D01*
X134367858Y-84977381D02*
X134939286Y-84977381D01*
X134653572Y-84977381D02*
X134653572Y-83977381D01*
X134748810Y-84120239D01*
X134844048Y-84215477D01*
X134939286Y-84263096D01*
X133415477Y-84977381D02*
X133986905Y-84977381D01*
X133701191Y-84977381D02*
X133701191Y-83977381D01*
X133796429Y-84120239D01*
X133891667Y-84215477D01*
X133986905Y-84263096D01*
X137034524Y-103979762D02*
X136891667Y-104027381D01*
X136653572Y-104027381D01*
X136558334Y-103979762D01*
X136510715Y-103932143D01*
X136463096Y-103836905D01*
X136463096Y-103741667D01*
X136510715Y-103646429D01*
X136558334Y-103598810D01*
X136653572Y-103551191D01*
X136844048Y-103503572D01*
X136939286Y-103455953D01*
X136986905Y-103408334D01*
X137034524Y-103313096D01*
X137034524Y-103217858D01*
X136986905Y-103122620D01*
X136939286Y-103075001D01*
X136844048Y-103027381D01*
X136605953Y-103027381D01*
X136463096Y-103075001D01*
X136129762Y-103027381D02*
X135891667Y-104027381D01*
X135701191Y-103313096D01*
X135510715Y-104027381D01*
X135272620Y-103027381D01*
X134367858Y-104027381D02*
X134939286Y-104027381D01*
X134653572Y-104027381D02*
X134653572Y-103027381D01*
X134748810Y-103170239D01*
X134844048Y-103265477D01*
X134939286Y-103313096D01*
X133986905Y-103122620D02*
X133939286Y-103075001D01*
X133844048Y-103027381D01*
X133605953Y-103027381D01*
X133510715Y-103075001D01*
X133463096Y-103122620D01*
X133415477Y-103217858D01*
X133415477Y-103313096D01*
X133463096Y-103455953D01*
X134034524Y-104027381D01*
X133415477Y-104027381D01*
X156084524Y-63879762D02*
X155941667Y-63927381D01*
X155703572Y-63927381D01*
X155608334Y-63879762D01*
X155560715Y-63832143D01*
X155513096Y-63736905D01*
X155513096Y-63641667D01*
X155560715Y-63546429D01*
X155608334Y-63498810D01*
X155703572Y-63451191D01*
X155894048Y-63403572D01*
X155989286Y-63355953D01*
X156036905Y-63308334D01*
X156084524Y-63213096D01*
X156084524Y-63117858D01*
X156036905Y-63022620D01*
X155989286Y-62975001D01*
X155894048Y-62927381D01*
X155655953Y-62927381D01*
X155513096Y-62975001D01*
X155179762Y-62927381D02*
X154941667Y-63927381D01*
X154751191Y-63213096D01*
X154560715Y-63927381D01*
X154322620Y-62927381D01*
X153417858Y-63927381D02*
X153989286Y-63927381D01*
X153703572Y-63927381D02*
X153703572Y-62927381D01*
X153798810Y-63070239D01*
X153894048Y-63165477D01*
X153989286Y-63213096D01*
X153084524Y-62927381D02*
X152465477Y-62927381D01*
X152798810Y-63308334D01*
X152655953Y-63308334D01*
X152560715Y-63355953D01*
X152513096Y-63403572D01*
X152465477Y-63498810D01*
X152465477Y-63736905D01*
X152513096Y-63832143D01*
X152560715Y-63879762D01*
X152655953Y-63927381D01*
X152941667Y-63927381D01*
X153036905Y-63879762D01*
X153084524Y-63832143D01*
X156084524Y-84929762D02*
X155941667Y-84977381D01*
X155703572Y-84977381D01*
X155608334Y-84929762D01*
X155560715Y-84882143D01*
X155513096Y-84786905D01*
X155513096Y-84691667D01*
X155560715Y-84596429D01*
X155608334Y-84548810D01*
X155703572Y-84501191D01*
X155894048Y-84453572D01*
X155989286Y-84405953D01*
X156036905Y-84358334D01*
X156084524Y-84263096D01*
X156084524Y-84167858D01*
X156036905Y-84072620D01*
X155989286Y-84025001D01*
X155894048Y-83977381D01*
X155655953Y-83977381D01*
X155513096Y-84025001D01*
X155179762Y-83977381D02*
X154941667Y-84977381D01*
X154751191Y-84263096D01*
X154560715Y-84977381D01*
X154322620Y-83977381D01*
X153417858Y-84977381D02*
X153989286Y-84977381D01*
X153703572Y-84977381D02*
X153703572Y-83977381D01*
X153798810Y-84120239D01*
X153894048Y-84215477D01*
X153989286Y-84263096D01*
X152560715Y-84310715D02*
X152560715Y-84977381D01*
X152798810Y-83929762D02*
X153036905Y-84644048D01*
X152417858Y-84644048D01*
X156084524Y-101979762D02*
X155941667Y-102027381D01*
X155703572Y-102027381D01*
X155608334Y-101979762D01*
X155560715Y-101932143D01*
X155513096Y-101836905D01*
X155513096Y-101741667D01*
X155560715Y-101646429D01*
X155608334Y-101598810D01*
X155703572Y-101551191D01*
X155894048Y-101503572D01*
X155989286Y-101455953D01*
X156036905Y-101408334D01*
X156084524Y-101313096D01*
X156084524Y-101217858D01*
X156036905Y-101122620D01*
X155989286Y-101075001D01*
X155894048Y-101027381D01*
X155655953Y-101027381D01*
X155513096Y-101075001D01*
X155179762Y-101027381D02*
X154941667Y-102027381D01*
X154751191Y-101313096D01*
X154560715Y-102027381D01*
X154322620Y-101027381D01*
X153417858Y-102027381D02*
X153989286Y-102027381D01*
X153703572Y-102027381D02*
X153703572Y-101027381D01*
X153798810Y-101170239D01*
X153894048Y-101265477D01*
X153989286Y-101313096D01*
X152513096Y-101027381D02*
X152989286Y-101027381D01*
X153036905Y-101503572D01*
X152989286Y-101455953D01*
X152894048Y-101408334D01*
X152655953Y-101408334D01*
X152560715Y-101455953D01*
X152513096Y-101503572D01*
X152465477Y-101598810D01*
X152465477Y-101836905D01*
X152513096Y-101932143D01*
X152560715Y-101979762D01*
X152655953Y-102027381D01*
X152894048Y-102027381D01*
X152989286Y-101979762D01*
X153036905Y-101932143D01*
X151027380Y-120563095D02*
X151027380Y-121134523D01*
X152027380Y-120848809D02*
X151027380Y-120848809D01*
X152027380Y-122039285D02*
X151551190Y-121705952D01*
X152027380Y-121467857D02*
X151027380Y-121467857D01*
X151027380Y-121848809D01*
X151075000Y-121944047D01*
X151122619Y-121991666D01*
X151217857Y-122039285D01*
X151360714Y-122039285D01*
X151455952Y-121991666D01*
X151503571Y-121944047D01*
X151551190Y-121848809D01*
X151551190Y-121467857D01*
X152027380Y-123039285D02*
X151551190Y-122705952D01*
X152027380Y-122467857D02*
X151027380Y-122467857D01*
X151027380Y-122848809D01*
X151075000Y-122944047D01*
X151122619Y-122991666D01*
X151217857Y-123039285D01*
X151360714Y-123039285D01*
X151455952Y-122991666D01*
X151503571Y-122944047D01*
X151551190Y-122848809D01*
X151551190Y-122467857D01*
X151979761Y-123420238D02*
X152027380Y-123563095D01*
X152027380Y-123801190D01*
X151979761Y-123896428D01*
X151932142Y-123944047D01*
X151836904Y-123991666D01*
X151741666Y-123991666D01*
X151646428Y-123944047D01*
X151598809Y-123896428D01*
X151551190Y-123801190D01*
X151503571Y-123610714D01*
X151455952Y-123515476D01*
X151408333Y-123467857D01*
X151313095Y-123420238D01*
X151217857Y-123420238D01*
X151122619Y-123467857D01*
X151075000Y-123515476D01*
X151027380Y-123610714D01*
X151027380Y-123848809D01*
X151075000Y-123991666D01*
X65882380Y-119063095D02*
X65882380Y-119634523D01*
X66882380Y-119348809D02*
X65882380Y-119348809D01*
X66882380Y-120539285D02*
X66406190Y-120205952D01*
X66882380Y-119967857D02*
X65882380Y-119967857D01*
X65882380Y-120348809D01*
X65930000Y-120444047D01*
X65977619Y-120491666D01*
X66072857Y-120539285D01*
X66215714Y-120539285D01*
X66310952Y-120491666D01*
X66358571Y-120444047D01*
X66406190Y-120348809D01*
X66406190Y-119967857D01*
X66882380Y-121539285D02*
X66406190Y-121205952D01*
X66882380Y-120967857D02*
X65882380Y-120967857D01*
X65882380Y-121348809D01*
X65930000Y-121444047D01*
X65977619Y-121491666D01*
X66072857Y-121539285D01*
X66215714Y-121539285D01*
X66310952Y-121491666D01*
X66358571Y-121444047D01*
X66406190Y-121348809D01*
X66406190Y-120967857D01*
X66834761Y-121920238D02*
X66882380Y-122063095D01*
X66882380Y-122301190D01*
X66834761Y-122396428D01*
X66787142Y-122444047D01*
X66691904Y-122491666D01*
X66596666Y-122491666D01*
X66501428Y-122444047D01*
X66453809Y-122396428D01*
X66406190Y-122301190D01*
X66358571Y-122110714D01*
X66310952Y-122015476D01*
X66263333Y-121967857D01*
X66168095Y-121920238D01*
X66072857Y-121920238D01*
X65977619Y-121967857D01*
X65930000Y-122015476D01*
X65882380Y-122110714D01*
X65882380Y-122348809D01*
X65930000Y-122491666D01*
X151027380Y-44363095D02*
X151027380Y-44934523D01*
X152027380Y-44648809D02*
X151027380Y-44648809D01*
X152027380Y-45839285D02*
X151551190Y-45505952D01*
X152027380Y-45267857D02*
X151027380Y-45267857D01*
X151027380Y-45648809D01*
X151075000Y-45744047D01*
X151122619Y-45791666D01*
X151217857Y-45839285D01*
X151360714Y-45839285D01*
X151455952Y-45791666D01*
X151503571Y-45744047D01*
X151551190Y-45648809D01*
X151551190Y-45267857D01*
X152027380Y-46839285D02*
X151551190Y-46505952D01*
X152027380Y-46267857D02*
X151027380Y-46267857D01*
X151027380Y-46648809D01*
X151075000Y-46744047D01*
X151122619Y-46791666D01*
X151217857Y-46839285D01*
X151360714Y-46839285D01*
X151455952Y-46791666D01*
X151503571Y-46744047D01*
X151551190Y-46648809D01*
X151551190Y-46267857D01*
X151979761Y-47220238D02*
X152027380Y-47363095D01*
X152027380Y-47601190D01*
X151979761Y-47696428D01*
X151932142Y-47744047D01*
X151836904Y-47791666D01*
X151741666Y-47791666D01*
X151646428Y-47744047D01*
X151598809Y-47696428D01*
X151551190Y-47601190D01*
X151503571Y-47410714D01*
X151455952Y-47315476D01*
X151408333Y-47267857D01*
X151313095Y-47220238D01*
X151217857Y-47220238D01*
X151122619Y-47267857D01*
X151075000Y-47315476D01*
X151027380Y-47410714D01*
X151027380Y-47648809D01*
X151075000Y-47791666D01*
X65882380Y-42863095D02*
X65882380Y-43434523D01*
X66882380Y-43148809D02*
X65882380Y-43148809D01*
X66882380Y-44339285D02*
X66406190Y-44005952D01*
X66882380Y-43767857D02*
X65882380Y-43767857D01*
X65882380Y-44148809D01*
X65930000Y-44244047D01*
X65977619Y-44291666D01*
X66072857Y-44339285D01*
X66215714Y-44339285D01*
X66310952Y-44291666D01*
X66358571Y-44244047D01*
X66406190Y-44148809D01*
X66406190Y-43767857D01*
X66882380Y-45339285D02*
X66406190Y-45005952D01*
X66882380Y-44767857D02*
X65882380Y-44767857D01*
X65882380Y-45148809D01*
X65930000Y-45244047D01*
X65977619Y-45291666D01*
X66072857Y-45339285D01*
X66215714Y-45339285D01*
X66310952Y-45291666D01*
X66358571Y-45244047D01*
X66406190Y-45148809D01*
X66406190Y-44767857D01*
X66834761Y-45720238D02*
X66882380Y-45863095D01*
X66882380Y-46101190D01*
X66834761Y-46196428D01*
X66787142Y-46244047D01*
X66691904Y-46291666D01*
X66596666Y-46291666D01*
X66501428Y-46244047D01*
X66453809Y-46196428D01*
X66406190Y-46101190D01*
X66358571Y-45910714D01*
X66310952Y-45815476D01*
X66263333Y-45767857D01*
X66168095Y-45720238D01*
X66072857Y-45720238D01*
X65977619Y-45767857D01*
X65930000Y-45815476D01*
X65882380Y-45910714D01*
X65882380Y-46148809D01*
X65930000Y-46291666D01*
M02*
