G04 #@! TF.GenerationSoftware,KiCad,Pcbnew,(5.1.0)-1*
G04 #@! TF.CreationDate,2019-04-24T01:58:38+09:00*
G04 #@! TF.ProjectId,mithumboard,6d697468-756d-4626-9f61-72642e6b6963,rev?*
G04 #@! TF.SameCoordinates,Original*
G04 #@! TF.FileFunction,Paste,Bot*
G04 #@! TF.FilePolarity,Positive*
%FSLAX46Y46*%
G04 Gerber Fmt 4.6, Leading zero omitted, Abs format (unit mm)*
G04 Created by KiCad (PCBNEW (5.1.0)-1) date 2019-04-24 01:58:38*
%MOMM*%
%LPD*%
G04 APERTURE LIST*
%ADD10R,2.000000X2.000000*%
%ADD11R,1.900000X2.000000*%
G04 APERTURE END LIST*
D10*
X120125001Y-80125001D03*
D11*
X131025001Y-82325001D03*
D10*
X121325001Y-73885001D03*
X133825001Y-71345001D03*
X62975001Y-61075001D03*
D11*
X73875001Y-63275001D03*
D10*
X64175001Y-54835001D03*
X76675001Y-52295001D03*
X62975001Y-80125001D03*
D11*
X73875001Y-82325001D03*
D10*
X64175001Y-73885001D03*
X76675001Y-71345001D03*
X62975001Y-99175001D03*
D11*
X73875001Y-101375001D03*
D10*
X64175001Y-92935001D03*
X76675001Y-90395001D03*
X82025001Y-61075001D03*
D11*
X92925001Y-63275001D03*
D10*
X83225001Y-54835001D03*
X95725001Y-52295001D03*
X82025001Y-80125001D03*
D11*
X92925001Y-82325001D03*
D10*
X83225001Y-73885001D03*
X95725001Y-71345001D03*
X82025001Y-99175001D03*
D11*
X92925001Y-101375001D03*
D10*
X83225001Y-92935001D03*
X95725001Y-90395001D03*
X101075001Y-61075001D03*
D11*
X111975001Y-63275001D03*
D10*
X102275001Y-54835001D03*
X114775001Y-52295001D03*
X101075001Y-80125001D03*
D11*
X111975001Y-82325001D03*
D10*
X102275001Y-73885001D03*
X114775001Y-71345001D03*
X101075001Y-99175001D03*
D11*
X111975001Y-101375001D03*
D10*
X102275001Y-92935001D03*
X114775001Y-90395001D03*
X120125001Y-61075001D03*
D11*
X131025001Y-63275001D03*
D10*
X121325001Y-54835001D03*
X133825001Y-52295001D03*
X120125001Y-99175001D03*
D11*
X131025001Y-101375001D03*
D10*
X121325001Y-92935001D03*
X133825001Y-90395001D03*
X139175001Y-61075001D03*
D11*
X150075001Y-63275001D03*
D10*
X140375001Y-54835001D03*
X152875001Y-52295001D03*
X139175001Y-80125001D03*
D11*
X150075001Y-82325001D03*
D10*
X140375001Y-73885001D03*
X152875001Y-71345001D03*
X139175001Y-99175001D03*
D11*
X150075001Y-101375001D03*
D10*
X140375001Y-92935001D03*
X152875001Y-90395001D03*
M02*
