G04 #@! TF.GenerationSoftware,KiCad,Pcbnew,(5.1.0)-1*
G04 #@! TF.CreationDate,2019-04-24T01:58:38+09:00*
G04 #@! TF.ProjectId,mithumboard,6d697468-756d-4626-9f61-72642e6b6963,rev?*
G04 #@! TF.SameCoordinates,Original*
G04 #@! TF.FileFunction,Legend,Top*
G04 #@! TF.FilePolarity,Positive*
%FSLAX46Y46*%
G04 Gerber Fmt 4.6, Leading zero omitted, Abs format (unit mm)*
G04 Created by KiCad (PCBNEW (5.1.0)-1) date 2019-04-24 01:58:38*
%MOMM*%
%LPD*%
G04 APERTURE LIST*
%ADD10C,0.120000*%
%ADD11C,0.150000*%
G04 APERTURE END LIST*
D10*
X90364000Y-110094000D02*
X90364000Y-111744000D01*
X126044000Y-110094000D02*
X90364000Y-110094000D01*
X126044000Y-115394000D02*
X126044000Y-110094000D01*
X90364000Y-115394000D02*
X126044000Y-115394000D01*
X90364000Y-113744000D02*
X90364000Y-115394000D01*
X90364000Y-111744000D02*
G75*
G02X90364000Y-113744000I0J-1000000D01*
G01*
D11*
X142974000Y-115109000D02*
X142724000Y-115109000D01*
X142974000Y-109109000D02*
X142974000Y-115109000D01*
X142974000Y-109109000D02*
X142724000Y-109109000D01*
X139474000Y-109109000D02*
X139724000Y-109109000D01*
X139474000Y-115109000D02*
X139724000Y-115109000D01*
X139474000Y-109109000D02*
X139474000Y-115109000D01*
D10*
X126589000Y-117824000D02*
X129389000Y-117824000D01*
X126589000Y-104954000D02*
X126589000Y-120534000D01*
X129389000Y-104954000D02*
X126589000Y-104954000D01*
X129389000Y-120534000D02*
X129389000Y-104954000D01*
X126589000Y-120534000D02*
X129389000Y-120534000D01*
X119875000Y-106124000D02*
X117075000Y-106124000D01*
X117075000Y-106124000D02*
X117075000Y-104124000D01*
X117075000Y-104124000D02*
X119875000Y-104124000D01*
X119875000Y-104124000D02*
X119875000Y-106124000D01*
X115374000Y-106124000D02*
X111274000Y-106124000D01*
X111274000Y-106124000D02*
X111274000Y-104124000D01*
X111274000Y-104124000D02*
X115374000Y-104124000D01*
X115374000Y-104124000D02*
X115374000Y-106124000D01*
X134039667Y-115919000D02*
X134039667Y-117189000D01*
X132833000Y-117119000D02*
X134039667Y-117119000D01*
X132833000Y-116999000D02*
X134039667Y-116999000D01*
X132833000Y-116879000D02*
X134039667Y-116879000D01*
X132833000Y-116759000D02*
X134039667Y-116759000D01*
X132833000Y-116639000D02*
X134039667Y-116639000D01*
X132833000Y-116519000D02*
X134039667Y-116519000D01*
X132833000Y-116399000D02*
X134039667Y-116399000D01*
X132833000Y-116279000D02*
X134039667Y-116279000D01*
X132833000Y-116159000D02*
X134039667Y-116159000D01*
X132833000Y-116039000D02*
X134039667Y-116039000D01*
X136453000Y-115919000D02*
X132833000Y-115919000D01*
X136453000Y-117189000D02*
X136453000Y-115919000D01*
X132833000Y-117189000D02*
X136453000Y-117189000D01*
X132833000Y-115919000D02*
X132833000Y-117189000D01*
X134039667Y-113379000D02*
X134039667Y-114649000D01*
X132833000Y-114579000D02*
X134039667Y-114579000D01*
X132833000Y-114459000D02*
X134039667Y-114459000D01*
X132833000Y-114339000D02*
X134039667Y-114339000D01*
X132833000Y-114219000D02*
X134039667Y-114219000D01*
X132833000Y-114099000D02*
X134039667Y-114099000D01*
X132833000Y-113979000D02*
X134039667Y-113979000D01*
X132833000Y-113859000D02*
X134039667Y-113859000D01*
X132833000Y-113739000D02*
X134039667Y-113739000D01*
X132833000Y-113619000D02*
X134039667Y-113619000D01*
X132833000Y-113499000D02*
X134039667Y-113499000D01*
X136453000Y-113379000D02*
X132833000Y-113379000D01*
X136453000Y-114649000D02*
X136453000Y-113379000D01*
X132833000Y-114649000D02*
X136453000Y-114649000D01*
X132833000Y-113379000D02*
X132833000Y-114649000D01*
X134039667Y-110839000D02*
X134039667Y-112109000D01*
X132833000Y-112039000D02*
X134039667Y-112039000D01*
X132833000Y-111919000D02*
X134039667Y-111919000D01*
X132833000Y-111799000D02*
X134039667Y-111799000D01*
X132833000Y-111679000D02*
X134039667Y-111679000D01*
X132833000Y-111559000D02*
X134039667Y-111559000D01*
X132833000Y-111439000D02*
X134039667Y-111439000D01*
X132833000Y-111319000D02*
X134039667Y-111319000D01*
X132833000Y-111199000D02*
X134039667Y-111199000D01*
X132833000Y-111079000D02*
X134039667Y-111079000D01*
X132833000Y-110959000D02*
X134039667Y-110959000D01*
X136453000Y-110839000D02*
X132833000Y-110839000D01*
X136453000Y-112109000D02*
X136453000Y-110839000D01*
X132833000Y-112109000D02*
X136453000Y-112109000D01*
X132833000Y-110839000D02*
X132833000Y-112109000D01*
X134039667Y-108299000D02*
X134039667Y-109569000D01*
X132833000Y-109499000D02*
X134039667Y-109499000D01*
X132833000Y-109379000D02*
X134039667Y-109379000D01*
X132833000Y-109259000D02*
X134039667Y-109259000D01*
X132833000Y-109139000D02*
X134039667Y-109139000D01*
X132833000Y-109019000D02*
X134039667Y-109019000D01*
X132833000Y-108899000D02*
X134039667Y-108899000D01*
X132833000Y-108779000D02*
X134039667Y-108779000D01*
X132833000Y-108659000D02*
X134039667Y-108659000D01*
X132833000Y-108539000D02*
X134039667Y-108539000D01*
X132833000Y-108419000D02*
X134039667Y-108419000D01*
X136453000Y-108299000D02*
X132833000Y-108299000D01*
X136453000Y-109569000D02*
X136453000Y-108299000D01*
X132833000Y-109569000D02*
X136453000Y-109569000D01*
X132833000Y-108299000D02*
X132833000Y-109569000D01*
X130993000Y-106584000D02*
X130993000Y-107894000D01*
X130993000Y-106584000D02*
X132376000Y-106584000D01*
X138054000Y-109924000D02*
X138054000Y-110485000D01*
X138054000Y-106824000D02*
X138054000Y-107944000D01*
X138054000Y-112464000D02*
X138054000Y-113025000D01*
X138054000Y-115004000D02*
X138054000Y-115565000D01*
X138054000Y-117544000D02*
X138054000Y-118664000D01*
X131233000Y-117544000D02*
X131233000Y-118664000D01*
X131233000Y-115004000D02*
X131233000Y-115565000D01*
X131233000Y-112464000D02*
X131233000Y-113025000D01*
X131233000Y-109974000D02*
X131233000Y-110485000D01*
X131233000Y-106824000D02*
X131233000Y-107894000D01*
X131233000Y-118664000D02*
X138054000Y-118664000D01*
X131233000Y-106824000D02*
X138054000Y-106824000D01*
X116005000Y-123044775D02*
X116505000Y-123044775D01*
X116255000Y-123294775D02*
X116255000Y-122794775D01*
X117446000Y-117889000D02*
X118014000Y-117889000D01*
X117212000Y-117929000D02*
X118248000Y-117929000D01*
X117053000Y-117969000D02*
X118407000Y-117969000D01*
X116925000Y-118009000D02*
X118535000Y-118009000D01*
X116815000Y-118049000D02*
X118645000Y-118049000D01*
X116719000Y-118089000D02*
X118741000Y-118089000D01*
X116632000Y-118129000D02*
X118828000Y-118129000D01*
X116552000Y-118169000D02*
X118908000Y-118169000D01*
X116479000Y-118209000D02*
X118981000Y-118209000D01*
X116411000Y-118249000D02*
X119049000Y-118249000D01*
X116347000Y-118289000D02*
X119113000Y-118289000D01*
X116287000Y-118329000D02*
X119173000Y-118329000D01*
X116230000Y-118369000D02*
X119230000Y-118369000D01*
X116176000Y-118409000D02*
X119284000Y-118409000D01*
X116125000Y-118449000D02*
X119335000Y-118449000D01*
X118770000Y-118489000D02*
X119383000Y-118489000D01*
X116077000Y-118489000D02*
X116690000Y-118489000D01*
X118770000Y-118529000D02*
X119429000Y-118529000D01*
X116031000Y-118529000D02*
X116690000Y-118529000D01*
X118770000Y-118569000D02*
X119473000Y-118569000D01*
X115987000Y-118569000D02*
X116690000Y-118569000D01*
X118770000Y-118609000D02*
X119515000Y-118609000D01*
X115945000Y-118609000D02*
X116690000Y-118609000D01*
X118770000Y-118649000D02*
X119556000Y-118649000D01*
X115904000Y-118649000D02*
X116690000Y-118649000D01*
X118770000Y-118689000D02*
X119594000Y-118689000D01*
X115866000Y-118689000D02*
X116690000Y-118689000D01*
X118770000Y-118729000D02*
X119631000Y-118729000D01*
X115829000Y-118729000D02*
X116690000Y-118729000D01*
X118770000Y-118769000D02*
X119667000Y-118769000D01*
X115793000Y-118769000D02*
X116690000Y-118769000D01*
X118770000Y-118809000D02*
X119701000Y-118809000D01*
X115759000Y-118809000D02*
X116690000Y-118809000D01*
X118770000Y-118849000D02*
X119734000Y-118849000D01*
X115726000Y-118849000D02*
X116690000Y-118849000D01*
X118770000Y-118889000D02*
X119765000Y-118889000D01*
X115695000Y-118889000D02*
X116690000Y-118889000D01*
X118770000Y-118929000D02*
X119795000Y-118929000D01*
X115665000Y-118929000D02*
X116690000Y-118929000D01*
X118770000Y-118969000D02*
X119825000Y-118969000D01*
X115635000Y-118969000D02*
X116690000Y-118969000D01*
X118770000Y-119009000D02*
X119852000Y-119009000D01*
X115608000Y-119009000D02*
X116690000Y-119009000D01*
X118770000Y-119049000D02*
X119879000Y-119049000D01*
X115581000Y-119049000D02*
X116690000Y-119049000D01*
X118770000Y-119089000D02*
X119905000Y-119089000D01*
X115555000Y-119089000D02*
X116690000Y-119089000D01*
X118770000Y-119129000D02*
X119930000Y-119129000D01*
X115530000Y-119129000D02*
X116690000Y-119129000D01*
X118770000Y-119169000D02*
X119954000Y-119169000D01*
X115506000Y-119169000D02*
X116690000Y-119169000D01*
X118770000Y-119209000D02*
X119977000Y-119209000D01*
X115483000Y-119209000D02*
X116690000Y-119209000D01*
X118770000Y-119249000D02*
X119998000Y-119249000D01*
X115462000Y-119249000D02*
X116690000Y-119249000D01*
X118770000Y-119289000D02*
X120020000Y-119289000D01*
X115440000Y-119289000D02*
X116690000Y-119289000D01*
X118770000Y-119329000D02*
X120040000Y-119329000D01*
X115420000Y-119329000D02*
X116690000Y-119329000D01*
X118770000Y-119369000D02*
X120059000Y-119369000D01*
X115401000Y-119369000D02*
X116690000Y-119369000D01*
X118770000Y-119409000D02*
X120078000Y-119409000D01*
X115382000Y-119409000D02*
X116690000Y-119409000D01*
X118770000Y-119449000D02*
X120095000Y-119449000D01*
X115365000Y-119449000D02*
X116690000Y-119449000D01*
X118770000Y-119489000D02*
X120112000Y-119489000D01*
X115348000Y-119489000D02*
X116690000Y-119489000D01*
X118770000Y-119529000D02*
X120128000Y-119529000D01*
X115332000Y-119529000D02*
X116690000Y-119529000D01*
X118770000Y-119569000D02*
X120144000Y-119569000D01*
X115316000Y-119569000D02*
X116690000Y-119569000D01*
X118770000Y-119609000D02*
X120158000Y-119609000D01*
X115302000Y-119609000D02*
X116690000Y-119609000D01*
X118770000Y-119649000D02*
X120172000Y-119649000D01*
X115288000Y-119649000D02*
X116690000Y-119649000D01*
X118770000Y-119689000D02*
X120185000Y-119689000D01*
X115275000Y-119689000D02*
X116690000Y-119689000D01*
X118770000Y-119729000D02*
X120198000Y-119729000D01*
X115262000Y-119729000D02*
X116690000Y-119729000D01*
X118770000Y-119769000D02*
X120210000Y-119769000D01*
X115250000Y-119769000D02*
X116690000Y-119769000D01*
X118770000Y-119810000D02*
X120221000Y-119810000D01*
X115239000Y-119810000D02*
X116690000Y-119810000D01*
X118770000Y-119850000D02*
X120231000Y-119850000D01*
X115229000Y-119850000D02*
X116690000Y-119850000D01*
X118770000Y-119890000D02*
X120241000Y-119890000D01*
X115219000Y-119890000D02*
X116690000Y-119890000D01*
X118770000Y-119930000D02*
X120250000Y-119930000D01*
X115210000Y-119930000D02*
X116690000Y-119930000D01*
X118770000Y-119970000D02*
X120258000Y-119970000D01*
X115202000Y-119970000D02*
X116690000Y-119970000D01*
X118770000Y-120010000D02*
X120266000Y-120010000D01*
X115194000Y-120010000D02*
X116690000Y-120010000D01*
X118770000Y-120050000D02*
X120273000Y-120050000D01*
X115187000Y-120050000D02*
X116690000Y-120050000D01*
X118770000Y-120090000D02*
X120280000Y-120090000D01*
X115180000Y-120090000D02*
X116690000Y-120090000D01*
X118770000Y-120130000D02*
X120286000Y-120130000D01*
X115174000Y-120130000D02*
X116690000Y-120130000D01*
X118770000Y-120170000D02*
X120291000Y-120170000D01*
X115169000Y-120170000D02*
X116690000Y-120170000D01*
X118770000Y-120210000D02*
X120295000Y-120210000D01*
X115165000Y-120210000D02*
X116690000Y-120210000D01*
X118770000Y-120250000D02*
X120299000Y-120250000D01*
X115161000Y-120250000D02*
X116690000Y-120250000D01*
X118770000Y-120290000D02*
X120303000Y-120290000D01*
X115157000Y-120290000D02*
X116690000Y-120290000D01*
X118770000Y-120330000D02*
X120306000Y-120330000D01*
X115154000Y-120330000D02*
X116690000Y-120330000D01*
X118770000Y-120370000D02*
X120308000Y-120370000D01*
X115152000Y-120370000D02*
X116690000Y-120370000D01*
X118770000Y-120410000D02*
X120309000Y-120410000D01*
X115151000Y-120410000D02*
X116690000Y-120410000D01*
X115150000Y-120450000D02*
X116690000Y-120450000D01*
X118770000Y-120450000D02*
X120310000Y-120450000D01*
X115150000Y-120490000D02*
X116690000Y-120490000D01*
X118770000Y-120490000D02*
X120310000Y-120490000D01*
X120350000Y-120490000D02*
G75*
G03X120350000Y-120490000I-2620000J0D01*
G01*
X144054000Y-118046000D02*
X144499000Y-118046000D01*
X141759000Y-118046000D02*
X142204000Y-118046000D01*
X144054000Y-124286000D02*
X144499000Y-124286000D01*
X141759000Y-124286000D02*
X142204000Y-124286000D01*
X144499000Y-124286000D02*
X144499000Y-118046000D01*
X141759000Y-124286000D02*
X141759000Y-118046000D01*
X107918000Y-118550000D02*
X107918000Y-118105000D01*
X107918000Y-120845000D02*
X107918000Y-120400000D01*
X114158000Y-118550000D02*
X114158000Y-118105000D01*
X114158000Y-120845000D02*
X114158000Y-120400000D01*
X114158000Y-118105000D02*
X107918000Y-118105000D01*
X114158000Y-120845000D02*
X107918000Y-120845000D01*
X72485000Y-122360000D02*
X72485000Y-121915000D01*
X72485000Y-124655000D02*
X72485000Y-124210000D01*
X78725000Y-122360000D02*
X78725000Y-121915000D01*
X78725000Y-124655000D02*
X78725000Y-124210000D01*
X78725000Y-121915000D02*
X72485000Y-121915000D01*
X78725000Y-124655000D02*
X72485000Y-124655000D01*
D11*
X88816380Y-113505904D02*
X89625904Y-113505904D01*
X89721142Y-113458285D01*
X89768761Y-113410666D01*
X89816380Y-113315428D01*
X89816380Y-113124952D01*
X89768761Y-113029714D01*
X89721142Y-112982095D01*
X89625904Y-112934476D01*
X88816380Y-112934476D01*
X89816380Y-111934476D02*
X89816380Y-112505904D01*
X89816380Y-112220190D02*
X88816380Y-112220190D01*
X88959238Y-112315428D01*
X89054476Y-112410666D01*
X89102095Y-112505904D01*
X141676380Y-113688380D02*
X141200190Y-114021714D01*
X141676380Y-114259809D02*
X140676380Y-114259809D01*
X140676380Y-113878857D01*
X140724000Y-113783619D01*
X140771619Y-113736000D01*
X140866857Y-113688380D01*
X141009714Y-113688380D01*
X141104952Y-113736000D01*
X141152571Y-113783619D01*
X141200190Y-113878857D01*
X141200190Y-114259809D01*
X141152571Y-113259809D02*
X141152571Y-112926476D01*
X141676380Y-112783619D02*
X141676380Y-113259809D01*
X140676380Y-113259809D01*
X140676380Y-112783619D01*
X141628761Y-112402666D02*
X141676380Y-112259809D01*
X141676380Y-112021714D01*
X141628761Y-111926476D01*
X141581142Y-111878857D01*
X141485904Y-111831238D01*
X141390666Y-111831238D01*
X141295428Y-111878857D01*
X141247809Y-111926476D01*
X141200190Y-112021714D01*
X141152571Y-112212190D01*
X141104952Y-112307428D01*
X141057333Y-112355047D01*
X140962095Y-112402666D01*
X140866857Y-112402666D01*
X140771619Y-112355047D01*
X140724000Y-112307428D01*
X140676380Y-112212190D01*
X140676380Y-111974095D01*
X140724000Y-111831238D01*
X141152571Y-111402666D02*
X141152571Y-111069333D01*
X141676380Y-110926476D02*
X141676380Y-111402666D01*
X140676380Y-111402666D01*
X140676380Y-110926476D01*
X140676380Y-110640761D02*
X140676380Y-110069333D01*
X141676380Y-110355047D02*
X140676380Y-110355047D01*
X126041380Y-112164476D02*
X125565190Y-112497809D01*
X126041380Y-112735904D02*
X125041380Y-112735904D01*
X125041380Y-112354952D01*
X125089000Y-112259714D01*
X125136619Y-112212095D01*
X125231857Y-112164476D01*
X125374714Y-112164476D01*
X125469952Y-112212095D01*
X125517571Y-112259714D01*
X125565190Y-112354952D01*
X125565190Y-112735904D01*
X126041380Y-111735904D02*
X125041380Y-111735904D01*
X126041380Y-111164476D01*
X125041380Y-111164476D01*
X126041380Y-110164476D02*
X126041380Y-110735904D01*
X126041380Y-110450190D02*
X125041380Y-110450190D01*
X125184238Y-110545428D01*
X125279476Y-110640666D01*
X125327095Y-110735904D01*
X117641666Y-106376380D02*
X117641666Y-107090666D01*
X117594047Y-107233523D01*
X117498809Y-107328761D01*
X117355952Y-107376380D01*
X117260714Y-107376380D01*
X118117857Y-107376380D02*
X118117857Y-106376380D01*
X118498809Y-106376380D01*
X118594047Y-106424000D01*
X118641666Y-106471619D01*
X118689285Y-106566857D01*
X118689285Y-106709714D01*
X118641666Y-106804952D01*
X118594047Y-106852571D01*
X118498809Y-106900190D01*
X118117857Y-106900190D01*
X119070238Y-106471619D02*
X119117857Y-106424000D01*
X119213095Y-106376380D01*
X119451190Y-106376380D01*
X119546428Y-106424000D01*
X119594047Y-106471619D01*
X119641666Y-106566857D01*
X119641666Y-106662095D01*
X119594047Y-106804952D01*
X119022619Y-107376380D01*
X119641666Y-107376380D01*
X112490666Y-106376380D02*
X112490666Y-107090666D01*
X112443047Y-107233523D01*
X112347809Y-107328761D01*
X112204952Y-107376380D01*
X112109714Y-107376380D01*
X112966857Y-107376380D02*
X112966857Y-106376380D01*
X113347809Y-106376380D01*
X113443047Y-106424000D01*
X113490666Y-106471619D01*
X113538285Y-106566857D01*
X113538285Y-106709714D01*
X113490666Y-106804952D01*
X113443047Y-106852571D01*
X113347809Y-106900190D01*
X112966857Y-106900190D01*
X114490666Y-107376380D02*
X113919238Y-107376380D01*
X114204952Y-107376380D02*
X114204952Y-106376380D01*
X114109714Y-106519238D01*
X114014476Y-106614476D01*
X113919238Y-106662095D01*
X116209714Y-105576380D02*
X115638285Y-105576380D01*
X115924000Y-105576380D02*
X115924000Y-104576380D01*
X115828761Y-104719238D01*
X115733523Y-104814476D01*
X115638285Y-104862095D01*
X110390666Y-104576380D02*
X111009714Y-104576380D01*
X110676380Y-104957333D01*
X110819238Y-104957333D01*
X110914476Y-105004952D01*
X110962095Y-105052571D01*
X111009714Y-105147809D01*
X111009714Y-105385904D01*
X110962095Y-105481142D01*
X110914476Y-105528761D01*
X110819238Y-105576380D01*
X110533523Y-105576380D01*
X110438285Y-105528761D01*
X110390666Y-105481142D01*
X132833476Y-106228761D02*
X132976333Y-106276380D01*
X133214428Y-106276380D01*
X133309666Y-106228761D01*
X133357285Y-106181142D01*
X133404904Y-106085904D01*
X133404904Y-105990666D01*
X133357285Y-105895428D01*
X133309666Y-105847809D01*
X133214428Y-105800190D01*
X133023952Y-105752571D01*
X132928714Y-105704952D01*
X132881095Y-105657333D01*
X132833476Y-105562095D01*
X132833476Y-105466857D01*
X132881095Y-105371619D01*
X132928714Y-105324000D01*
X133023952Y-105276380D01*
X133262047Y-105276380D01*
X133404904Y-105324000D01*
X133738238Y-105276380D02*
X133976333Y-106276380D01*
X134166809Y-105562095D01*
X134357285Y-106276380D01*
X134595380Y-105276380D01*
X135500142Y-106276380D02*
X134928714Y-106276380D01*
X135214428Y-106276380D02*
X135214428Y-105276380D01*
X135119190Y-105419238D01*
X135023952Y-105514476D01*
X134928714Y-105562095D01*
X136357285Y-105276380D02*
X136166809Y-105276380D01*
X136071571Y-105324000D01*
X136023952Y-105371619D01*
X135928714Y-105514476D01*
X135881095Y-105704952D01*
X135881095Y-106085904D01*
X135928714Y-106181142D01*
X135976333Y-106228761D01*
X136071571Y-106276380D01*
X136262047Y-106276380D01*
X136357285Y-106228761D01*
X136404904Y-106181142D01*
X136452523Y-106085904D01*
X136452523Y-105847809D01*
X136404904Y-105752571D01*
X136357285Y-105704952D01*
X136262047Y-105657333D01*
X136071571Y-105657333D01*
X135976333Y-105704952D01*
X135928714Y-105752571D01*
X135881095Y-105847809D01*
X120610333Y-123261142D02*
X120562714Y-123308761D01*
X120419857Y-123356380D01*
X120324619Y-123356380D01*
X120181761Y-123308761D01*
X120086523Y-123213523D01*
X120038904Y-123118285D01*
X119991285Y-122927809D01*
X119991285Y-122784952D01*
X120038904Y-122594476D01*
X120086523Y-122499238D01*
X120181761Y-122404000D01*
X120324619Y-122356380D01*
X120419857Y-122356380D01*
X120562714Y-122404000D01*
X120610333Y-122451619D01*
X120991285Y-122451619D02*
X121038904Y-122404000D01*
X121134142Y-122356380D01*
X121372238Y-122356380D01*
X121467476Y-122404000D01*
X121515095Y-122451619D01*
X121562714Y-122546857D01*
X121562714Y-122642095D01*
X121515095Y-122784952D01*
X120943666Y-123356380D01*
X121562714Y-123356380D01*
X140986142Y-121332666D02*
X141033761Y-121380285D01*
X141081380Y-121523142D01*
X141081380Y-121618380D01*
X141033761Y-121761238D01*
X140938523Y-121856476D01*
X140843285Y-121904095D01*
X140652809Y-121951714D01*
X140509952Y-121951714D01*
X140319476Y-121904095D01*
X140224238Y-121856476D01*
X140129000Y-121761238D01*
X140081380Y-121618380D01*
X140081380Y-121523142D01*
X140129000Y-121380285D01*
X140176619Y-121332666D01*
X140414714Y-120475523D02*
X141081380Y-120475523D01*
X140033761Y-120713619D02*
X140748047Y-120951714D01*
X140748047Y-120332666D01*
X110871333Y-122332142D02*
X110823714Y-122379761D01*
X110680857Y-122427380D01*
X110585619Y-122427380D01*
X110442761Y-122379761D01*
X110347523Y-122284523D01*
X110299904Y-122189285D01*
X110252285Y-121998809D01*
X110252285Y-121855952D01*
X110299904Y-121665476D01*
X110347523Y-121570238D01*
X110442761Y-121475000D01*
X110585619Y-121427380D01*
X110680857Y-121427380D01*
X110823714Y-121475000D01*
X110871333Y-121522619D01*
X111823714Y-122427380D02*
X111252285Y-122427380D01*
X111538000Y-122427380D02*
X111538000Y-121427380D01*
X111442761Y-121570238D01*
X111347523Y-121665476D01*
X111252285Y-121713095D01*
X75438333Y-120993142D02*
X75390714Y-121040761D01*
X75247857Y-121088380D01*
X75152619Y-121088380D01*
X75009761Y-121040761D01*
X74914523Y-120945523D01*
X74866904Y-120850285D01*
X74819285Y-120659809D01*
X74819285Y-120516952D01*
X74866904Y-120326476D01*
X74914523Y-120231238D01*
X75009761Y-120136000D01*
X75152619Y-120088380D01*
X75247857Y-120088380D01*
X75390714Y-120136000D01*
X75438333Y-120183619D01*
X75771666Y-120088380D02*
X76390714Y-120088380D01*
X76057380Y-120469333D01*
X76200238Y-120469333D01*
X76295476Y-120516952D01*
X76343095Y-120564571D01*
X76390714Y-120659809D01*
X76390714Y-120897904D01*
X76343095Y-120993142D01*
X76295476Y-121040761D01*
X76200238Y-121088380D01*
X75914523Y-121088380D01*
X75819285Y-121040761D01*
X75771666Y-120993142D01*
M02*
